{
.appVersion = "3058";
.formatVersion = 3;
DisplayStrings = (
ABCDEFGHIJKLMNOPQRSTUVWXYZ,
abcdefghijklmnopqrstuvwxyz
);
axes = (
{
name = Weight;
tag = wght;
},
{
name = Italic;
tag = ital;
}
);
customParameters = (
{
name = macintoshFONDFamilyID;
value = 128;
},
{
name = macintoshFONDName;
value = Avara;
},
{
name = openTypeHeadLowestRecPPEM;
value = 8;
},
{
name = compatibleFullName;
value = "Avara Bold";
},
{
name = preferredFamilyName;
value = Avara;
},
{
name = uniqueID;
value = "PfEd: AvaraTwo: 2013";
},
{
name = versionString;
value = "Version 001.000 ";
},
{
name = codePageRanges;
value = (
);
},
{
name = openTypeOS2FamilyClass;
value = (
0,
0
);
},
{
name = panose;
value = (
2,
0,
5,
3,
0,
0,
0,
0,
0,
0
);
},
{
name = openTypeOS2SubscriptXOffset;
value = 0;
},
{
name = openTypeOS2SubscriptXSize;
value = 650;
},
{
name = openTypeOS2SubscriptYOffset;
value = 150;
},
{
name = openTypeOS2SubscriptYSize;
value = 700;
},
{
name = openTypeOS2SuperscriptXOffset;
value = 0;
},
{
name = openTypeOS2SuperscriptXSize;
value = 650;
},
{
name = openTypeOS2SuperscriptYOffset;
value = 475;
},
{
name = openTypeOS2SuperscriptYSize;
value = 700;
},
{
name = fsType;
value = (
);
},
{
name = unicodeRanges;
value = (
0,
1
);
},
{
name = vendorID;
value = PfEd;
},
{
name = blueFuzz;
value = 1;
},
{
name = blueScale;
value = 0.04;
},
{
name = blueShift;
value = 7;
},
{
name = postscriptDefaultWidthX;
value = 500;
},
{
name = postscriptForceBold;
value = 0;
},
{
name = postscriptIsFixedPitch;
value = 0;
},
{
name = postscriptSlantAngle;
value = 0;
},
{
name = postscriptUniqueID;
value = -1;
},
{
name = postscriptWindowsCharacterSet;
value = 1;
},
{
name = year;
value = 2013;
}
);
date = "2020-08-21 14:16:40 +0000";
familyName = Avara;
featurePrefixes = (
{
code = "languagesystem DFLT dflt;";
name = Languagesystems;
}
);
features = (
{
automatic = 1;
code = "feature frac;";
tag = aalt;
},
{
automatic = 1;
code = "sub one slash four by onequarter;
sub one slash two by onehalf;

glyphs = (
{
glyphname = A;
lastChange = "2021-04-23 18:12:55 +0000";
layers = (
{
anchors = (
{
name = bottom;
pos = (440,0);
},
{
name = ogonek;
pos = (800,0);
},
{
name = right;
pos = (840,0);
},
{
name = top;
pos = (440,840);
}
);
layerId = "EBA0A543-5703-488C-9449-531557917997";
shapes = (
{
closed = 1;
nodes = (
(280,0,l),
(200,80,l),
(240,200,l),
(518,200,l),
(560,200,l),
(573,161,l),
(600,80,l),
(520,0,l),
(880,0,l),
(800,80,l),
(520,840,l),
(360,760,l),
(360,720,l),
(80,80,l),
(0,0,l)
);
},
{
closed = 1;
nodes = (
(310,360,l),
(400,600,l),
(400,640,l),
(514,298,l),
(520,280,l),
(496,280,l),
(280,280,l)
);
}
);
userData = {
com.typemytype.robofont.layerData = {
regular = {
anchors = (
);
components = (
);
contours = (
{
points = (
{
segmentType = line;
smooth = 0;
x = 220;
y = 0;
},
{
segmentType = line;
smooth = 0;
x = -20;
y = 0;
},
{
segmentType = line;
smooth = 0;
x = 60;
y = 80;
},
{
segmentType = line;
smooth = 0;
x = 300;
y = 720;
},
{
segmentType = line;
smooth = 0;
x = 300;
y = 760;
},
{
segmentType = line;
smooth = 0;
x = 380;
y = 840;
},
{
segmentType = line;
smooth = 0;
x = 660;
y = 80;
},
{
segmentType = line;
smooth = 0;
x = 740;
y = 0;
},
{
segmentType = line;
smooth = 0;
x = 500;
y = 0;
},
{
segmentType = line;
smooth = 0;
x = 540;
y = 80;
},
{
segmentType = line;
smooth = 0;
x = 483;
y = 240;
},
{
segmentType = line;
smooth = 0;
x = 197;
y = 240;
},
{
segmentType = line;
smooth = 0;
x = 140;
y = 80;
}
);
},
{
points = (
{
segmentType = line;
smooth = 0;
x = 340;
y = 640;
},
{
segmentType = line;
smooth = 0;
x = 211;
y = 280;
},
{
segmentType = line;
smooth = 0;
x = 468;
y = 280;
}
);
}
);
lib = {
};
name = A;
unicodes = (
);
width = 880;
};
};
com.typemytype.robofont.mark = (
0.001,
0.822,
0.283,
1
);
};
width = 880;
},
{
anchors = (
{
name = bottom;
pos = (400,0);
},
{
name = ogonek;
pos = (720,0);
},
{
name = right;
pos = (760,-1);
},
{
name = top;
pos = (620,800);
}
);
layerId = "C256A14B-F4BB-4E0C-9412-298CC44D4DAA";
shapes = (
{
closed = 1;
nodes = (
(240,0,l),
(160,80,l),
(280,240,l),
(520,240,l),
(537,223,l),
(560,200,l),
(560,80,l),
(480,0,l),
(760,0,l),
(680,80,l),
(680,840,l),
(560,760,l),
(560,720,l),
(80,80,l),
(-40,0,l)
);
},
{
closed = 1;
nodes = (
(360,360,l),
(539,611,l),
(560,640,l),
(560,320,l),
(539,299,l),
(520,280,l),
(320,280,l)
);
}
);
userData = {
com.typemytype.robofont.mark = (
0.001,
0.822,
0.283,
1
);
};
width = 800;
},
{
anchors = (
{
name = bottom;
pos = (400,0);
},
{
name = ogonek;
pos = (680,0);
},
{
name = right;
pos = (721,0);
},
{
name = top;
pos = (400,840);
}
);
layerId = master01;
shapes = (
{
closed = 1;
nodes = (
(240,0,l),
(160,80,l),
(217,240,l),
(477,240,l),
(503,240,l),
(517,201,l),
(560,80,l),
(520,0,l),
(760,0,l),
(680,80,l),
(400,840,l),
(320,760,l),
(320,720,l),
(80,80,l),
(0,0,l)
);
},
{
closed = 1;
nodes = (
(254,334,l),
(351,613,l),
(360,640,l),
(473,314,l),
(485,280,l),
(447,280,l),
(235,280,l)
);
}
);
width = 760;
}
);
unicode = 65;
},
{
glyphname = AE;
lastChange = "2021-04-23 17:31:27 +0000";
layers = (
{
anchors = (
{
name = bottom;
pos = (560,0);
},
{
name = top;
pos = (760,840);
}
);
layerId = "EBA0A543-5703-488C-9449-531557917997";
shapes = (
{
closed = 1;
nodes = (
(1040,-40,l),
(960,0,l),
(440,0,l),
(520,80,l),
(520,240,l),
(280,240,l),
(200,80,l),
(280,0,l),
(0,0,l),
(80,80,l),
(480,800,l),
(840,800,l),
(1000,840,l),
(1040,560,l),
(1000,560,l),
(880,720,l),
(760,720,l),
(720,680,l),
(720,480,l),
(760,440,l),
(840,440,l),
(960,560,l),
(960,240,l),
(840,360,l),
(760,360,l),
(720,320,l),
(720,120,l),
(760,80,l),
(920,80,l),
(1040,280,l),
(1080,280,l)
);
},
{
closed = 1;
nodes = (
(520,320,l),
(520,720,l),
(320,320,l)
);
}
);
userData = {
com.schriftgestaltung.Glyphs.lastChange = "2020-08-21 16:02:42 +0000";
com.typemytype.robofont.layerData = {
background = {
anchors = (
{
name = top;
x = 760;
y = 840;
},
{
name = right;
x = 1120;
y = 0;
},
{
name = bottom;
x = 800;
y = 0;
}
);
components = (
);
contours = (
{
points = (
{
segmentType = line;
smooth = 0;
x = 1120;
y = 280;
},
{
segmentType = line;
smooth = 0;
x = 1080;
y = -40;
},
{
segmentType = line;
smooth = 0;
x = 1000;
y = 0;
},
{
segmentType = line;
smooth = 0;
x = 440;
y = 0;
},
{
segmentType = line;
smooth = 0;
x = 520;
y = 80;
},
{
segmentType = line;
smooth = 0;
x = 520;
y = 720;
},
{
segmentType = line;
smooth = 0;
x = 440;
y = 800;
},
{
segmentType = line;
smooth = 0;
x = 880;
y = 800;
},
{
segmentType = line;
smooth = 0;
x = 1040;
y = 840;
},
{
segmentType = line;
smooth = 0;
x = 1080;
y = 560;
},
{
segmentType = line;
smooth = 0;
x = 1040;
y = 560;
},
{
segmentType = line;
smooth = 0;
x = 920;
y = 720;
},
{
segmentType = line;
smooth = 0;
x = 760;
y = 720;
},
{
segmentType = line;
smooth = 0;
x = 720;
y = 680;
},
{
segmentType = line;
smooth = 0;
x = 720;
y = 480;
},
{
segmentType = line;
smooth = 0;
x = 760;
y = 440;
},
{
segmentType = line;
smooth = 0;
x = 880;
y = 440;
},
{
segmentType = line;
smooth = 0;
x = 1000;
y = 560;
},
{
segmentType = line;
smooth = 0;
x = 1000;
y = 240;
},
{
segmentType = line;
smooth = 0;
x = 880;
y = 360;
},
{
segmentType = line;
smooth = 0;
x = 760;
y = 360;
},
{
segmentType = line;
smooth = 0;
x = 720;
y = 320;
},
{
segmentType = line;
smooth = 0;
x = 720;
y = 120;
},
{
segmentType = line;
smooth = 0;
x = 760;
y = 80;
},
{
segmentType = line;
smooth = 0;
x = 960;
y = 80;
},
{
segmentType = line;
smooth = 0;
x = 1080;
y = 280;
}
);
},
{
points = (
{
segmentType = line;
smooth = 0;
x = 320;
y = 0;
},
{
segmentType = line;
smooth = 0;
x = 40;
y = 0;
},
{
segmentType = line;
smooth = 0;
x = 120;
y = 80;
},
{
segmentType = line;
smooth = 0;
x = 400;
y = 720;
},
{
segmentType = line;
smooth = 0;
x = 400;
y = 760;
},
{
segmentType = line;
smooth = 0;
x = 560;
y = 840;
},
{
segmentType = line;
smooth = 0;
x = 840;
y = 80;
},
{
segmentType = line;
smooth = 0;
x = 920;
y = 0;
},
{
segmentType = line;
smooth = 0;
x = 560;
y = 0;
},
{
segmentType = line;
smooth = 0;
x = 640;
y = 80;
},
{
segmentType = line;
smooth = 0;
x = 600;
y = 200;
},
{
segmentType = line;
smooth = 0;
x = 280;
y = 200;
},
{
segmentType = line;
smooth = 0;
x = 240;
y = 80;
}
);
},
{
points = (
{
segmentType = line;
smooth = 0;
x = 440;
y = 640;
},
{
segmentType = line;
smooth = 0;
x = 440;
y = 600;
},
{
segmentType = line;
smooth = 0;
x = 320;
y = 280;
},
{
segmentType = line;
smooth = 0;
x = 560;
y = 280;
}
);
}
);
lib = {
com.typemytype.robofont.layerData = {
background = {
anchors = (
);
components = (
);
contours = (
);
lib = {
};
name = E;
unicodes = (
);
width = 760;
};
regular = {
anchors = (
);
components = (
);
contours = (
{
points = (
{
segmentType = line;
smooth = 0;
x = 680;
y = 240;
},
{
segmentType = line;
smooth = 0;
x = 640;
y = -40;
},
{
segmentType = line;
smooth = 0;
x = 560;
y = 0;
},
{
segmentType = line;
smooth = 0;
x = 40;
y = 0;
},
{
segmentType = line;
smooth = 0;
x = 120;
y = 80;
},
{
segmentType = line;
smooth = 0;
x = 120;
y = 720;
},
{
segmentType = line;
smooth = 0;
x = 40;
y = 800;
},
{
segmentType = line;
smooth = 0;
x = 440;
y = 800;
},
{
segmentType = line;
smooth = 0;
x = 600;
y = 840;
},
{
segmentType = line;
smooth = 0;
x = 640;
y = 600;
},
{
segmentType = line;
smooth = 0;
x = 600;
y = 600;
},
{
segmentType = line;
smooth = 0;
x = 480;
y = 760;
},
{
segmentType = line;
smooth = 0;
x = 280;
y = 760;
},
{
segmentType = line;
smooth = 0;
x = 240;
y = 720;
},
{
segmentType = line;
smooth = 0;
x = 240;
y = 480;
},
{
segmentType = line;
smooth = 0;
x = 280;
y = 440;
},
{
segmentType = line;
smooth = 0;
x = 440;
y = 440;
},
{
segmentType = line;
smooth = 0;
x = 520;
y = 520;
},
{
segmentType = line;
smooth = 0;
x = 520;
y = 320;
},
{
segmentType = line;
smooth = 0;
x = 440;
y = 400;
},
{
segmentType = line;
smooth = 0;
x = 280;
y = 400;
},
{
segmentType = line;
smooth = 0;
x = 240;
y = 360;
},
{
segmentType = line;
smooth = 0;
x = 240;
y = 80;
},
{
segmentType = line;
smooth = 0;
x = 280;
y = 40;
},
{
segmentType = line;
smooth = 0;
x = 520;
y = 40;
},
{
segmentType = line;
smooth = 0;
x = 640;
y = 240;
}
);
}
);
lib = {
};
name = E;
unicodes = (
);
width = 760;
};
};
};
name = AE;
unicodes = (
);
width = 1120;
};
regular = {
anchors = (
);
components = (
);
contours = (
{
points = (
{
segmentType = line;
smooth = 0;
x = 1080;
y = 240;
},
{
segmentType = line;
smooth = 0;
x = 1040;
y = -40;
},
{
segmentType = line;
smooth = 0;
x = 960;
y = 0;
},
{
segmentType = line;
smooth = 0;
x = 440;
y = 0;
},
{
segmentType = line;
smooth = 0;
x = 520;
y = 80;
},
{
segmentType = line;
smooth = 0;
x = 520;
y = 240;
},
{
segmentType = line;
smooth = 0;
x = 270;
y = 240;
},
{
segmentType = line;
smooth = 0;
x = 200;
y = 80;
},
{
segmentType = line;
smooth = 0;
x = 280;
y = 0;
},
{
segmentType = line;
smooth = 0;
x = 40;
y = 0;
},
{
segmentType = line;
smooth = 0;
x = 120;
y = 80;
},
{
segmentType = line;
smooth = 0;
x = 440;
y = 800;
},
{
segmentType = line;
smooth = 0;
x = 840;
y = 800;
},
{
segmentType = line;
smooth = 0;
x = 1000;
y = 840;
},
{
segmentType = line;
smooth = 0;
x = 1040;
y = 600;
},
{
segmentType = line;
smooth = 0;
x = 1000;
y = 600;
},
{
segmentType = line;
smooth = 0;
x = 880;
y = 760;
},
{
segmentType = line;
smooth = 0;
x = 680;
y = 760;
},
{
segmentType = line;
smooth = 0;
x = 640;
y = 720;
},
{
segmentType = line;
smooth = 0;
x = 640;
y = 480;
},
{
segmentType = line;
smooth = 0;
x = 680;
y = 440;
},
{
segmentType = line;
smooth = 0;
x = 840;
y = 440;
},
{
segmentType = line;
smooth = 0;
x = 920;
y = 520;
},
{
segmentType = line;
smooth = 0;
x = 920;
y = 320;
},
{
segmentType = line;
smooth = 0;
x = 840;
y = 400;
},
{
segmentType = line;
smooth = 0;
x = 680;
y = 400;
},
{
segmentType = line;
smooth = 0;
x = 640;
y = 360;
},
{
segmentType = line;
smooth = 0;
x = 640;
y = 80;
},
{
segmentType = line;
smooth = 0;
x = 680;
y = 40;
},
{
segmentType = line;
smooth = 0;
x = 920;
y = 40;
},
{
segmentType = line;
smooth = 0;
x = 1040;
y = 240;
}
);
},
{
points = (
{
segmentType = line;
smooth = 0;
x = 480;
y = 720;
},
{
segmentType = line;
smooth = 0;
x = 287;
y = 280;
},
{
segmentType = line;
smooth = 0;
x = 520;
y = 280;
},
{
segmentType = line;
smooth = 0;
x = 520;
y = 680;
}
);
}
);
lib = {
};
name = AE;
unicodes = (
);
width = 1120;
};
};
com.typemytype.robofont.mark = (
0.001,
0.822,
0.283,
1
);
};
width = 1120;
},
{
anchors = (
{
name = top;
pos = (620,800);
}
);
layerId = "C256A14B-F4BB-4E0C-9412-298CC44D4DAA";
shapes = (
{
closed = 1;
nodes = (
(-40,0,l),
(80,80,l),
(560,720,l),
(480,800,l),
(680,800,l),
(680,80,l),
(760,0,l),
(480,0,l),
(560,80,l),
(560,200,l),
(520,240,l),
(280,240,l),
(160,80,l),
(240,0,l)
);
},
{
closed = 1;
nodes = (
(360,360,l),
(320,280,l),
(520,280,l),
(560,320,l),
(560,640,l)
);
},
{
closed = 1;
nodes = (
(960,800,l),
(1120,840,l),
(1160,600,l),
(1120,600,l),
(1000,760,l),
(680,760,l),
(680,800,l)
);
},
{
closed = 1;
nodes = (
(840,440,l),
(920,520,l),
(920,320,l),
(840,400,l),
(680,400,l),
(680,440,l)
);
},
{
closed = 1;
nodes = (
(960,-40,l),
(880,0,l),
(679,0,l),
(679,40,l),
(840,40,l),
(960,240,l),
(1000,240,l)
);
}
);
userData = {
com.typemytype.robofont.mark = (
0.374,
0.974,
0.983,
1
);
};
width = 1080;
},
{
layerId = master01;
shapes = (
{
closed = 1;
nodes = (
(1040,240,l),
(1000,240,l),
(880,40,l),
(640,40,l),
(600,80,l),
(600,360,l),
(640,400,l),
(800,400,l),
(880,320,l),
(880,520,l),
(800,440,l),
(640,440,l),
(600,480,l),
(600,720,l),
(640,760,l),
(840,760,l),
(960,600,l),
(1000,600,l),
(960,840,l),
(800,800,l),
(400,800,l),
(80,80,l),
(0,0,l),
(240,0,l),
(160,80,l),
(230,240,l),
(480,240,l),
(480,80,l),
(400,0,l),
(920,0,l),
(1000,-40,l)
);
},
{
closed = 1;
nodes = (
(440,720,l),
(480,680,l),
(480,280,l),
(247,280,l)
);
}
);
width = 1080;
}
);
unicode = 198;
},
{
glyphname = B;
lastChange = "2021-04-23 17:46:22 +0000";
layers = (
{
layerId = "EBA0A543-5703-488C-9449-531557917997";
shapes = (
{
closed = 1;
nodes = (
(480,0,l),
(680,80,l),
(760,240,l),
(680,400,l),
(520,440,l),
(640,480,l),
(720,600,l),
(640,760,l),
(400,800,l),
(0,800,l),
(80,720,l),
(80,80,l),
(0,0,l)
);
},
{
closed = 1;
nodes = (
(280,120,l),
(280,680,l),
(320,720,l),
(400,720,l),
(480,680,l),
(520,600,l),
(440,480,l),
(320,440,l),
(280,440,l),
(280,400,l),
(360,400,l),
(480,360,l),
(560,240,l),
(520,120,l),
(400,80,l),
(320,80,l)
);
}
);
userData = {
com.typemytype.robofont.layerData = {
regular = {
anchors = (
);
components = (
);
contours = (
{
points = (
{
segmentType = line;
smooth = 0;
x = 60;
y = 800;
},
{
segmentType = line;
smooth = 0;
x = 420;
y = 800;
},
{
segmentType = line;
smooth = 0;
x = 620;
y = 760;
},
{
segmentType = line;
smooth = 0;
x = 700;
y = 600;
},
{
segmentType = line;
smooth = 0;
x = 620;
y = 480;
},
{
segmentType = line;
smooth = 0;
x = 540;
y = 440;
},
{
segmentType = line;
smooth = 0;
x = 660;
y = 400;
},
{
segmentType = line;
smooth = 0;
x = 740;
y = 240;
},
{
segmentType = line;
smooth = 0;
x = 660;
y = 80;
},
{
segmentType = line;
smooth = 0;
x = 500;
y = 0;
},
{
segmentType = line;
smooth = 0;
x = 60;
y = 0;
},
{
segmentType = line;
smooth = 0;
x = 140;
y = 80;
},
{
segmentType = line;
smooth = 0;
x = 140;
y = 720;
}
);
},
{
points = (
{
segmentType = line;
smooth = 0;
x = 300;
y = 760;
},
{
segmentType = line;
smooth = 0;
x = 260;
y = 720;
},
{
segmentType = line;
smooth = 0;
x = 260;
y = 440;
},
{
segmentType = line;
smooth = 0;
x = 340;
y = 440;
},
{
segmentType = line;
smooth = 0;
x = 500;
y = 480;
},
{
segmentType = line;
smooth = 0;
x = 540;
y = 600;
},
{
segmentType = line;
smooth = 0;
x = 500;
y = 720;
},
{
segmentType = line;
smooth = 0;
x = 420;
y = 760;
}
);
},
{
points = (
{
segmentType = line;
smooth = 0;
x = 260;
y = 400;
},
{
segmentType = line;
smooth = 0;
x = 260;
y = 80;
},
{
segmentType = line;
smooth = 0;
x = 300;
y = 40;
},
{
segmentType = line;
smooth = 0;
x = 420;
y = 40;
},
{
segmentType = line;
smooth = 0;
x = 540;
y = 120;
},
{
segmentType = line;
smooth = 0;
x = 580;
y = 240;
},
{
segmentType = line;
smooth = 0;
x = 500;
y = 360;
},
{
segmentType = line;
smooth = 0;
x = 340;
y = 400;
}
);
}
);
lib = {
};
name = B;
unicodes = (
);
width = 800;
};
};
com.typemytype.robofont.mark = (
0.001,
0.822,
0.283,
1
);
};
width = 800;
},
{
layerId = "C256A14B-F4BB-4E0C-9412-298CC44D4DAA";
shapes = (
{
closed = 1;
nodes = (
(400,0,l),
(600,80,l),
(720,240,l),
(680,400,l),
(560,440,l),
(640,480,l),
(760,600,l),
(720,760,l),
(520,800,l),
(200,800,l),
(280,720,l),
(80,80,l),
(0,0,l)
);
},
{
closed = 1;
nodes = (
(200,80,l),
(400,720,l),
(440,760,l),
(520,760,l),
(600,720,l),
(600,600,l),
(520,480,l),
(400,440,l),
(320,440,l),
(320,400,l),
(440,400,l),
(520,360,l),
(560,240,l),
(480,120,l),
(320,40,l),
(240,40,l)
);
}
);
userData = {
com.typemytype.robofont.mark = (
0.001,
0.822,
0.283,
1
);
};
width = 760;
},
{
layerId = master01;
shapes = (
{
closed = 1;
nodes = (
(480,0,l),
(640,80,l),
(720,240,l),
(640,400,l),
(520,440,l),
(600,480,l),
(680,600,l),
(600,760,l),
(400,800,l),
(40,800,l),
(120,720,l),
(120,80,l),
(40,0,l)
);
},
{
closed = 1;
nodes = (
(240,80,l),
(240,720,l),
(280,760,l),
(400,760,l),
(480,720,l),
(520,600,l),
(480,480,l),
(320,440,l),
(240,440,l),
(240,400,l),
(320,400,l),
(480,360,l),
(560,240,l),
(520,120,l),
(400,40,l),
(280,40,l)
);
}
);
width = 760;
}
);
unicode = 66;
},
{
glyphname = BITCOIN;
lastChange = "2021-04-23 17:45:17 +0000";
layers = (
{
layerId = "EBA0A543-5703-488C-9449-531557917997";
shapes = (
{
closed = 1;
nodes = (
(400,240,l),
(400,280,l),
(0,280,l),
(0,240,l)
);
},
{
ref = B;
}
);
userData = {
com.typemytype.robofont.layerData = {
regular = {
anchors = (
);
components = (
{
baseGlyph = B;
transformation = (
1,
0,
0,
1,
0,
0
);
},
{
baseGlyph = endash;
transformation = (
1,
0,
0,
1,
-60,
-80
);
}
);
contours = (
);
lib = {
};
name = BITCOIN;
unicodes = (
);
width = 760;
};
};
com.typemytype.robofont.mark = (
0.001,
0.822,
0.283,
1
);
};
width = 760;
},
{
layerId = "C256A14B-F4BB-4E0C-9412-298CC44D4DAA";
shapes = (
{
closed = 1;
nodes = (
(340,200,l),
(340,240,l),
(20,240,l),
(20,200,l)
);
},
{
ref = B;
}
);
userData = {
com.typemytype.robofont.mark = (
0.001,
0.822,
0.283,
1
);
};
width = 760;
},
{
layerId = master01;
shapes = (
{
closed = 1;
nodes = (
(340,200,l),
(340,240,l),
(20,240,l),
(20,200,l)
);
},
{
ref = B;
}
);
width = 760;
}
);
unicode = 579;
},
{
glyphname = C;
lastChange = "2021-04-23 17:56:16 +0000";
layers = (
{
anchors = (
{
name = bottom;
pos = (480,0);
},
{
name = top;
pos = (480,840);
}
);
layerId = "EBA0A543-5703-488C-9449-531557917997";
shapes = (
{
closed = 1;
nodes = (
(560,0,l),
(720,80,l),
(800,200,l),
(720,240,l),
(640,120,l),
(520,80,l),
(440,80,l),
(360,120,l),
(280,240,l),
(280,560,l),
(360,680,l),
(440,720,l),
(520,720,l),
(600,680,l),
(600,480,l),
(720,480,l),
(800,600,l),
(720,720,l),
(560,800,l),
(360,800,l),
(200,720,l),
(80,600,l),
(40,400,l),
(80,200,l),
(200,80,l),
(360,0,l)
);
}
);
userData = {
com.typemytype.robofont.layerData = {
background = {
anchors = (
{
name = top;
x = 440;
y = 840;
},
{
name = bottom;
x = 440;
y = 0;
}
);
components = (
);
contours = (
{
points = (
{
segmentType = line;
smooth = 0;
x = 480;
y = 80;
},
{
segmentType = line;
smooth = 0;
x = 440;
y = 80;
},
{
segmentType = line;
smooth = 0;
x = 360;
y = 120;
},
{
segmentType = line;
smooth = 0;
x = 280;
y = 240;
},
{
segmentType = line;
smooth = 0;
x = 280;
y = 400;
},
{
segmentType = line;
smooth = 0;
x = 280;
y = 560;
},
{
segmentType = line;
smooth = 0;
x = 360;
y = 680;
},
{
segmentType = line;
smooth = 0;
x = 440;
y = 720;
},
{
segmentType = line;
smooth = 0;
x = 480;
y = 720;
},
{
segmentType = line;
smooth = 0;
x = 560;
y = 680;
},
{
segmentType = line;
smooth = 0;
x = 640;
y = 560;
},
{
segmentType = line;
smooth = 0;
x = 640;
y = 400;
},
{
segmentType = line;
smooth = 0;
x = 640;
y = 240;
},
{
segmentType = line;
smooth = 0;
x = 560;
y = 120;
}
);
},
{
points = (
{
segmentType = line;
smooth = 0;
x = 360;
y = 0;
},
{
segmentType = line;
smooth = 0;
x = 560;
y = 0;
},
{
segmentType = line;
smooth = 0;
x = 720;
y = 80;
},
{
segmentType = line;
smooth = 0;
x = 840;
y = 200;
},
{
segmentType = line;
smooth = 0;
x = 880;
y = 400;
},
{
segmentType = line;
smooth = 0;
x = 840;
y = 600;
},
{
segmentType = line;
smooth = 0;
x = 720;
y = 720;
},
{
segmentType = line;
smooth = 0;
x = 560;
y = 800;
},
{
segmentType = line;
smooth = 0;
x = 360;
y = 800;
},
{
segmentType = line;
smooth = 0;
x = 200;
y = 720;
},
{
segmentType = line;
smooth = 0;
x = 80;
y = 600;
},
{
segmentType = line;
smooth = 0;
x = 40;
y = 400;
},
{
segmentType = line;
smooth = 0;
x = 80;
y = 200;
},
{
segmentType = line;
smooth = 0;
x = 200;
y = 80;
}
);
}
);
lib = {
com.typemytype.robofont.layerData = {
background = {
anchors = (
);
components = (
);
contours = (
);
lib = {
};
name = O;
unicodes = (
);
width = 920;
};
regular = {
anchors = (
);
components = (
);
contours = (
{
points = (
{
segmentType = line;
smooth = 0;
x = 720;
y = 80;
},
{
segmentType = line;
smooth = 0;
x = 560;
y = 0;
},
{
segmentType = line;
smooth = 0;
x = 320;
y = 0;
},
{
segmentType = line;
smooth = 0;
x = 160;
y = 80;
},
{
segmentType = line;
smooth = 0;
x = 80;
y = 200;
},
{
segmentType = line;
smooth = 0;
x = 40;
y = 400;
},
{
segmentType = line;
smooth = 0;
x = 80;
y = 600;
},
{
segmentType = line;
smooth = 0;
x = 160;
y = 720;
},
{
segmentType = line;
smooth = 0;
x = 320;
y = 800;
},
{
segmentType = line;
smooth = 0;
x = 560;
y = 800;
},
{
segmentType = line;
smooth = 0;
x = 720;
y = 720;
},
{
segmentType = line;
smooth = 0;
x = 800;
y = 600;
},
{
segmentType = line;
smooth = 0;
x = 840;
y = 400;
},
{
segmentType = line;
smooth = 0;
x = 800;
y = 200;
}
);
},
{
points = (
{
segmentType = line;
smooth = 0;
x = 680;
y = 560;
},
{
segmentType = line;
smooth = 0;
x = 600;
y = 680;
},
{
segmentType = line;
smooth = 0;
x = 480;
y = 760;
},
{
segmentType = line;
smooth = 0;
x = 400;
y = 760;
},
{
segmentType = line;
smooth = 0;
x = 280;
y = 680;
},
{
segmentType = line;
smooth = 0;
x = 200;
y = 560;
},
{
segmentType = line;
smooth = 0;
x = 200;
y = 240;
},
{
segmentType = line;
smooth = 0;
x = 280;
y = 120;
},
{
segmentType = line;
smooth = 0;
x = 400;
y = 40;
},
{
segmentType = line;
smooth = 0;
x = 480;
y = 40;
},
{
segmentType = line;
smooth = 0;
x = 600;
y = 120;
},
{
segmentType = line;
smooth = 0;
x = 680;
y = 240;
}
);
}
);
lib = {
};
name = O;
unicodes = (
);
width = 920;
};
};
};
name = C;
unicodes = (
);
width = 800;
};
regular = {
anchors = (
);
components = (
);
contours = (
{
points = (
{
segmentType = line;
smooth = 0;
x = 240;
y = 240;
},
{
segmentType = line;
smooth = 0;
x = 320;
y = 120;
},
{
segmentType = line;
smooth = 0;
x = 480;
y = 40;
},
{
segmentType = line;
smooth = 0;
x = 600;
y = 80;
},
{
segmentType = line;
smooth = 0;
x = 680;
y = 160;
},
{
segmentType = line;
smooth = 0;
x = 720;
y = 240;
},
{
segmentType = line;
smooth = 0;
x = 760;
y = 200;
},
{
segmentType = line;
smooth = 0;
x = 680;
y = 80;
},
{
segmentType = line;
smooth = 0;
x = 560;
y = 0;
},
{
segmentType = line;
smooth = 0;
x = 360;
y = 0;
},
{
segmentType = line;
smooth = 0;
x = 200;
y = 80;
},
{
segmentType = line;
smooth = 0;
x = 120;
y = 200;
},
{
segmentType = line;
smooth = 0;
x = 80;
y = 400;
},
{
segmentType = line;
smooth = 0;
x = 120;
y = 600;
},
{
segmentType = line;
smooth = 0;
x = 200;
y = 720;
},
{
segmentType = line;
smooth = 0;
x = 360;
y = 800;
},
{
segmentType = line;
smooth = 0;
x = 560;
y = 800;
},
{
segmentType = line;
smooth = 0;
x = 720;
y = 720;
},
{
segmentType = line;
smooth = 0;
x = 760;
y = 640;
},
{
segmentType = line;
smooth = 0;
x = 680;
y = 560;
},
{
segmentType = line;
smooth = 0;
x = 600;
y = 560;
},
{
segmentType = line;
smooth = 0;
x = 600;
y = 680;
},
{
segmentType = line;
smooth = 0;
x = 520;
y = 760;
},
{
segmentType = line;
smooth = 0;
x = 440;
y = 760;
},
{
segmentType = line;
smooth = 0;
x = 320;
y = 680;
},
{
segmentType = line;
smooth = 0;
x = 240;
y = 560;
}
);
}
);
lib = {
};
name = C;
unicodes = (
);
width = 800;
};
};
com.typemytype.robofont.mark = (
0.001,
0.822,
0.283,
1
);
};
width = 800;
},
{
anchors = (
{
name = bottom;
pos = (360,0);
},
{
name = top;
pos = (360,880);
}
);
layerId = "C256A14B-F4BB-4E0C-9412-298CC44D4DAA";
shapes = (
{
closed = 1;
nodes = (
(440,0,l),
(560,80,l),
(680,200,l),
(640,240,l),
(520,120,l),
(400,40,l),
(320,40,l),
(240,80,l),
(200,240,l),
(200,360,l),
(280,600,l),
(480,760,l),
(560,760,l),
(640,680,l),
(640,560,l),
(720,560,l),
(800,640,l),
(760,720,l),
(560,800,l),
(440,800,l),
(280,720,l),
(160,600,l),
(80,480,l),
(40,280,l),
(120,80,l),
(280,0,l)
);
}
);
userData = {
com.typemytype.robofont.layerData = {
backgroud = {
anchors = (
);
components = (
);
contours = (
{
points = (
{
segmentType = line;
smooth = 0;
x = 600;
y = 80;
},
{
segmentType = line;
smooth = 0;
x = 440;
y = 0;
},
{
segmentType = line;
smooth = 0;
x = 320;
y = 0;
},
{
segmentType = line;
smooth = 0;
x = 120;
y = 80;
},
{
segmentType = line;
smooth = 0;
x = 40;
y = 280;
},
{
segmentType = line;
smooth = 0;
x = 80;
y = 480;
},
{
segmentType = line;
smooth = 0;
x = 160;
y = 600;
},
{
segmentType = line;
smooth = 0;
x = 280;
y = 720;
},
{
segmentType = line;
smooth = 0;
x = 440;
y = 800;
},
{
segmentType = line;
smooth = 0;
x = 560;
y = 800;
},
{
segmentType = line;
smooth = 0;
x = 760;
y = 720;
},
{
segmentType = line;
smooth = 0;
x = 840;
y = 520;
},
{
segmentType = line;
smooth = 0;
x = 800;
y = 320;
},
{
segmentType = line;
smooth = 0;
x = 720;
y = 200;
}
);
},
{
points = (
{
segmentType = line;
smooth = 0;
x = 680;
y = 560;
},
{
segmentType = line;
smooth = 0;
x = 640;
y = 720;
},
{
segmentType = line;
smooth = 0;
x = 560;
y = 760;
},
{
segmentType = line;
smooth = 0;
x = 480;
y = 760;
},
{
segmentType = line;
smooth = 0;
x = 280;
y = 600;
},
{
segmentType = line;
smooth = 0;
x = 200;
y = 360;
},
{
segmentType = line;
smooth = 0;
x = 200;
y = 240;
},
{
segmentType = line;
smooth = 0;
x = 240;
y = 80;
},
{
segmentType = line;
smooth = 0;
x = 320;
y = 40;
},
{
segmentType = line;
smooth = 0;
x = 400;
y = 40;
},
{
segmentType = line;
smooth = 0;
x = 480;
y = 80;
},
{
segmentType = line;
smooth = 0;
x = 600;
y = 200;
},
{
segmentType = line;
smooth = 0;
x = 680;
y = 440;
}
);
}
);
lib = {
com.typemytype.robofont.layerData = {
backgroud = {
anchors = (
);
components = (
);
contours = (
{
points = (
{
segmentType = line;
smooth = 0;
x = 280;
y = 720;
},
{
segmentType = line;
smooth = 0;
x = 440;
y = 800;
},
{
segmentType = line;
smooth = 0;
x = 560;
y = 800;
},
{
segmentType = line;
smooth = 0;
x = 720;
y = 720;
},
{
segmentType = line;
smooth = 0;
x = 800;
y = 600;
},
{
segmentType = line;
smooth = 0;
x = 840;
y = 400;
},
{
segmentType = line;
smooth = 0;
x = 800;
y = 200;
},
{
segmentType = line;
smooth = 0;
x = 720;
y = 80;
},
{
segmentType = line;
smooth = 0;
x = 560;
y = 0;
},
{
segmentType = line;
smooth = 0;
x = 320;
y = 0;
},
{
segmentType = line;
smooth = 0;
x = 120;
y = 80;
},
{
segmentType = line;
smooth = 0;
x = 40;
y = 280;
},
{
segmentType = line;
smooth = 0;
x = 80;
y = 480;
},
{
segmentType = line;
smooth = 0;
x = 160;
y = 600;
}
);
},
{
points = (
{
segmentType = line;
smooth = 0;
x = 160;
y = 240;
},
{
segmentType = line;
smooth = 0;
x = 240;
y = 80;
},
{
segmentType = line;
smooth = 0;
x = 320;
y = 40;
},
{
segmentType = line;
smooth = 0;
x = 480;
y = 40;
},
{
segmentType = line;
smooth = 0;
x = 600;
y = 120;
},
{
segmentType = line;
smooth = 0;
x = 680;
y = 240;
},
{
segmentType = line;
smooth = 0;
x = 680;
y = 560;
},
{
segmentType = line;
smooth = 0;
x = 600;
y = 680;
},
{
segmentType = line;
smooth = 0;
x = 480;
y = 760;
},
{
segmentType = line;
smooth = 0;
x = 400;
y = 720;
},
{
segmentType = line;
smooth = 0;
x = 280;
y = 600;
},
{
segmentType = line;
smooth = 0;
x = 160;
y = 320;
}
);
}
);
lib = {
com.typemytype.robofont.layerData = {
backgroud = {
anchors = (
);
components = (
);
contours = (
);
lib = {
};
name = D;
unicodes = (
);
width = 840;
};
};
};
name = O;
unicodes = (
);
width = 800;
};
};
};
name = C;
unicodes = (
);
width = 720;
};
};
com.typemytype.robofont.mark = (
0.001,
0.822,
0.283,
1
);
};
width = 720;
},
{
anchors = (
{
name = bottom;
pos = (420,0);
},
{
name = top;
pos = (420,840);
}
);
layerId = master01;
shapes = (
{
closed = 1;
nodes = (
(520,0,l),
(640,80,l),
(720,200,l),
(680,240,l),
(640,160,l),
(560,80,l),
(440,40,l),
(280,120,l),
(200,240,l),
(200,560,l),
(280,680,l),
(400,760,l),
(480,760,l),
(560,680,l),
(560,560,l),
(640,560,l),
(720,640,l),
(680,720,l),
(520,800,l),
(320,800,l),
(160,720,l),
(80,600,l),
(40,400,l),
(80,200,l),
(160,80,l),
(320,0,l)
);
}
);
width = 760;
}
);
unicode = 67;
},
{
glyphname = D;
lastChange = "2021-04-23 17:59:36 +0000";
layers = (
{
anchors = (
{
name = top;
pos = (480,840);
}
);
layerId = "EBA0A543-5703-488C-9449-531557917997";
shapes = (
{
closed = 1;
nodes = (
(520,0,l),
(680,40,l),
(840,200,l),
(880,400,l),
(840,600,l),
(680,760,l),
(480,800,l),
(40,800,l),
(120,720,l),
(120,80,l),
(40,0,l)
);
},
{
closed = 1;
nodes = (
(320,120,l),
(320,680,l),
(360,720,l),
(480,720,l),
(560,680,l),
(600,640,l),
(640,560,l),
(640,240,l),
(600,160,l),
(560,120,l),
(480,80,l),
(360,80,l)
);
}
);
userData = {
com.typemytype.robofont.layerData = {
regular = {
anchors = (
);
components = (
);
contours = (
{
points = (
{
segmentType = line;
smooth = 0;
x = 87;
y = 800;
},
{
segmentType = line;
smooth = 0;
x = 447;
y = 800;
},
{
segmentType = line;
smooth = 0;
x = 647;
y = 720;
},
{
segmentType = line;
smooth = 0;
x = 767;
y = 600;
},
{
segmentType = line;
smooth = 0;
x = 807;
y = 400;
},
{
segmentType = line;
smooth = 0;
x = 767;
y = 200;
},
{
segmentType = line;
smooth = 0;
x = 687;
y = 80;
},
{
segmentType = line;
smooth = 0;
x = 527;
y = 0;
},
{
segmentType = line;
smooth = 0;
x = 87;
y = 0;
},
{
segmentType = line;
smooth = 0;
x = 167;
y = 80;
},
{
segmentType = line;
smooth = 0;
x = 167;
y = 720;
}
);
},
{
points = (
{
segmentType = line;
smooth = 0;
x = 647;
y = 560;
},
{
segmentType = line;
smooth = 0;
x = 607;
y = 640;
},
{
segmentType = line;
smooth = 0;
x = 527;
y = 720;
},
{
segmentType = line;
smooth = 0;
x = 447;
y = 760;
},
{
segmentType = line;
smooth = 0;
x = 327;
y = 760;
},
{
segmentType = line;
smooth = 0;
x = 287;
y = 720;
},
{
segmentType = line;
smooth = 0;
x = 287;
y = 80;
},
{
segmentType = line;
smooth = 0;
x = 327;
y = 40;
},
{
segmentType = line;
smooth = 0;
x = 487;
y = 40;
},
{
segmentType = line;
smooth = 0;
x = 567;
y = 80;
},
{
segmentType = line;
smooth = 0;
x = 647;
y = 200;
}
);
}
);
lib = {
};
name = D;
unicodes = (
);
width = 920;
};
};
com.typemytype.robofont.mark = (
0.001,
0.822,
0.283,
1
);
};
width = 920;
},
{
anchors = (
{
name = top;
pos = (440,840);
}
);
layerId = "C256A14B-F4BB-4E0C-9412-298CC44D4DAA";
shapes = (
{
closed = 1;
nodes = (
(440,0,l),
(600,80,l),
(720,200,l),
(800,320,l),
(840,520,l),
(760,720,l),
(560,800,l),
(200,800,l),
(280,720,l),
(80,80,l),
(-40,0,l)
);
},
{
closed = 1;
nodes = (
(200,80,l),
(400,720,l),
(440,760,l),
(560,760,l),
(640,720,l),
(680,560,l),
(680,440,l),
(600,200,l),
(520,120,l),
(480,80,l),
(400,40,l),
(240,40,l)
);
}
);
userData = {
com.typemytype.robofont.mark = (
0.001,
0.822,
0.283,
1
);
};
width = 840;
},
{
anchors = (
{
name = top;
pos = (400,840);
}
);
layerId = master01;
shapes = (
{
closed = 1;
nodes = (
(480,0,l),
(640,80,l),
(720,200,l),
(760,400,l),
(720,600,l),
(600,720,l),
(400,800,l),
(40,800,l),
(120,720,l),
(120,80,l),
(40,0,l)
);
},
{
closed = 1;
nodes = (
(240,80,l),
(240,720,l),
(280,760,l),
(400,760,l),
(480,720,l),
(560,640,l),
(600,560,l),
(600,200,l),
(550,126,l),
(520,80,l),
(440,40,l),
(280,40,l)
);
}
);
width = 800;
}
);
unicode = 68;
},
{
glyphname = E;
lastChange = "2021-04-23 18:03:00 +0000";
layers = (
{
anchors = (
{
name = bottom;
pos = (400,0);
},
{
name = right;
pos = (720,0);
},
{
name = top;
pos = (360,840);
}
);
layerId = "EBA0A543-5703-488C-9449-531557917997";
shapes = (
{
closed = 1;
nodes = (
(720,280,l),
(680,280,l),
(560,80,l),
(360,80,l),
(320,120,l),
(320,320,l),
(360,360,l),
(480,360,l),
(600,240,l),
(600,560,l),
(480,440,l),
(360,440,l),
(320,480,l),
(320,680,l),
(360,720,l),
(520,720,l),
(640,560,l),
(680,560,l),
(640,840,l),
(480,800,l),
(40,800,l),
(120,720,l),
(120,80,l),
(40,0,l),
(600,0,l),
(680,-40,l)
);
}
);
userData = {
com.typemytype.robofont.layerData = {
regular = {
anchors = (
);
components = (
);
contours = (
{
points = (
{
segmentType = line;
smooth = 0;
x = 680;
y = 240;
},
{
segmentType = line;
smooth = 0;
x = 640;
y = -40;
},
{
segmentType = line;
smooth = 0;
x = 560;
y = 0;
},
{
segmentType = line;
smooth = 0;
x = 40;
y = 0;
},
{
segmentType = line;
smooth = 0;
x = 120;
y = 80;
},
{
segmentType = line;
smooth = 0;
x = 120;
y = 720;
},
{
segmentType = line;
smooth = 0;
x = 40;
y = 800;
},
{
segmentType = line;
smooth = 0;
x = 440;
y = 800;
},
{
segmentType = line;
smooth = 0;
x = 600;
y = 840;
},
{
segmentType = line;
smooth = 0;
x = 640;
y = 600;
},
{
segmentType = line;
smooth = 0;
x = 600;
y = 600;
},
{
segmentType = line;
smooth = 0;
x = 480;
y = 760;
},
{
segmentType = line;
smooth = 0;
x = 280;
y = 760;
},
{
segmentType = line;
smooth = 0;
x = 240;
y = 720;
},
{
segmentType = line;
smooth = 0;
x = 240;
y = 480;
},
{
segmentType = line;
smooth = 0;
x = 280;
y = 440;
},
{
segmentType = line;
smooth = 0;
x = 440;
y = 440;
},
{
segmentType = line;
smooth = 0;
x = 520;
y = 520;
},
{
segmentType = line;
smooth = 0;
x = 520;
y = 320;
},
{
segmentType = line;
smooth = 0;
x = 440;
y = 400;
},
{
segmentType = line;
smooth = 0;
x = 280;
y = 400;
},
{
segmentType = line;
smooth = 0;
x = 240;
y = 360;
},
{
segmentType = line;
smooth = 0;
x = 240;
y = 80;
},
{
segmentType = line;
smooth = 0;
x = 280;
y = 40;
},
{
segmentType = line;
smooth = 0;
x = 520;
y = 40;
},
{
segmentType = line;
smooth = 0;
x = 640;
y = 240;
}
);
}
);
lib = {
};
name = E;
unicodes = (
);
width = 760;
};
};
com.typemytype.robofont.mark = (
0.001,
0.822,
0.283,
1
);
};
width = 760;
},
{
anchors = (
{
name = bottom;
pos = (320,0);
},
{
name = right;
pos = (640,0);
},
{
name = top;
pos = (520,800);
}
);
layerId = "C256A14B-F4BB-4E0C-9412-298CC44D4DAA";
shapes = (
{
closed = 1;
nodes = (
(640,240,l),
(600,240,l),
(480,40,l),
(240,40,l),
(200,80,l),
(280,360,l),
(320,400,l),
(480,400,l),
(560,320,l),
(560,520,l),
(480,440,l),
(320,440,l),
(320,480,l),
(400,720,l),
(440,760,l),
(640,760,l),
(760,600,l),
(800,600,l),
(760,840,l),
(600,800,l),
(200,800,l),
(280,720,l),
(80,80,l),
(-40,0,l),
(520,0,l),
(600,-40,l)
);
}
);
userData = {
com.typemytype.robofont.layerData = {
backgroud = {
anchors = (
);
components = (
);
contours = (
{
points = (
{
segmentType = line;
smooth = 0;
x = 200;
y = 80;
},
{
segmentType = line;
smooth = 0;
x = 280;
y = 0;
},
{
segmentType = line;
smooth = 0;
x = 0;
y = 0;
},
{
segmentType = line;
smooth = 0;
x = 80;
y = 80;
},
{
segmentType = line;
smooth = 0;
x = 240;
y = 720;
},
{
segmentType = line;
smooth = 0;
x = 160;
y = 800;
},
{
segmentType = line;
smooth = 0;
x = 440;
y = 800;
},
{
segmentType = line;
smooth = 0;
x = 360;
y = 720;
}
);
}
);
lib = {
com.typemytype.robofont.layerData = {
backgroud = {
anchors = (
);
components = (
);
contours = (
);
lib = {
};
name = I;
unicodes = (
);
width = 360;
};
};
};
name = E;
unicodes = (
);
width = 720;
};
};
com.typemytype.robofont.mark = (
0.001,
0.822,
0.283,
1
);
};
width = 720;
},
{
anchors = (
{
name = bottom;
pos = (360,0);
},
{
name = right;
pos = (680,0);
},
{
name = top;
pos = (320,840);
}
);
layerId = master01;
shapes = (
{
closed = 1;
nodes = (
(680,240,l),
(640,240,l),
(520,40,l),
(280,40,l),
(240,80,l),
(240,360,l),
(280,400,l),
(440,400,l),
(520,320,l),
(520,520,l),
(440,440,l),
(280,440,l),
(240,480,l),
(240,720,l),
(280,760,l),
(480,760,l),
(600,600,l),
(640,600,l),
(600,840,l),
(440,800,l),
(40,800,l),
(120,720,l),
(120,80,l),
(40,0,l),
(560,0,l),
(640,-40,l)
);
}
);
width = 720;
}
);
unicode = 69;
},
{
glyphname = F;
lastChange = "2021-04-23 18:04:02 +0000";
layers = (
{
layerId = "EBA0A543-5703-488C-9449-531557917997";
shapes = (
{
closed = 1;
nodes = (
(400,0,l),
(320,80,l),
(320,320,l),
(360,360,l),
(480,360,l),
(600,240,l),
(600,560,l),
(480,440,l),
(360,440,l),
(320,480,l),
(320,680,l),
(360,720,l),
(520,720,l),
(640,560,l),
(680,560,l),
(640,840,l),
(480,800,l),
(40,800,l),
(120,720,l),
(120,80,l),
(40,0,l)
);
}
);
userData = {
com.typemytype.robofont.layerData = {
regular = {
anchors = (
);
components = (
);
contours = (
{
points = (
{
segmentType = line;
smooth = 0;
x = 80;
y = 0;
},
{
segmentType = line;
smooth = 0;
x = 160;
y = 80;
},
{
segmentType = line;
smooth = 0;
x = 160;
y = 720;
},
{
segmentType = line;
smooth = 0;
x = 80;
y = 800;
},
{
segmentType = line;
smooth = 0;
x = 480;
y = 800;
},
{
segmentType = line;
smooth = 0;
x = 640;
y = 840;
},
{
segmentType = line;
smooth = 0;
x = 680;
y = 600;
},
{
segmentType = line;
smooth = 0;
x = 640;
y = 600;
},
{
segmentType = line;
smooth = 0;
x = 520;
y = 760;
},
{
segmentType = line;
smooth = 0;
x = 320;
y = 760;
},
{
segmentType = line;
smooth = 0;
x = 280;
y = 720;
},
{
segmentType = line;
smooth = 0;
x = 280;
y = 480;
},
{
segmentType = line;
smooth = 0;
x = 320;
y = 440;
},
{
segmentType = line;
smooth = 0;
x = 480;
y = 440;
},
{
segmentType = line;
smooth = 0;
x = 560;
y = 520;
},
{
segmentType = line;
smooth = 0;
x = 560;
y = 320;
},
{
segmentType = line;
smooth = 0;
x = 480;
y = 400;
},
{
segmentType = line;
smooth = 0;
x = 320;
y = 400;
},
{
segmentType = line;
smooth = 0;
x = 280;
y = 360;
},
{
segmentType = line;
smooth = 0;
x = 280;
y = 80;
},
{
segmentType = line;
smooth = 0;
x = 360;
y = 0;
}
);
}
);
lib = {
};
name = F;
unicodes = (
);
width = 680;
};
};
com.typemytype.robofont.mark = (
0.001,
0.822,
0.283,
1
);
};
width = 680;
},
{
layerId = "C256A14B-F4BB-4E0C-9412-298CC44D4DAA";
shapes = (
{
closed = 1;
nodes = (
(280,0,l),
(200,80,l),
(280,360,l),
(320,400,l),
(480,400,l),
(560,320,l),
(560,520,l),
(480,440,l),
(320,440,l),
(320,480,l),
(400,720,l),
(440,760,l),
(640,760,l),
(760,600,l),
(800,600,l),
(760,840,l),
(600,800,l),
(200,800,l),
(280,720,l),
(80,80,l),
(-40,0,l)
);
}
);
userData = {
com.typemytype.robofont.mark = (
0.001,
0.822,
0.283,
1
);
};
width = 640;
},
{
layerId = master01;
shapes = (
{
closed = 1;
nodes = (
(320,0,l),
(240,80,l),
(240,360,l),
(280,400,l),
(440,400,l),
(520,320,l),
(520,520,l),
(440,440,l),
(280,440,l),
(240,480,l),
(240,720,l),
(280,760,l),
(480,760,l),
(600,600,l),
(640,600,l),
(600,840,l),
(440,800,l),
(40,800,l),
(120,720,l),
(120,80,l),
(40,0,l)
);
}
);
width = 680;
}
);
unicode = 70;
},
{
glyphname = G;
lastChange = "2021-04-23 18:11:58 +0000";
layers = (
{
anchors = (
{
name = bottom;
pos = (480,0);
},
{
name = top;
pos = (480,840);
}
);
layerId = "EBA0A543-5703-488C-9449-531557917997";
shapes = (
{
closed = 1;
nodes = (
(560,0,l),
(720,80,l),
(800,200,l),
(800,280,l),
(880,360,l),
(520,360,l),
(600,280,l),
(600,157,l),
(600,120,l),
(520,80,l),
(440,80,l),
(360,120,l),
(280,240,l),
(280,560,l),
(360,680,l),
(440,720,l),
(520,720,l),
(600,680,l),
(600,480,l),
(720,480,l),
(800,600,l),
(720,720,l),
(560,800,l),
(360,800,l),
(200,720,l),
(80,600,l),
(40,400,l),
(80,200,l),
(200,80,l),
(360,0,l)
);
}
);
userData = {
com.typemytype.robofont.layerData = {
background = {
anchors = (
{
name = top;
x = 480;
y = 840;
},
{
name = bottom;
x = 480;
y = 0;
}
);
components = (
);
contours = (
{
points = (
{
segmentType = line;
smooth = 0;
x = 720;
y = 80;
},
{
segmentType = line;
smooth = 0;
x = 800;
y = 200;
},
{
segmentType = line;
smooth = 0;
x = 720;
y = 240;
},
{
segmentType = line;
smooth = 0;
x = 640;
y = 120;
},
{
segmentType = line;
smooth = 0;
x = 520;
y = 80;
},
{
segmentType = line;
smooth = 0;
x = 440;
y = 80;
},
{
segmentType = line;
smooth = 0;
x = 360;
y = 120;
},
{
segmentType = line;
smooth = 0;
x = 280;
y = 240;
},
{
segmentType = line;
smooth = 0;
x = 280;
y = 560;
},
{
segmentType = line;
smooth = 0;
x = 360;
y = 680;
},
{
segmentType = line;
smooth = 0;
x = 440;
y = 720;
},
{
segmentType = line;
smooth = 0;
x = 520;
y = 720;
},
{
segmentType = line;
smooth = 0;
x = 600;
y = 680;
},
{
segmentType = line;
smooth = 0;
x = 600;
y = 480;
},
{
segmentType = line;
smooth = 0;
x = 720;
y = 480;
},
{
segmentType = line;
smooth = 0;
x = 800;
y = 600;
},
{
segmentType = line;
smooth = 0;
x = 720;
y = 720;
},
{
segmentType = line;
smooth = 0;
x = 560;
y = 800;
},
{
segmentType = line;
smooth = 0;
x = 360;
y = 800;
},
{
segmentType = line;
smooth = 0;
x = 200;
y = 720;
},
{
segmentType = line;
smooth = 0;
x = 80;
y = 600;
},
{
segmentType = line;
smooth = 0;
x = 40;
y = 400;
},
{
segmentType = line;
smooth = 0;
x = 80;
y = 200;
},
{
segmentType = line;
smooth = 0;
x = 200;
y = 80;
},
{
segmentType = line;
smooth = 0;
x = 360;
y = 0;
},
{
segmentType = line;
smooth = 0;
x = 560;
y = 0;
}
);
}
);
lib = {
com.typemytype.robofont.layerData = {
background = {
anchors = (
{
name = top;
x = 400;
y = 840;
},
{
name = bottom;
x = 400;
y = 0;
}
);
components = (
);
contours = (
{
points = (
{
segmentType = line;
smooth = 0;
x = 440;
y = 80;
},
{
segmentType = line;
smooth = 0;
x = 400;
y = 80;
},
{
segmentType = line;
smooth = 0;
x = 320;
y = 120;
},
{
segmentType = line;
smooth = 0;
x = 240;
y = 240;
},
{
segmentType = line;
smooth = 0;
x = 240;
y = 400;
},
{
segmentType = line;
smooth = 0;
x = 240;
y = 560;
},
{
segmentType = line;
smooth = 0;
x = 320;
y = 680;
},
{
segmentType = line;
smooth = 0;
x = 400;
y = 720;
},
{
segmentType = line;
smooth = 0;
x = 440;
y = 720;
},
{
segmentType = line;
smooth = 0;
x = 520;
y = 680;
},
{
segmentType = line;
smooth = 0;
x = 600;
y = 560;
},
{
segmentType = line;
smooth = 0;
x = 600;
y = 400;
},
{
segmentType = line;
smooth = 0;
x = 600;
y = 240;
},
{
segmentType = line;
smooth = 0;
x = 520;
y = 120;
}
);
},
{
points = (
{
segmentType = line;
smooth = 0;
x = 320;
y = 0;
},
{
segmentType = line;
smooth = 0;
x = 520;
y = 0;
},
{
segmentType = line;
smooth = 0;
x = 680;
y = 80;
},
{
segmentType = line;
smooth = 0;
x = 800;
y = 200;
},
{
segmentType = line;
smooth = 0;
x = 840;
y = 400;
},
{
segmentType = line;
smooth = 0;
x = 800;
y = 600;
},
{
segmentType = line;
smooth = 0;
x = 680;
y = 720;
},
{
segmentType = line;
smooth = 0;
x = 520;
y = 800;
},
{
segmentType = line;
smooth = 0;
x = 320;
y = 800;
},
{
segmentType = line;
smooth = 0;
x = 160;
y = 720;
},
{
segmentType = line;
smooth = 0;
x = 40;
y = 600;
},
{
segmentType = line;
smooth = 0;
x = 0;
y = 400;
},
{
segmentType = line;
smooth = 0;
x = 40;
y = 200;
},
{
segmentType = line;
smooth = 0;
x = 160;
y = 80;
}
);
}
);
lib = {
com.typemytype.robofont.layerData = {
background = {
anchors = (
);
components = (
);
contours = (
);
lib = {
};
name = O;
unicodes = (
);
width = 920;
};
regular = {
anchors = (
);
components = (
);
contours = (
{
points = (
{
segmentType = line;
smooth = 0;
x = 720;
y = 80;
},
{
segmentType = line;
smooth = 0;
x = 560;
y = 0;
},
{
segmentType = line;
smooth = 0;
x = 320;
y = 0;
},
{
segmentType = line;
smooth = 0;
x = 160;
y = 80;
},
{
segmentType = line;
smooth = 0;
x = 80;
y = 200;
},
{
segmentType = line;
smooth = 0;
x = 40;
y = 400;
},
{
segmentType = line;
smooth = 0;
x = 80;
y = 600;
},
{
segmentType = line;
smooth = 0;
x = 160;
y = 720;
},
{
segmentType = line;
smooth = 0;
x = 320;
y = 800;
},
{
segmentType = line;
smooth = 0;
x = 560;
y = 800;
},
{
segmentType = line;
smooth = 0;
x = 720;
y = 720;
},
{
segmentType = line;
smooth = 0;
x = 800;
y = 600;
},
{
segmentType = line;
smooth = 0;
x = 840;
y = 400;
},
{
segmentType = line;
smooth = 0;
x = 800;
y = 200;
}
);
},
{
points = (
{
segmentType = line;
smooth = 0;
x = 680;
y = 560;
},
{
segmentType = line;
smooth = 0;
x = 600;
y = 680;
},
{
segmentType = line;
smooth = 0;
x = 480;
y = 760;
},
{
segmentType = line;
smooth = 0;
x = 400;
y = 760;
},
{
segmentType = line;
smooth = 0;
x = 280;
y = 680;
},
{
segmentType = line;
smooth = 0;
x = 200;
y = 560;
},
{
segmentType = line;
smooth = 0;
x = 200;
y = 240;
},
{
segmentType = line;
smooth = 0;
x = 280;
y = 120;
},
{
segmentType = line;
smooth = 0;
x = 400;
y = 40;
},
{
segmentType = line;
smooth = 0;
x = 480;
y = 40;
},
{
segmentType = line;
smooth = 0;
x = 600;
y = 120;
},
{
segmentType = line;
smooth = 0;
x = 680;
y = 240;
}
);
}
);
lib = {
};
name = O;
unicodes = (
);
width = 920;
};
};
};
name = C;
unicodes = (
);
width = 800;
};
regular = {
anchors = (
);
components = (
);
contours = (
{
points = (
{
segmentType = line;
smooth = 0;
x = 200;
y = 240;
},
{
segmentType = line;
smooth = 0;
x = 280;
y = 120;
},
{
segmentType = line;
smooth = 0;
x = 440;
y = 40;
},
{
segmentType = line;
smooth = 0;
x = 560;
y = 80;
},
{
segmentType = line;
smooth = 0;
x = 640;
y = 160;
},
{
segmentType = line;
smooth = 0;
x = 680;
y = 240;
},
{
segmentType = line;
smooth = 0;
x = 720;
y = 200;
},
{
segmentType = line;
smooth = 0;
x = 640;
y = 80;
},
{
segmentType = line;
smooth = 0;
x = 520;
y = 0;
},
{
segmentType = line;
smooth = 0;
x = 320;
y = 0;
},
{
segmentType = line;
smooth = 0;
x = 160;
y = 80;
},
{
segmentType = line;
smooth = 0;
x = 80;
y = 200;
},
{
segmentType = line;
smooth = 0;
x = 40;
y = 400;
},
{
segmentType = line;
smooth = 0;
x = 80;
y = 600;
},
{
segmentType = line;
smooth = 0;
x = 160;
y = 720;
},
{
segmentType = line;
smooth = 0;
x = 320;
y = 800;
},
{
segmentType = line;
smooth = 0;
x = 520;
y = 800;
},
{
segmentType = line;
smooth = 0;
x = 680;
y = 720;
},
{
segmentType = line;
smooth = 0;
x = 720;
y = 640;
},
{
segmentType = line;
smooth = 0;
x = 640;
y = 560;
},
{
segmentType = line;
smooth = 0;
x = 560;
y = 560;
},
{
segmentType = line;
smooth = 0;
x = 560;
y = 680;
},
{
segmentType = line;
smooth = 0;
x = 480;
y = 760;
},
{
segmentType = line;
smooth = 0;
x = 400;
y = 760;
},
{
segmentType = line;
smooth = 0;
x = 280;
y = 680;
},
{
segmentType = line;
smooth = 0;
x = 200;
y = 560;
}
);
}
);
lib = {
};
name = C;
unicodes = (
);
width = 800;
};
};
};
name = G;
unicodes = (
);
width = 880;
};
regular = {
anchors = (
);
components = (
);
contours = (
{
points = (
{
segmentType = line;
smooth = 0;
x = 280;
y = 240;
},
{
segmentType = line;
smooth = 0;
x = 360;
y = 120;
},
{
segmentType = line;
smooth = 0;
x = 520;
y = 40;
},
{
segmentType = line;
smooth = 0;
x = 640;
y = 80;
},
{
segmentType = line;
smooth = 0;
x = 680;
y = 120;
},
{
segmentType = line;
smooth = 0;
x = 680;
y = 280;
},
{
segmentType = line;
smooth = 0;
x = 600;
y = 360;
},
{
segmentType = line;
smooth = 0;
x = 880;
y = 360;
},
{
segmentType = line;
smooth = 0;
x = 800;
y = 280;
},
{
segmentType = line;
smooth = 0;
x = 800;
y = 80;
},
{
segmentType = line;
smooth = 0;
x = 720;
y = 40;
},
{
segmentType = line;
smooth = 0;
x = 600;
y = 0;
},
{
segmentType = line;
smooth = 0;
x = 400;
y = 0;
},
{
segmentType = line;
smooth = 0;
x = 240;
y = 80;
},
{
segmentType = line;
smooth = 0;
x = 160;
y = 200;
},
{
segmentType = line;
smooth = 0;
x = 120;
y = 400;
},
{
segmentType = line;
smooth = 0;
x = 160;
y = 600;
},
{
segmentType = line;
smooth = 0;
x = 240;
y = 720;
},
{
segmentType = line;
smooth = 0;
x = 400;
y = 800;
},
{
segmentType = line;
smooth = 0;
x = 600;
y = 800;
},
{
segmentType = line;
smooth = 0;
x = 760;
y = 720;
},
{
segmentType = line;
smooth = 0;
x = 800;
y = 640;
},
{
segmentType = line;
smooth = 0;
x = 720;
y = 560;
},
{
segmentType = line;
smooth = 0;
x = 640;
y = 560;
},
{
segmentType = line;
smooth = 0;
x = 640;
y = 680;
},
{
segmentType = line;
smooth = 0;
x = 560;
y = 760;
},
{
segmentType = line;
smooth = 0;
x = 480;
y = 760;
},
{
segmentType = line;
smooth = 0;
x = 360;
y = 680;
},
{
segmentType = line;
smooth = 0;
x = 280;
y = 560;
}
);
}
);
lib = {
};
name = G;
unicodes = (
);
width = 880;
};
};
com.typemytype.robofont.mark = (
0.001,
0.822,
0.283,
1
);
};
width = 880;
},
{
anchors = (
{
name = bottom;
pos = (360,0);
},
{
name = top;
pos = (360,880);
}
);
layerId = "C256A14B-F4BB-4E0C-9412-298CC44D4DAA";
shapes = (
{
closed = 1;
nodes = (
(440,0,l),
(520,40,l),
(600,120,l),
(680,240,l),
(760,320,l),
(520,320,l),
(560,240,l),
(520,120,l),
(480,80,l),
(400,40,l),
(360,40,l),
(240,120,l),
(200,240,l),
(200,360,l),
(280,600,l),
(480,760,l),
(560,760,l),
(640,680,l),
(640,560,l),
(720,560,l),
(800,640,l),
(760,720,l),
(560,800,l),
(440,800,l),
(280,720,l),
(160,600,l),
(80,480,l),
(40,280,l),
(120,80,l),
(280,0,l)
);
}
);
userData = {
com.typemytype.robofont.layerData = {
backgroud = {
anchors = (
);
components = (
);
contours = (
{
points = (
{
segmentType = line;
smooth = 0;
x = 200;
y = 240;
},
{
segmentType = line;
smooth = 0;
x = 240;
y = 120;
},
{
segmentType = line;
smooth = 0;
x = 360;
y = 40;
},
{
segmentType = line;
smooth = 0;
x = 400;
y = 40;
},
{
segmentType = line;
smooth = 0;
x = 480;
y = 80;
},
{
segmentType = line;
smooth = 0;
x = 600;
y = 200;
},
{
segmentType = line;
smooth = 0;
x = 640;
y = 160;
},
{
segmentType = line;
smooth = 0;
x = 520;
y = 40;
},
{
segmentType = line;
smooth = 0;
x = 440;
y = 0;
},
{
segmentType = line;
smooth = 0;
x = 280;
y = 0;
},
{
segmentType = line;
smooth = 0;
x = 120;
y = 80;
},
{
segmentType = line;
smooth = 0;
x = 40;
y = 280;
},
{
segmentType = line;
smooth = 0;
x = 80;
y = 480;
},
{
segmentType = line;
smooth = 0;
x = 160;
y = 600;
},
{
segmentType = line;
smooth = 0;
x = 280;
y = 720;
},
{
segmentType = line;
smooth = 0;
x = 400;
y = 800;
},
{
segmentType = line;
smooth = 0;
x = 560;
y = 800;
},
{
segmentType = line;
smooth = 0;
x = 760;
y = 720;
},
{
segmentType = line;
smooth = 0;
x = 800;
y = 640;
},
{
segmentType = line;
smooth = 0;
x = 720;
y = 560;
},
{
segmentType = line;
smooth = 0;
x = 640;
y = 560;
},
{
segmentType = line;
smooth = 0;
x = 640;
y = 680;
},
{
segmentType = line;
smooth = 0;
x = 560;
y = 760;
},
{
segmentType = line;
smooth = 0;
x = 480;
y = 760;
},
{
segmentType = line;
smooth = 0;
x = 280;
y = 600;
},
{
segmentType = line;
smooth = 0;
x = 200;
y = 360;
}
);
}
);
lib = {
com.typemytype.robofont.layerData = {
backgroud = {
anchors = (
);
components = (
);
contours = (
{
points = (
{
segmentType = line;
smooth = 0;
x = 600;
y = 80;
},
{
segmentType = line;
smooth = 0;
x = 440;
y = 0;
},
{
segmentType = line;
smooth = 0;
x = 320;
y = 0;
},
{
segmentType = line;
smooth = 0;
x = 120;
y = 80;
},
{
segmentType = line;
smooth = 0;
x = 40;
y = 280;
},
{
segmentType = line;
smooth = 0;
x = 80;
y = 480;
},
{
segmentType = line;
smooth = 0;
x = 160;
y = 600;
},
{
segmentType = line;
smooth = 0;
x = 280;
y = 720;
},
{
segmentType = line;
smooth = 0;
x = 440;
y = 800;
},
{
segmentType = line;
smooth = 0;
x = 560;
y = 800;
},
{
segmentType = line;
smooth = 0;
x = 760;
y = 720;
},
{
segmentType = line;
smooth = 0;
x = 840;
y = 520;
},
{
segmentType = line;
smooth = 0;
x = 800;
y = 320;
},
{
segmentType = line;
smooth = 0;
x = 720;
y = 200;
}
);
},
{
points = (
{
segmentType = line;
smooth = 0;
x = 680;
y = 560;
},
{
segmentType = line;
smooth = 0;
x = 640;
y = 720;
},
{
segmentType = line;
smooth = 0;
x = 560;
y = 760;
},
{
segmentType = line;
smooth = 0;
x = 480;
y = 760;
},
{
segmentType = line;
smooth = 0;
x = 280;
y = 600;
},
{
segmentType = line;
smooth = 0;
x = 200;
y = 360;
},
{
segmentType = line;
smooth = 0;
x = 200;
y = 240;
},
{
segmentType = line;
smooth = 0;
x = 240;
y = 80;
},
{
segmentType = line;
smooth = 0;
x = 320;
y = 40;
},
{
segmentType = line;
smooth = 0;
x = 400;
y = 40;
},
{
segmentType = line;
smooth = 0;
x = 480;
y = 80;
},
{
segmentType = line;
smooth = 0;
x = 600;
y = 200;
},
{
segmentType = line;
smooth = 0;
x = 680;
y = 440;
}
);
}
);
lib = {
com.typemytype.robofont.layerData = {
backgroud = {
anchors = (
);
components = (
);
contours = (
{
points = (
{
segmentType = line;
smooth = 0;
x = 280;
y = 720;
},
{
segmentType = line;
smooth = 0;
x = 440;
y = 800;
},
{
segmentType = line;
smooth = 0;
x = 560;
y = 800;
},
{
segmentType = line;
smooth = 0;
x = 720;
y = 720;
},
{
segmentType = line;
smooth = 0;
x = 800;
y = 600;
},
{
segmentType = line;
smooth = 0;
x = 840;
y = 400;
},
{
segmentType = line;
smooth = 0;
x = 800;
y = 200;
},
{
segmentType = line;
smooth = 0;
x = 720;
y = 80;
},
{
segmentType = line;
smooth = 0;
x = 560;
y = 0;
},
{
segmentType = line;
smooth = 0;
x = 320;
y = 0;
},
{
segmentType = line;
smooth = 0;
x = 120;
y = 80;
},
{
segmentType = line;
smooth = 0;
x = 40;
y = 280;
},
{
segmentType = line;
smooth = 0;
x = 80;
y = 480;
},
{
segmentType = line;
smooth = 0;
x = 160;
y = 600;
}
);
},
{
points = (
{
segmentType = line;
smooth = 0;
x = 160;
y = 240;
},
{
segmentType = line;
smooth = 0;
x = 240;
y = 80;
},
{
segmentType = line;
smooth = 0;
x = 320;
y = 40;
},
{
segmentType = line;
smooth = 0;
x = 480;
y = 40;
},
{
segmentType = line;
smooth = 0;
x = 600;
y = 120;
},
{
segmentType = line;
smooth = 0;
x = 680;
y = 240;
},
{
segmentType = line;
smooth = 0;
x = 680;
y = 560;
},
{
segmentType = line;
smooth = 0;
x = 600;
y = 680;
},
{
segmentType = line;
smooth = 0;
x = 480;
y = 760;
},
{
segmentType = line;
smooth = 0;
x = 400;
y = 720;
},
{
segmentType = line;
smooth = 0;
x = 280;
y = 600;
},
{
segmentType = line;
smooth = 0;
x = 160;
y = 320;
}
);
}
);
lib = {
com.typemytype.robofont.layerData = {
backgroud = {
anchors = (
);
components = (
);
contours = (
);
lib = {
};
name = D;
unicodes = (
);
width = 840;
};
};
};
name = O;
unicodes = (
);
width = 800;
};
};
};
name = C;
unicodes = (
);
width = 720;
};
};
};
name = G;
unicodes = (
);
width = 760;
};
};
com.typemytype.robofont.mark = (
0.001,
0.822,
0.283,
1
);
};
width = 760;
},
{
anchors = (
{
name = bottom;
pos = (480,0);
},
{
name = top;
pos = (480,840);
}
);
layerId = master01;
shapes = (
{
closed = 1;
nodes = (
(560,0,l),
(680,40,l),
(760,80,l),
(760,280,l),
(840,360,l),
(560,360,l),
(640,280,l),
(640,161,l),
(640,120,l),
(600,80,l),
(480,40,l),
(320,120,l),
(240,240,l),
(240,560,l),
(320,680,l),
(440,760,l),
(520,760,l),
(600,680,l),
(600,560,l),
(680,560,l),
(760,640,l),
(720,720,l),
(560,800,l),
(360,800,l),
(200,720,l),
(120,600,l),
(80,400,l),
(120,200,l),
(200,80,l),
(360,0,l)
);
}
);
width = 880;
}
);
unicode = 71;
},
{
glyphname = H;
lastChange = "2021-04-23 18:14:53 +0000";
layers = (
{
anchors = (
{
name = top;
pos = (440,840);
}
);
layerId = "EBA0A543-5703-488C-9449-531557917997";
shapes = (
{
closed = 1;
nodes = (
(400,0,l),
(320,80,l),
(320,320,l),
(360,360,l),
(600,360,l),
(640,320,l),
(640,80,l),
(560,0,l),
(920,0,l),
(840,80,l),
(840,720,l),
(920,800,l),
(560,800,l),
(640,720,l),
(640,480,l),
(600,440,l),
(360,440,l),
(320,480,l),
(320,720,l),
(400,800,l),
(40,800,l),
(120,720,l),
(120,80,l),
(40,0,l)
);
}
);
userData = {
com.typemytype.robofont.layerData = {
regular = {
anchors = (
);
components = (
);
contours = (
{
points = (
{
segmentType = line;
smooth = 0;
x = 280;
y = 800;
},
{
segmentType = line;
smooth = 0;
x = 200;
y = 720;
},
{
segmentType = line;
smooth = 0;
x = 200;
y = 480;
},
{
segmentType = line;
smooth = 0;
x = 240;
y = 440;
},
{
segmentType = line;
smooth = 0;
x = 600;
y = 440;
},
{
segmentType = line;
smooth = 0;
x = 640;
y = 480;
},
{
segmentType = line;
smooth = 0;
x = 640;
y = 720;
},
{
segmentType = line;
smooth = 0;
x = 560;
y = 800;
},
{
segmentType = line;
smooth = 0;
x = 840;
y = 800;
},
{
segmentType = line;
smooth = 0;
x = 760;
y = 720;
},
{
segmentType = line;
smooth = 0;
x = 760;
y = 80;
},
{
segmentType = line;
smooth = 0;
x = 840;
y = 0;
},
{
segmentType = line;
smooth = 0;
x = 560;
y = 0;
},
{
segmentType = line;
smooth = 0;
x = 640;
y = 80;
},
{
segmentType = line;
smooth = 0;
x = 640;
y = 360;
},
{
segmentType = line;
smooth = 0;
x = 600;
y = 400;
},
{
segmentType = line;
smooth = 0;
x = 240;
y = 400;
},
{
segmentType = line;
smooth = 0;
x = 200;
y = 360;
},
{
segmentType = line;
smooth = 0;
x = 200;
y = 80;
},
{
segmentType = line;
smooth = 0;
x = 280;
y = 0;
},
{
segmentType = line;
smooth = 0;
x = 0;
y = 0;
},
{
segmentType = line;
smooth = 0;
x = 80;
y = 80;
},
{
segmentType = line;
smooth = 0;
x = 80;
y = 720;
},
{
segmentType = line;
smooth = 0;
x = 0;
y = 800;
}
);
}
);
lib = {
};
name = H;
unicodes = (
);
width = 960;
};
};
com.typemytype.robofont.mark = (
0.001,
0.822,
0.283,
1
);
};
width = 960;
},
{
anchors = (
{
name = top;
pos = (560,840);
}
);
layerId = "C256A14B-F4BB-4E0C-9412-298CC44D4DAA";
shapes = (
{
closed = 1;
nodes = (
(280,0,l),
(200,80,l),
(280,360,l),
(320,400,l),
(720,400,l),
(720,360,l),
(640,80,l),
(520,0,l),
(840,0,l),
(760,80,l),
(960,720,l),
(1080,800,l),
(760,800,l),
(840,720,l),
(760,480,l),
(720,440,l),
(320,440,l),
(320,480,l),
(400,720,l),
(520,800,l),
(200,800,l),
(280,720,l),
(80,80,l),
(-40,0,l)
);
}
);
userData = {
com.typemytype.robofont.mark = (
0.001,
0.822,
0.283,
1
);
};
width = 920;
},
{
anchors = (
{
name = top;
pos = (460,840);
}
);
layerId = master01;
shapes = (
{
closed = 1;
nodes = (
(320,0,l),
(240,80,l),
(240,360,l),
(280,400,l),
(640,400,l),
(680,360,l),
(680,80,l),
(600,0,l),
(880,0,l),
(800,80,l),
(800,720,l),
(880,800,l),
(600,800,l),
(680,720,l),
(680,480,l),
(640,440,l),
(280,440,l),
(240,480,l),
(240,720,l),
(320,800,l),
(40,800,l),
(120,720,l),
(120,80,l),
(40,0,l)
);
}
);
width = 920;
}
);
unicode = 72;
},
{
glyphname = I;
lastChange = "2021-04-23 18:17:57 +0000";
layers = (
{
anchors = (
{
name = bottom;
pos = (200,-30);
},
{
name = right;
pos = (200,0);
},
{
name = top;
pos = (200,840);
}
);
layerId = "EBA0A543-5703-488C-9449-531557917997";
shapes = (
{
closed = 1;
nodes = (
(400,0,l),
(320,80,l),
(320,720,l),
(400,800,l),
(40,800,l),
(120,720,l),
(120,80,l),
(40,0,l)
);
}
);
userData = {
com.typemytype.robofont.layerData = {
regular = {
anchors = (
);
components = (
);
contours = (
{
points = (
{
segmentType = line;
smooth = 0;
x = 240;
y = 80;
},
{
segmentType = line;
smooth = 0;
x = 320;
y = 0;
},
{
segmentType = line;
smooth = 0;
x = 40;
y = 0;
},
{
segmentType = line;
smooth = 0;
x = 120;
y = 80;
},
{
segmentType = line;
smooth = 0;
x = 120;
y = 720;
},
{
segmentType = line;
smooth = 0;
x = 40;
y = 800;
},
{
segmentType = line;
smooth = 0;
x = 320;
y = 800;
},
{
segmentType = line;
smooth = 0;
x = 240;
y = 720;
}
);
}
);
lib = {
};
name = I;
unicodes = (
);
width = 440;
};
};
com.typemytype.robofont.mark = (
0.001,
0.822,
0.283,
1
);
};
width = 440;
},
{
anchors = (
{
name = bottom;
pos = (80,-40);
},
{
name = right;
pos = (200,0);
},
{
name = top;
pos = (360,840);
}
);
layerId = "C256A14B-F4BB-4E0C-9412-298CC44D4DAA";
shapes = (
{
closed = 1;
nodes = (
(280,0,l),
(200,80,l),
(400,720,l),
(520,800,l),
(200,800,l),
(280,720,l),
(80,80,l),
(-40,0,l)
);
}
);
userData = {
com.typemytype.robofont.mark = (
0.001,
0.822,
0.283,
1
);
};
width = 400;
},
{
anchors = (
{
name = bottom;
pos = (160,-40);
},
{
name = right;
pos = (240,0);
},
{
name = top;
pos = (180,840);
}
);
layerId = master01;
shapes = (
{
closed = 1;
nodes = (
(320,0,l),
(240,80,l),
(240,720,l),
(320,800,l),
(40,800,l),
(120,720,l),
(120,80,l),
(40,0,l)
);
}
);
width = 360;
}
);
unicode = 73;
},
{
glyphname = Icircumflex;
lastChange = "2021-04-23 18:28:53 +0000";
layers = (
{
layerId = "EBA0A543-5703-488C-9449-531557917997";
shapes = (
{
ref = I;
},
{
pos = (-120,240);
ref = circumflex;
}
);
userData = {
com.typemytype.robofont.mark = (
0.374,
0.974,
0.983,
1
);
};
width = 440;
},
{
layerId = "C256A14B-F4BB-4E0C-9412-298CC44D4DAA";
shapes = (
{
ref = I;
},
{
pos = (40,280);
ref = circumflex;
}
);
userData = {
com.typemytype.robofont.mark = (
0.374,
0.974,
0.983,
1
);
};
width = 400;
},
{
layerId = master01;
shapes = (
{
closed = 1;
nodes = (
(80,920,l),
(160,960,l),
(199,960,l),
(280,920,l),
(320,920,l),
(200,1080,l),
(160,1080,l),
(40,920,l)
);
},
{
ref = I;
}
);
width = 360;
}
);
unicode = 206;
},
{
glyphname = J;
lastChange = "2021-04-23 18:26:48 +0000";
layers = (
{
anchors = (
{
name = top;
pos = (200,840);
}
);
layerId = "EBA0A543-5703-488C-9449-531557917997";
shapes = (
{
closed = 1;
nodes = (
(200,-40,l),
(320,120,l),
(320,720,l),
(400,800,l),
(40,800,l),
(120,720,l),
(120,120,l),
(80,40,l),
(-40,-80,l),
(0,-120,l)
);
}
);
userData = {
com.typemytype.robofont.layerData = {
regular = {
anchors = (
);
components = (
);
contours = (
{
points = (
{
segmentType = line;
smooth = 0;
x = 20;
y = -80;
},
{
segmentType = line;
smooth = 0;
x = 140;
y = 40;
},
{
segmentType = line;
smooth = 0;
x = 180;
y = 120;
},
{
segmentType = line;
smooth = 0;
x = 180;
y = 720;
},
{
segmentType = line;
smooth = 0;
x = 100;
y = 800;
},
{
segmentType = line;
smooth = 0;
x = 380;
y = 800;
},
{
segmentType = line;
smooth = 0;
x = 300;
y = 720;
},
{
segmentType = line;
smooth = 0;
x = 300;
y = 120;
},
{
segmentType = line;
smooth = 0;
x = 220;
y = 0;
},
{
segmentType = line;
smooth = 0;
x = 60;
y = -120;
}
);
}
);
lib = {
};
name = J;
unicodes = (
);
width = 400;
};
};
com.typemytype.robofont.mark = (
0.001,
0.822,
0.283,
1
);
};
width = 400;
},
{
anchors = (
{
name = top;
pos = (440,840);
}
);
layerId = "C256A14B-F4BB-4E0C-9412-298CC44D4DAA";
shapes = (
{
closed = 1;
nodes = (
(200,0,l),
(280,120,l),
(480,720,l),
(600,800,l),
(280,800,l),
(360,720,l),
(160,120,l),
(120,40,l),
(0,-80,l),
(40,-120,l)
);
}
);
userData = {
com.typemytype.robofont.mark = (
0.001,
0.822,
0.283,
1
);
};
width = 400;
},
{
anchors = (
{
name = top;
pos = (260,840);
}
);
layerId = master01;
shapes = (
{
closed = 1;
nodes = (
(240,0,l),
(320,120,l),
(320,720,l),
(400,800,l),
(120,800,l),
(200,720,l),
(200,120,l),
(160,40,l),
(40,-80,l),
(80,-120,l)
);
}
);
width = 440;
}
);
unicode = 74;
},
{
glyphname = K;
lastChange = "2021-04-23 18:32:12 +0000";
layers = (
{
anchors = (
{
name = bottom;
pos = (410,0);
},
{
name = top;
pos = (410,830);
}
);
layerId = "EBA0A543-5703-488C-9449-531557917997";
shapes = (
{
closed = 1;
nodes = (
(800,0,l),
(600,400,l),
(400,440,l),
(710,720,l),
(800,800,l),
(400,800,l),
(480,720,l),
(320,440,l),
(320,720,l),
(400,800,l),
(40,800,l),
(120,720,l),
(120,80,l),
(40,0,l),
(400,0,l),
(320,80,l),
(320,400,l),
(400,320,l),
(440,280,l),
(560,40,l),
(760,-40,l)
);
}
);
userData = {
com.typemytype.robofont.layerData = {
background = {
anchors = (
{
name = top;
x = 440;
y = 840;
},
{
name = bottom;
x = 440;
y = 0;
}
);
components = (
);
contours = (
{
points = (
{
segmentType = line;
smooth = 0;
x = 40;
y = 800;
},
{
segmentType = line;
smooth = 0;
x = 520;
y = 800;
},
{
segmentType = line;
smooth = 0;
x = 640;
y = 760;
},
{
segmentType = line;
smooth = 0;
x = 760;
y = 600;
},
{
segmentType = line;
smooth = 0;
x = 680;
y = 400;
},
{
segmentType = line;
smooth = 0;
x = 520;
y = 360;
},
{
segmentType = line;
smooth = 0;
x = 520;
y = 320;
},
{
segmentType = line;
smooth = 0;
x = 640;
y = 280;
},
{
segmentType = line;
smooth = 0;
x = 800;
y = 0;
},
{
segmentType = line;
smooth = 0;
x = 760;
y = -40;
},
{
segmentType = line;
smooth = 0;
x = 560;
y = 40;
},
{
segmentType = line;
smooth = 0;
x = 440;
y = 280;
},
{
segmentType = line;
smooth = 0;
x = 400;
y = 320;
},
{
segmentType = line;
smooth = 0;
x = 320;
y = 360;
},
{
segmentType = line;
smooth = 0;
x = 320;
y = 80;
},
{
segmentType = line;
smooth = 0;
x = 400;
y = 0;
},
{
segmentType = line;
smooth = 0;
x = 40;
y = 0;
},
{
segmentType = line;
smooth = 0;
x = 120;
y = 80;
},
{
segmentType = line;
smooth = 0;
x = 120;
y = 720;
}
);
},
{
points = (
{
segmentType = line;
smooth = 0;
x = 520;
y = 440;
},
{
segmentType = line;
smooth = 0;
x = 560;
y = 560;
},
{
segmentType = line;
smooth = 0;
x = 520;
y = 680;
},
{
segmentType = line;
smooth = 0;
x = 440;
y = 720;
},
{
segmentType = line;
smooth = 0;
x = 360;
y = 720;
},
{
segmentType = line;
smooth = 0;
x = 320;
y = 680;
},
{
segmentType = line;
smooth = 0;
x = 320;
y = 400;
},
{
segmentType = line;
smooth = 0;
x = 440;
y = 400;
}
);
}
);
lib = {
com.typemytype.robofont.layerData = {
background = {
anchors = (
);
components = (
);
contours = (
{
points = (
{
segmentType = line;
smooth = 1;
x = 320;
y = 360;
},
{
segmentType = line;
smooth = 0;
x = 320;
y = 80;
},
{
segmentType = line;
smooth = 0;
x = 400;
y = 0;
},
{
segmentType = line;
smooth = 0;
x = 40;
y = 0;
},
{
segmentType = line;
smooth = 0;
x = 120;
y = 80;
},
{
segmentType = line;
smooth = 0;
x = 120;
y = 720;
},
{
segmentType = line;
smooth = 0;
x = 40;
y = 800;
},
{
segmentType = line;
smooth = 0;
x = 520;
y = 800;
},
{
segmentType = line;
smooth = 0;
x = 640;
y = 760;
},
{
segmentType = line;
smooth = 0;
x = 760;
y = 600;
},
{
segmentType = line;
smooth = 0;
x = 680;
y = 400;
},
{
segmentType = line;
smooth = 0;
x = 480;
y = 320;
}
);
},
{
points = (
{
segmentType = line;
smooth = 0;
x = 360;
y = 720;
},
{
segmentType = line;
smooth = 0;
x = 320;
y = 680;
},
{
segmentType = line;
smooth = 0;
x = 320;
y = 400;
},
{
segmentType = line;
smooth = 0;
x = 440;
y = 400;
},
{
segmentType = line;
smooth = 0;
x = 520;
y = 440;
},
{
segmentType = line;
smooth = 0;
x = 560;
y = 560;
},
{
segmentType = line;
smooth = 0;
x = 520;
y = 680;
},
{
segmentType = line;
smooth = 0;
x = 440;
y = 720;
}
);
}
);
lib = {
};
name = R;
unicodes = (
);
width = 800;
};
regular = {
anchors = (
);
components = (
);
contours = (
{
points = (
{
segmentType = line;
smooth = 0;
x = 80;
y = 800;
},
{
segmentType = line;
smooth = 0;
x = 440;
y = 800;
},
{
segmentType = line;
smooth = 0;
x = 640;
y = 760;
},
{
segmentType = line;
smooth = 0;
x = 720;
y = 600;
},
{
segmentType = line;
smooth = 0;
x = 640;
y = 440;
},
{
segmentType = line;
smooth = 0;
x = 400;
y = 400;
},
{
segmentType = line;
smooth = 0;
x = 520;
y = 360;
},
{
segmentType = line;
smooth = 0;
x = 760;
y = 0;
},
{
segmentType = line;
smooth = 0;
x = 720;
y = -40;
},
{
segmentType = line;
smooth = 0;
x = 560;
y = 80;
},
{
segmentType = line;
smooth = 0;
x = 400;
y = 320;
},
{
segmentType = line;
smooth = 0;
x = 360;
y = 360;
},
{
segmentType = line;
smooth = 0;
x = 280;
y = 400;
},
{
segmentType = line;
smooth = 0;
x = 280;
y = 80;
},
{
segmentType = line;
smooth = 0;
x = 360;
y = 0;
},
{
segmentType = line;
smooth = 0;
x = 80;
y = 0;
},
{
segmentType = line;
smooth = 0;
x = 160;
y = 80;
},
{
segmentType = line;
smooth = 0;
x = 160;
y = 720;
}
);
},
{
points = (
{
segmentType = line;
smooth = 0;
x = 320;
y = 760;
},
{
segmentType = line;
smooth = 0;
x = 280;
y = 720;
},
{
segmentType = line;
smooth = 0;
x = 280;
y = 440;
},
{
segmentType = line;
smooth = 0;
x = 440;
y = 440;
},
{
segmentType = line;
smooth = 0;
x = 520;
y = 480;
},
{
segmentType = line;
smooth = 0;
x = 560;
y = 600;
},
{
segmentType = line;
smooth = 0;
x = 520;
y = 720;
},
{
segmentType = line;
smooth = 0;
x = 440;
y = 760;
}
);
}
);
lib = {
};
name = R;
unicodes = (
);
width = 800;
};
};
};
name = K;
unicodes = (
);
width = 800;
};
regular = {
anchors = (
);
components = (
);
contours = (
{
points = (
{
segmentType = line;
smooth = 0;
x = 760;
y = 0;
},
{
segmentType = line;
smooth = 0;
x = 720;
y = -40;
},
{
segmentType = line;
smooth = 0;
x = 560;
y = 80;
},
{
segmentType = line;
smooth = 0;
x = 400;
y = 320;
},
{
segmentType = line;
smooth = 0;
x = 320;
y = 360;
},
{
segmentType = line;
smooth = 0;
x = 280;
y = 320;
},
{
segmentType = line;
smooth = 0;
x = 280;
y = 80;
},
{
segmentType = line;
smooth = 0;
x = 360;
y = 0;
},
{
segmentType = line;
smooth = 0;
x = 80;
y = 0;
},
{
segmentType = line;
smooth = 0;
x = 160;
y = 80;
},
{
segmentType = line;
smooth = 0;
x = 160;
y = 720;
},
{
segmentType = line;
smooth = 0;
x = 80;
y = 800;
},
{
segmentType = line;
smooth = 0;
x = 360;
y = 800;
},
{
segmentType = line;
smooth = 0;
x = 280;
y = 720;
},
{
segmentType = line;
smooth = 0;
x = 280;
y = 400;
},
{
segmentType = line;
smooth = 0;
x = 560;
y = 720;
},
{
segmentType = line;
smooth = 0;
x = 480;
y = 800;
},
{
segmentType = line;
smooth = 0;
x = 720;
y = 800;
},
{
segmentType = line;
smooth = 0;
x = 640;
y = 720;
},
{
segmentType = line;
smooth = 0;
x = 360;
y = 400;
},
{
segmentType = line;
smooth = 0;
x = 520;
y = 360;
}
);
}
);
lib = {
};
name = K;
unicodes = (
);
width = 800;
};
};
com.typemytype.robofont.mark = (
0.001,
0.822,
0.283,
1
);
};
width = 800;
},
{
layerId = "C256A14B-F4BB-4E0C-9412-298CC44D4DAA";
shapes = (
{
closed = 1;
nodes = (
(680,0,l),
(560,320,l),
(400,440,l),
(773,720,l),
(880,800,l),
(600,800,l),
(680,720,l),
(320,440,l),
(320,400,l),
(440,280,l),
(520,80,l),
(640,-40,l)
);
},
{
closed = 1;
nodes = (
(280,0,l),
(200,80,l),
(400,720,l),
(480,800,l),
(200,800,l),
(280,720,l),
(80,80,l),
(-40,0,l)
);
}
);
userData = {
com.typemytype.robofont.layerData = {
backgroud = {
anchors = (
);
components = (
);
contours = (
{
points = (
{
segmentType = line;
smooth = 0;
x = 320;
y = 440;
},
{
segmentType = line;
smooth = 0;
x = 480;
y = 440;
},
{
segmentType = line;
smooth = 0;
x = 560;
y = 480;
},
{
segmentType = line;
smooth = 0;
x = 640;
y = 600;
},
{
segmentType = line;
smooth = 0;
x = 600;
y = 720;
},
{
segmentType = line;
smooth = 0;
x = 520;
y = 760;
},
{
segmentType = line;
smooth = 0;
x = 440;
y = 760;
},
{
segmentType = line;
smooth = 0;
x = 400;
y = 720;
},
{
segmentType = line;
smooth = 0;
x = 200;
y = 80;
},
{
segmentType = line;
smooth = 0;
x = 280;
y = 0;
},
{
segmentType = line;
smooth = 0;
x = -40;
y = 0;
},
{
segmentType = line;
smooth = 0;
x = 80;
y = 80;
},
{
segmentType = line;
smooth = 0;
x = 280;
y = 720;
},
{
segmentType = line;
smooth = 0;
x = 200;
y = 800;
},
{
segmentType = line;
smooth = 0;
x = 520;
y = 800;
},
{
segmentType = line;
smooth = 0;
x = 720;
y = 760;
},
{
segmentType = line;
smooth = 0;
x = 800;
y = 600;
},
{
segmentType = line;
smooth = 0;
x = 680;
y = 440;
},
{
segmentType = line;
smooth = 0;
x = 440;
y = 400;
},
{
segmentType = line;
smooth = 0;
x = 560;
y = 320;
},
{
segmentType = line;
smooth = 0;
x = 680;
y = 0;
},
{
segmentType = line;
smooth = 0;
x = 640;
y = -40;
},
{
segmentType = line;
smooth = 0;
x = 520;
y = 80;
},
{
segmentType = line;
smooth = 0;
x = 440;
y = 280;
},
{
segmentType = line;
smooth = 0;
x = 400;
y = 360;
},
{
segmentType = line;
smooth = 0;
x = 320;
y = 400;
}
);
}
);
lib = {
com.typemytype.robofont.layerData = {
backgroud = {
anchors = (
);
components = (
);
contours = (
{
points = (
{
segmentType = line;
smooth = 0;
x = 200;
y = 80;
},
{
segmentType = line;
smooth = 0;
x = 280;
y = 0;
},
{
segmentType = line;
smooth = 0;
x = 0;
y = 0;
},
{
segmentType = line;
smooth = 0;
x = 80;
y = 80;
},
{
segmentType = line;
smooth = 0;
x = 280;
y = 720;
},
{
segmentType = line;
smooth = 0;
x = 200;
y = 800;
},
{
segmentType = line;
smooth = 0;
x = 520;
y = 800;
},
{
segmentType = line;
smooth = 0;
x = 720;
y = 760;
},
{
segmentType = line;
smooth = 0;
x = 800;
y = 600;
},
{
segmentType = line;
smooth = 0;
x = 640;
y = 400;
},
{
segmentType = line;
smooth = 0;
x = 440;
y = 320;
},
{
segmentType = line;
smooth = 0;
x = 320;
y = 360;
},
{
segmentType = line;
smooth = 0;
x = 320;
y = 400;
},
{
segmentType = line;
smooth = 0;
x = 400;
y = 400;
},
{
segmentType = line;
smooth = 0;
x = 520;
y = 440;
},
{
segmentType = line;
smooth = 0;
x = 640;
y = 600;
},
{
segmentType = line;
smooth = 0;
x = 600;
y = 720;
},
{
segmentType = line;
smooth = 0;
x = 520;
y = 760;
},
{
segmentType = line;
smooth = 0;
x = 440;
y = 760;
},
{
segmentType = line;
smooth = 0;
x = 400;
y = 720;
}
);
}
);
lib = {
};
name = R;
unicodes = (
);
width = 720;
};
};
};
name = K;
unicodes = (
);
width = 760;
};
};
com.typemytype.robofont.mark = (
0.001,
0.822,
0.283,
1
);
};
width = 760;
},
{
anchors = (
{
name = bottom;
pos = (340,0);
},
{
name = top;
pos = (380,840);
}
);
layerId = master01;
shapes = (
{
closed = 1;
nodes = (
(720,0,l),
(480,360,l),
(320,400,l),
(600,720,l),
(680,800,l),
(440,800,l),
(520,720,l),
(240,400,l),
(240,720,l),
(320,800,l),
(40,800,l),
(120,720,l),
(120,80,l),
(40,0,l),
(320,0,l),
(240,80,l),
(240,320,l),
(280,360,l),
(360,320,l),
(520,80,l),
(680,-40,l)
);
}
);
width = 700;
}
);
unicode = 75;
},
{
glyphname = L;
lastChange = "2021-04-23 18:35:46 +0000";
layers = (
{
anchors = (
{
name = bottom;
pos = (360,0);
},
{
name = mid;
pos = (360,420);
},
{
name = right;
pos = (360,830);
},
{
name = top;
pos = (40,830);
}
);
layerId = "EBA0A543-5703-488C-9449-531557917997";
shapes = (
{
closed = 1;
nodes = (
(680,280,l),
(640,280,l),
(520,80,l),
(360,80,l),
(320,120,l),
(320,720,l),
(400,800,l),
(40,800,l),
(120,720,l),
(120,80,l),
(40,0,l),
(560,0,l),
(640,-40,l)
);
}
);
userData = {
com.typemytype.robofont.layerData = {
regular = {
anchors = (
);
components = (
);
contours = (
{
points = (
{
segmentType = line;
smooth = 0;
x = 520;
y = 0;
},
{
segmentType = line;
smooth = 0;
x = 40;
y = 0;
},
{
segmentType = line;
smooth = 0;
x = 120;
y = 80;
},
{
segmentType = line;
smooth = 0;
x = 120;
y = 720;
},
{
segmentType = line;
smooth = 0;
x = 40;
y = 800;
},
{
segmentType = line;
smooth = 0;
x = 320;
y = 800;
},
{
segmentType = line;
smooth = 0;
x = 240;
y = 720;
},
{
segmentType = line;
smooth = 0;
x = 240;
y = 80;
},
{
segmentType = line;
smooth = 0;
x = 280;
y = 40;
},
{
segmentType = line;
smooth = 0;
x = 480;
y = 40;
},
{
segmentType = line;
smooth = 0;
x = 600;
y = 240;
},
{
segmentType = line;
smooth = 0;
x = 640;
y = 240;
},
{
segmentType = line;
smooth = 0;
x = 600;
y = -40;
}
);
}
);
lib = {
};
name = L;
unicodes = (
);
width = 680;
};
};
com.typemytype.robofont.mark = (
0.001,
0.822,
0.283,
1
);
};
width = 680;
},
{
anchors = (
{
name = bottom;
pos = (240,0);
},
{
name = mid;
pos = (320,400);
},
{
name = right;
pos = (480,840);
},
{
name = top;
pos = (200,840);
}
);
layerId = "C256A14B-F4BB-4E0C-9412-298CC44D4DAA";
shapes = (
{
closed = 1;
nodes = (
(600,240,l),
(560,240,l),
(440,40,l),
(240,40,l),
(200,80,l),
(400,720,l),
(520,800,l),
(200,800,l),
(280,720,l),
(80,80,l),
(-40,0,l),
(480,0,l),
(560,-40,l)
);
}
);
userData = {
com.typemytype.robofont.mark = (
0.001,
0.822,
0.283,
1
);
};
width = 600;
},
{
anchors = (
{
name = bottom;
pos = (280,0);
},
{
name = mid;
pos = (280,400);
},
{
name = right;
pos = (280,840);
},
{
name = top;
pos = (40,840);
}
);
layerId = master01;
shapes = (
{
closed = 1;
nodes = (
(640,240,l),
(600,240,l),
(480,40,l),
(280,40,l),
(240,80,l),
(240,720,l),
(320,800,l),
(40,800,l),
(120,720,l),
(120,80,l),
(40,0,l),
(520,0,l),
(600,-40,l)
);
}
);
width = 680;
}
);
unicode = 76;
},
{
glyphname = M;
lastChange = "2021-04-23 18:37:32 +0000";
layers = (
{
layerId = "EBA0A543-5703-488C-9449-531557917997";
shapes = (
{
closed = 1;
nodes = (
(560,0,ls),
(760,600,l),
(760,80,l),
(680,0,l),
(1040,0,l),
(960,80,l),
(960,720,l),
(1040,800,l),
(760,800,l),
(560,200,l),
(560,240,l),
(360,800,l),
(40,800,l),
(120,720,l),
(120,80,l),
(40,0,l),
(320,0,l),
(240,80,l),
(200,640,l),
(440,-40,l)
);
}
);
userData = {
com.typemytype.robofont.layerData = {
regular = {
anchors = (
);
components = (
);
contours = (
{
points = (
{
segmentType = line;
smooth = 0;
x = 520;
y = 200;
},
{
segmentType = line;
smooth = 0;
x = 760;
y = 800;
},
{
segmentType = line;
smooth = 0;
x = 960;
y = 800;
},
{
segmentType = line;
smooth = 0;
x = 880;
y = 720;
},
{
segmentType = line;
smooth = 0;
x = 880;
y = 80;
},
{
segmentType = line;
smooth = 0;
x = 960;
y = 0;
},
{
segmentType = line;
smooth = 0;
x = 680;
y = 0;
},
{
segmentType = line;
smooth = 0;
x = 760;
y = 80;
},
{
segmentType = line;
smooth = 0;
x = 760;
y = 600;
},
{
segmentType = line;
smooth = 0;
x = 520;
y = 0;
},
{
segmentType = line;
smooth = 0;
x = 480;
y = -40;
},
{
segmentType = line;
smooth = 0;
x = 200;
y = 640;
},
{
segmentType = line;
smooth = 0;
x = 200;
y = 80;
},
{
segmentType = line;
smooth = 0;
x = 280;
y = 0;
},
{
segmentType = line;
smooth = 0;
x = 40;
y = 0;
},
{
segmentType = line;
smooth = 0;
x = 120;
y = 80;
},
{
segmentType = line;
smooth = 0;
x = 120;
y = 720;
},
{
segmentType = line;
smooth = 0;
x = 40;
y = 800;
},
{
segmentType = line;
smooth = 0;
x = 280;
y = 800;
}
);
}
);
lib = {
};
name = M;
unicodes = (
);
width = 1040;
};
};
com.typemytype.robofont.mark = (
0.001,
0.822,
0.283,
1
);
};
width = 1040;
},
{
layerId = "C256A14B-F4BB-4E0C-9412-298CC44D4DAA";
shapes = (
{
closed = 1;
nodes = (
(440,0,l),
(880,680,l),
(680,80,l),
(560,0,l),
(880,0,l),
(800,80,l),
(1000,720,l),
(1120,800,l),
(880,800,l),
(480,160,l),
(480,200,l),
(480,800,l),
(200,800,l),
(280,720,l),
(80,80,l),
(-40,0,l),
(240,0,l),
(160,80,l),
(360,760,l),
(360,-40,l)
);
}
);
userData = {
com.typemytype.robofont.mark = (
0.001,
0.822,
0.283,
1
);
};
width = 1000;
},
{
layerId = master01;
shapes = (
{
closed = 1;
nodes = (
(520,0,l),
(760,600,l),
(760,80,l),
(680,0,l),
(960,0,l),
(880,80,l),
(880,720,l),
(960,800,l),
(760,800,l),
(520,200,l),
(504,240,l),
(280,800,l),
(40,800,l),
(120,720,l),
(120,80,l),
(40,0,l),
(280,0,l),
(200,80,l),
(200,640,l),
(480,-40,l)
);
}
);
width = 1000;
}
);
unicode = 77;
},
{
glyphname = N;
lastChange = "2021-04-23 18:41:01 +0000";
layers = (
{
anchors = (
{
name = bottom;
pos = (440,0);
},
{
name = top;
pos = (440,840);
}
);
layerId = "EBA0A543-5703-488C-9449-531557917997";
shapes = (
{
closed = 1;
nodes = (
(320,0,l),
(240,80,l),
(200,600,l),
(560,0,l),
(760,0,l),
(760,720,l),
(840,800,l),
(560,800,l),
(640,720,l),
(680,200,l),
(320,800,l),
(40,800,l),
(120,720,l),
(120,80,l),
(40,0,l)
);
}
);
userData = {
com.typemytype.robofont.layerData = {
regular = {
anchors = (
);
components = (
);
contours = (
{
points = (
{
segmentType = line;
smooth = 0;
x = 720;
y = 40;
},
{
segmentType = line;
smooth = 0;
x = 640;
y = -40;
},
{
segmentType = line;
smooth = 0;
x = 200;
y = 680;
},
{
segmentType = line;
smooth = 0;
x = 200;
y = 80;
},
{
segmentType = line;
smooth = 0;
x = 280;
y = 0;
},
{
segmentType = line;
smooth = 0;
x = 40;
y = 0;
},
{
segmentType = line;
smooth = 0;
x = 120;
y = 80;
},
{
segmentType = line;
smooth = 0;
x = 120;
y = 720;
},
{
segmentType = line;
smooth = 0;
x = 40;
y = 800;
},
{
segmentType = line;
smooth = 0;
x = 280;
y = 800;
},
{
segmentType = line;
smooth = 0;
x = 640;
y = 200;
},
{
segmentType = line;
smooth = 0;
x = 640;
y = 720;
},
{
segmentType = line;
smooth = 0;
x = 560;
y = 800;
},
{
segmentType = line;
smooth = 0;
x = 800;
y = 800;
},
{
segmentType = line;
smooth = 0;
x = 720;
y = 720;
}
);
}
);
lib = {
};
name = N;
unicodes = (
);
width = 880;
};
};
com.typemytype.robofont.mark = (
0.001,
0.822,
0.283,
1
);
};
width = 880;
},
{
anchors = (
{
name = bottom;
pos = (400,0);
},
{
name = top;
pos = (600,800);
}
);
layerId = "C256A14B-F4BB-4E0C-9412-298CC44D4DAA";
shapes = (
{
closed = 1;
nodes = (
(240,0,l),
(160,80,l),
(360,760,l),
(560,-40,l),
(680,40,l),
(880,720,l),
(1000,800,l),
(720,800,l),
(800,720,l),
(640,120,l),
(480,800,l),
(200,800,l),
(280,720,l),
(80,80,l),
(-40,0,l)
);
}
);
userData = {
com.typemytype.robofont.mark = (
0.001,
0.822,
0.283,
1
);
};
width = 880;
},
{
anchors = (
{
name = bottom;
pos = (440,0);
},
{
name = top;
pos = (400,840);
}
);
layerId = master01;
shapes = (
{
closed = 1;
nodes = (
(280,0,l),
(200,80,l),
(200,680,l),
(640,-40,l),
(720,40,l),
(720,720,l),
(800,800,l),
(560,800,l),
(640,720,l),
(640,200,l),
(280,800,l),
(40,800,l),
(120,720,l),
(120,80,l),
(40,0,l)
);
}
);
width = 840;
}
);
unicode = 78;
},
{
glyphname = O;
lastChange = "2021-04-23 17:15:49 +0000";
layers = (
{
anchors = (
{
name = bottom;
pos = (440,0);
},
{
name = center;
pos = (460,400);
},
{
name = ogonek;
pos = (828,10);
},
{
name = top;
pos = (440,840);
},
{
name = topleft;
pos = (20,800);
},
{
name = topright;
pos = (900,800);
}
);
layerId = "EBA0A543-5703-488C-9449-531557917997";
shapes = (
{
closed = 1;
nodes = (
(560,0,l),
(720,80,l),
(840,200,l),
(880,400,l),
(840,600,l),
(720,720,l),
(560,800,l),
(360,800,l),
(200,720,l),
(80,600,l),
(40,400,l),
(80,200,l),
(200,80,l),
(360,0,l)
);
},
{
closed = 1;
nodes = (
(360,120,l),
(280,240,l),
(280,560,l),
(360,680,l),
(440,720,l),
(480,720,l),
(560,680,l),
(598,623,l),
(640,560,l),
(640,240,l),
(560,120,l),
(480,80,l),
(440,80,l)
);
}
);
userData = {
com.typemytype.robofont.layerData = {
regular = {
anchors = (
);
components = (
);
contours = (
{
points = (
{
segmentType = line;
smooth = 0;
x = 720;
y = 80;
},
{
segmentType = line;
smooth = 0;
x = 560;
y = 0;
},
{
segmentType = line;
smooth = 0;
x = 320;
y = 0;
},
{
segmentType = line;
smooth = 0;
x = 160;
y = 80;
},
{
segmentType = line;
smooth = 0;
x = 80;
y = 200;
},
{
segmentType = line;
smooth = 0;
x = 40;
y = 400;
},
{
segmentType = line;
smooth = 0;
x = 80;
y = 600;
},
{
segmentType = line;
smooth = 0;
x = 160;
y = 720;
},
{
segmentType = line;
smooth = 0;
x = 320;
y = 800;
},
{
segmentType = line;
smooth = 0;
x = 560;
y = 800;
},
{
segmentType = line;
smooth = 0;
x = 720;
y = 720;
},
{
segmentType = line;
smooth = 0;
x = 800;
y = 600;
},
{
segmentType = line;
smooth = 0;
x = 840;
y = 400;
},
{
segmentType = line;
smooth = 0;
x = 800;
y = 200;
}
);
},
{
points = (
{
segmentType = line;
smooth = 0;
x = 680;
y = 560;
},
{
segmentType = line;
smooth = 0;
x = 600;
y = 680;
},
{
segmentType = line;
smooth = 0;
x = 480;
y = 760;
},
{
segmentType = line;
smooth = 0;
x = 400;
y = 760;
},
{
segmentType = line;
smooth = 0;
x = 280;
y = 680;
},
{
segmentType = line;
smooth = 0;
x = 200;
y = 560;
},
{
segmentType = line;
smooth = 0;
x = 200;
y = 240;
},
{
segmentType = line;
smooth = 0;
x = 280;
y = 120;
},
{
segmentType = line;
smooth = 0;
x = 400;
y = 40;
},
{
segmentType = line;
smooth = 0;
x = 480;
y = 40;
},
{
segmentType = line;
smooth = 0;
x = 600;
y = 120;
},
{
segmentType = line;
smooth = 0;
x = 680;
y = 240;
}
);
}
);
lib = {
};
name = O;
unicodes = (
);
width = 920;
};
};
com.typemytype.robofont.mark = (
0.001,
0.822,
0.283,
1
);
};
width = 920;
},
{
anchors = (
{
name = bottom;
pos = (420,0);
},
{
name = center;
pos = (420,420);
},
{
name = ogonek;
pos = (756,10);
},
{
name = top;
pos = (590,800);
},
{
name = topleft;
pos = (20,840);
},
{
name = topright;
pos = (820,840);
}
);
layerId = "C256A14B-F4BB-4E0C-9412-298CC44D4DAA";
shapes = (
{
closed = 1;
nodes = (
(440,0,l),
(600,80,l),
(720,200,l),
(800,320,l),
(840,520,l),
(760,720,l),
(560,800,l),
(440,800,l),
(280,720,l),
(160,600,l),
(80,480,l),
(40,280,l),
(120,80,l),
(320,0,l)
);
},
{
closed = 1;
nodes = (
(240,80,l),
(200,240,l),
(200,360,l),
(280,600,l),
(480,760,l),
(560,760,l),
(640,720,l),
(680,560,l),
(680,440,l),
(600,200,l),
(480,80,l),
(400,40,l),
(320,40,l)
);
}
);
userData = {
com.typemytype.robofont.layerData = {
backgroud = {
anchors = (
);
components = (
);
contours = (
{
points = (
{
segmentType = line;
smooth = 0;
x = 280;
y = 720;
},
{
segmentType = line;
smooth = 0;
x = 440;
y = 800;
},
{
segmentType = line;
smooth = 0;
x = 560;
y = 800;
},
{
segmentType = line;
smooth = 0;
x = 720;
y = 720;
},
{
segmentType = line;
smooth = 0;
x = 800;
y = 600;
},
{
segmentType = line;
smooth = 0;
x = 840;
y = 400;
},
{
segmentType = line;
smooth = 0;
x = 800;
y = 200;
},
{
segmentType = line;
smooth = 0;
x = 720;
y = 80;
},
{
segmentType = line;
smooth = 0;
x = 560;
y = 0;
},
{
segmentType = line;
smooth = 0;
x = 320;
y = 0;
},
{
segmentType = line;
smooth = 0;
x = 120;
y = 80;
},
{
segmentType = line;
smooth = 0;
x = 40;
y = 280;
},
{
segmentType = line;
smooth = 0;
x = 80;
y = 480;
},
{
segmentType = line;
smooth = 0;
x = 160;
y = 600;
}
);
},
{
points = (
{
segmentType = line;
smooth = 0;
x = 160;
y = 240;
},
{
segmentType = line;
smooth = 0;
x = 240;
y = 80;
},
{
segmentType = line;
smooth = 0;
x = 320;
y = 40;
},
{
segmentType = line;
smooth = 0;
x = 480;
y = 40;
},
{
segmentType = line;
smooth = 0;
x = 600;
y = 120;
},
{
segmentType = line;
smooth = 0;
x = 680;
y = 240;
},
{
segmentType = line;
smooth = 0;
x = 680;
y = 560;
},
{
segmentType = line;
smooth = 0;
x = 600;
y = 680;
},
{
segmentType = line;
smooth = 0;
x = 480;
y = 760;
},
{
segmentType = line;
smooth = 0;
x = 400;
y = 720;
},
{
segmentType = line;
smooth = 0;
x = 280;
y = 600;
},
{
segmentType = line;
smooth = 0;
x = 160;
y = 320;
}
);
}
);
lib = {
com.typemytype.robofont.layerData = {
backgroud = {
anchors = (
);
components = (
);
contours = (
);
lib = {
};
name = D;
unicodes = (
);
width = 840;
};
};
};
name = O;
unicodes = (
);
width = 840;
};
};
com.typemytype.robofont.mark = (
0.001,
0.822,
0.283,
1
);
};
width = 840;
},
{
anchors = (
{
name = bottom;
pos = (440,0);
},
{
name = center;
pos = (440,420);
},
{
name = ogonek;
pos = (792,10);
},
{
name = top;
pos = (440,840);
},
{
name = topleft;
pos = (20,840);
},
{
name = topright;
pos = (860,840);
}
);
layerId = master01;
shapes = (
{
closed = 1;
nodes = (
(560,0,l),
(720,80,l),
(800,200,l),
(840,400,l),
(800,600,l),
(720,720,l),
(560,800,l),
(320,800,l),
(160,720,l),
(80,600,l),
(40,400,l),
(80,200,l),
(160,80,l),
(320,0,l)
);
},
{
closed = 1;
nodes = (
(280,120,l),
(200,240,l),
(200,560,l),
(280,680,l),
(400,760,l),
(480,760,l),
(600,680,l),
(642,617,l),
(680,560,l),
(680,240,l),
(600,120,l),
(480,40,l),
(400,40,l)
);
}
);
width = 880;
}
);
unicode = 79;
},
{
glyphname = Oslash;
lastChange = "2021-04-23 17:31:27 +0000";
layers = (
{
layerId = "EBA0A543-5703-488C-9449-531557917997";
width = 600;
},
{
layerId = "C256A14B-F4BB-4E0C-9412-298CC44D4DAA";
shapes = (
{
closed = 1;
nodes = (
(800,880,l),
(200,-80,l),
(160,-80,l),
(760,880,l)
);
},
{
pos = (40,0);
ref = O;
}
);
userData = {
com.typemytype.robofont.mark = (
0.374,
0.974,
0.983,
1
);
};
width = 960;
},
{
layerId = master01;
shapes = (
{
closed = 1;
nodes = (
(400,-80,l),
(600,880,l),
(560,880,l),
(360,-80,l)
);
},
{
pos = (40,0);
ref = O;
}
);
width = 960;
}
);
unicode = 216;
},
{
glyphname = OE;
lastChange = "2021-04-23 17:31:27 +0000";
layers = (
{
anchors = (
{
name = bottom;
pos = (760,0);
},
{
name = right;
pos = (1080,0);
},
{
name = top;
pos = (720,840);
}
);
layerId = "EBA0A543-5703-488C-9449-531557917997";
shapes = (
{
closed = 1;
nodes = (
(360,120,l),
(280,240,l),
(280,560,l),
(360,680,l),
(440,720,l),
(480,720,l),
(480,80,l),
(440,80,l)
);
},
{
closed = 1;
nodes = (
(1000,280,l),
(880,80,l),
(720,80,l),
(680,120,l),
(680,320,l),
(720,360,l),
(800,360,l),
(920,240,l),
(920,560,l),
(800,440,l),
(720,440,l),
(680,480,l),
(680,680,l),
(720,720,l),
(840,720,l),
(960,560,l),
(1000,560,l),
(960,840,l),
(800,800,l),
(360,800,l),
(200,720,l),
(80,600,l),
(40,400,l),
(80,200,l),
(200,80,l),
(360,0,l),
(920,0,l),
(1000,-40,l),
(1040,280,l)
);
}
);
userData = {
com.typemytype.robofont.layerData = {
regular = {
anchors = (
);
components = (
);
contours = (
{
points = (
{
segmentType = line;
smooth = 0;
x = 1040;
y = 240;
},
{
segmentType = line;
smooth = 0;
x = 1000;
y = -40;
},
{
segmentType = line;
smooth = 0;
x = 920;
y = 0;
},
{
segmentType = line;
smooth = 0;
x = 400;
y = 0;
},
{
segmentType = line;
smooth = 0;
x = 480;
y = 80;
},
{
segmentType = line;
smooth = 0;
x = 480;
y = 720;
},
{
segmentType = line;
smooth = 0;
x = 400;
y = 800;
},
{
segmentType = line;
smooth = 0;
x = 800;
y = 800;
},
{
segmentType = line;
smooth = 0;
x = 960;
y = 840;
},
{
segmentType = line;
smooth = 0;
x = 1000;
y = 600;
},
{
segmentType = line;
smooth = 0;
x = 960;
y = 600;
},
{
segmentType = line;
smooth = 0;
x = 840;
y = 760;
},
{
segmentType = line;
smooth = 0;
x = 640;
y = 760;
},
{
segmentType = line;
smooth = 0;
x = 600;
y = 720;
},
{
segmentType = line;
smooth = 0;
x = 600;
y = 480;
},
{
segmentType = line;
smooth = 0;
x = 640;
y = 440;
},
{
segmentType = line;
smooth = 0;
x = 800;
y = 440;
},
{
segmentType = line;
smooth = 0;
x = 880;
y = 520;
},
{
segmentType = line;
smooth = 0;
x = 880;
y = 320;
},
{
segmentType = line;
smooth = 0;
x = 800;
y = 400;
},
{
segmentType = line;
smooth = 0;
x = 640;
y = 400;
},
{
segmentType = line;
smooth = 0;
x = 600;
y = 360;
},
{
segmentType = line;
smooth = 0;
x = 600;
y = 80;
},
{
segmentType = line;
smooth = 0;
x = 640;
y = 40;
},
{
segmentType = line;
smooth = 0;
x = 880;
y = 40;
},
{
segmentType = line;
smooth = 0;
x = 1000;
y = 240;
}
);
}
);
lib = {
};
name = OE;
unicodes = (
);
width = 1080;
};
};
com.typemytype.robofont.mark = (
0.001,
0.822,
0.283,
1
);
};
width = 1080;
},
{
anchors = (
{
name = top;
pos = (840,800);
}
);
layerId = "C256A14B-F4BB-4E0C-9412-298CC44D4DAA";
shapes = (
{
closed = 1;
nodes = (
(1040,840,l),
(1080,600,l),
(1040,600,l),
(920,760,l),
(760,760,l),
(720,720,l),
(640,480,l),
(640,440,l),
(760,440,l),
(840,520,l),
(840,320,l),
(760,400,l),
(640,400,l),
(600,360,l),
(520,80,l),
(560,40,l),
(760,40,l),
(880,240,l),
(920,240,l),
(880,-40,l),
(800,0,l),
(360,0,l),
(120,80,l),
(40,280,l),
(80,480,l),
(160,600,l),
(280,720,l),
(440,800,l),
(880,800,l)
);
},
{
closed = 1;
nodes = (
(480,760,l),
(280,600,l),
(200,360,l),
(200,240,l),
(240,120,l),
(400,40,l),
(600,760,l)
);
}
);
userData = {
com.typemytype.robofont.layerData = {
backgroud = {
anchors = (
);
components = (
);
contours = (
{
points = (
{
segmentType = line;
smooth = 0;
x = 520;
y = 80;
},
{
segmentType = line;
smooth = 0;
x = 600;
y = 0;
},
{
segmentType = line;
smooth = 0;
x = 320;
y = 0;
},
{
segmentType = line;
smooth = 0;
x = 400;
y = 80;
},
{
segmentType = line;
smooth = 0;
x = 560;
y = 720;
},
{
segmentType = line;
smooth = 0;
x = 480;
y = 800;
},
{
segmentType = line;
smooth = 0;
x = 760;
y = 800;
},
{
segmentType = line;
smooth = 0;
x = 680;
y = 720;
}
);
}
);
lib = {
com.typemytype.robofont.layerData = {
backgroud = {
anchors = (
);
components = (
);
contours = (
);
lib = {
};
name = I;
unicodes = (
);
width = 360;
};
};
};
name = OE;
unicodes = (
);
width = 1000;
};
};
com.typemytype.robofont.mark = (
0.374,
0.974,
0.983,
1
);
};
width = 1000;
},
{
layerId = master01;
shapes = (
{
closed = 1;
nodes = (
(1080,240,l),
(1040,240,l),
(920,40,l),
(680,40,l),
(640,80,l),
(640,360,l),
(680,400,l),
(840,400,l),
(920,320,l),
(920,520,l),
(840,440,l),
(680,440,l),
(640,480,l),
(640,720,l),
(680,760,l),
(880,760,l),
(1000,600,l),
(1040,600,l),
(1000,840,l),
(840,800,l),
(360,800,l),
(200,720,l),
(120,600,l),
(80,400,l),
(120,200,l),
(200,80,l),
(360,0,l),
(960,0,l),
(1040,-40,l)
);
},
{
closed = 1;
nodes = (
(320,120,l),
(240,240,l),
(240,560,l),
(320,680,l),
(440,760,l),
(520,760,l),
(520,40,l),
(440,40,l)
);
}
);
width = 1120;
}
);
unicode = 338;
},
{
glyphname = P;
lastChange = "2021-04-23 18:42:05 +0000";
layers = (
{
layerId = "EBA0A543-5703-488C-9449-531557917997";
shapes = (
{
closed = 1;
nodes = (
(400,0,l),
(320,80,l),
(320,360,ls),
(480,320,l),
(680,400,l),
(760,600,l),
(640,760,l),
(520,800,l),
(40,800,l),
(120,720,l),
(120,80,l),
(40,0,l)
);
},
{
closed = 1;
nodes = (
(320,680,l),
(360,720,l),
(440,720,l),
(520,680,l),
(560,560,l),
(520,440,l),
(440,400,l),
(320,400,l)
);
}
);
userData = {
com.typemytype.robofont.layerData = {
regular = {
anchors = (
);
components = (
);
contours = (
{
points = (
{
segmentType = line;
smooth = 0;
x = 280;
y = 360;
},
{
segmentType = line;
smooth = 0;
x = 280;
y = 80;
},
{
segmentType = line;
smooth = 0;
x = 360;
y = 0;
},
{
segmentType = line;
smooth = 0;
x = 80;
y = 0;
},
{
segmentType = line;
smooth = 0;
x = 160;
y = 80;
},
{
segmentType = line;
smooth = 0;
x = 160;
y = 720;
},
{
segmentType = line;
smooth = 0;
x = 80;
y = 800;
},
{
segmentType = line;
smooth = 0;
x = 440;
y = 800;
},
{
segmentType = line;
smooth = 0;
x = 640;
y = 760;
},
{
segmentType = line;
smooth = 0;
x = 720;
y = 600;
},
{
segmentType = line;
smooth = 0;
x = 640;
y = 400;
},
{
segmentType = line;
smooth = 0;
x = 440;
y = 320;
}
);
},
{
points = (
{
segmentType = line;
smooth = 0;
x = 320;
y = 760;
},
{
segmentType = line;
smooth = 0;
x = 280;
y = 720;
},
{
segmentType = line;
smooth = 0;
x = 280;
y = 400;
},
{
segmentType = line;
smooth = 0;
x = 400;
y = 400;
},
{
segmentType = line;
smooth = 0;
x = 520;
y = 440;
},
{
segmentType = line;
smooth = 0;
x = 560;
y = 600;
},
{
segmentType = line;
smooth = 0;
x = 520;
y = 720;
},
{
segmentType = line;
smooth = 0;
x = 440;
y = 760;
}
);
}
);
lib = {
};
name = P;
unicodes = (
);
width = 760;
};
};
com.typemytype.robofont.mark = (
0.001,
0.822,
0.283,
1
);
};
width = 760;
},
{
layerId = "C256A14B-F4BB-4E0C-9412-298CC44D4DAA";
shapes = (
{
closed = 1;
nodes = (
(280,0,l),
(200,80,l),
(400,720,l),
(440,760,l),
(520,760,l),
(600,720,l),
(640,600,l),
(520,440,l),
(400,400,l),
(320,400,l),
(320,360,l),
(440,320,l),
(640,400,l),
(800,600,l),
(720,760,l),
(520,800,l),
(200,800,l),
(280,720,l),
(80,80,l),
(-40,0,l)
);
}
);
userData = {
com.typemytype.robofont.mark = (
0.001,
0.822,
0.283,
1
);
};
width = 720;
},
{
layerId = master01;
shapes = (
{
closed = 1;
nodes = (
(320,0,l),
(240,80,l),
(240,360,l),
(400,320,l),
(600,400,l),
(680,600,l),
(600,760,l),
(400,800,l),
(40,800,l),
(120,720,l),
(120,80,l),
(40,0,l)
);
},
{
closed = 1;
nodes = (
(240,720,l),
(280,760,l),
(400,760,l),
(480,720,l),
(520,600,l),
(480,440,l),
(360,400,l),
(240,400,l)
);
}
);
width = 694;
}
);
unicode = 80;
},
{
glyphname = Q;
lastChange = "2021-04-23 20:11:22 +0000";
layers = (
{
anchors = (
{
name = bottom;
pos = (440,0);
},
{
name = top;
pos = (440,840);
}
);
layerId = "EBA0A543-5703-488C-9449-531557917997";
shapes = (
{
closed = 1;
nodes = (
(760,-200,l),
(920,-120,l),
(920,-80,l),
(800,-80,l),
(640,-40,l),
(560,0,l),
(720,80,l),
(840,200,l),
(880,400,l),
(840,600,l),
(720,720,l),
(560,800,l),
(360,800,l),
(200,720,l),
(80,600,l),
(40,400,l),
(80,200,l),
(200,80,l),
(360,0,l),
(480,0,l),
(480,-40,l),
(520,-120,l),
(640,-200,l)
);
},
{
closed = 1;
nodes = (
(360,120,l),
(280,240,l),
(280,560,l),
(360,680,l),
(440,720,l),
(480,720,l),
(560,680,l),
(640,560,l),
(640,240,l),
(560,120,l),
(480,80,l),
(440,80,l)
);
}
);
userData = {
com.typemytype.robofont.layerData = {
regular = {
anchors = (
);
components = (
);
contours = (
{
points = (
{
segmentType = line;
smooth = 0;
x = 560;
y = 0;
},
{
segmentType = line;
smooth = 0;
x = 680;
y = -80;
},
{
segmentType = line;
smooth = 0;
x = 800;
y = -120;
},
{
segmentType = line;
smooth = 0;
x = 920;
y = -120;
},
{
segmentType = line;
smooth = 0;
x = 920;
y = -160;
},
{
segmentType = line;
smooth = 0;
x = 760;
y = -200;
},
{
segmentType = line;
smooth = 0;
x = 600;
y = -160;
},
{
segmentType = line;
smooth = 0;
x = 520;
y = -80;
},
{
segmentType = line;
smooth = 0;
x = 480;
y = 0;
},
{
segmentType = line;
smooth = 0;
x = 320;
y = 0;
},
{
segmentType = line;
smooth = 0;
x = 160;
y = 80;
},
{
segmentType = line;
smooth = 0;
x = 80;
y = 200;
},
{
segmentType = line;
smooth = 0;
x = 40;
y = 400;
},
{
segmentType = line;
smooth = 0;
x = 80;
y = 600;
},
{
segmentType = line;
smooth = 0;
x = 160;
y = 720;
},
{
segmentType = line;
smooth = 0;
x = 320;
y = 800;
},
{
segmentType = line;
smooth = 0;
x = 560;
y = 800;
},
{
segmentType = line;
smooth = 0;
x = 720;
y = 720;
},
{
segmentType = line;
smooth = 0;
x = 800;
y = 600;
},
{
segmentType = line;
smooth = 0;
x = 840;
y = 400;
},
{
segmentType = line;
smooth = 0;
x = 800;
y = 200;
},
{
segmentType = line;
smooth = 0;
x = 720;
y = 80;
}
);
},
{
points = (
{
segmentType = line;
smooth = 0;
x = 480;
y = 40;
},
{
segmentType = line;
smooth = 0;
x = 600;
y = 120;
},
{
segmentType = line;
smooth = 0;
x = 680;
y = 240;
},
{
segmentType = line;
smooth = 0;
x = 680;
y = 560;
},
{
segmentType = line;
smooth = 0;
x = 600;
y = 680;
},
{
segmentType = line;
smooth = 0;
x = 480;
y = 760;
},
{
segmentType = line;
smooth = 0;
x = 400;
y = 760;
},
{
segmentType = line;
smooth = 0;
x = 280;
y = 680;
},
{
segmentType = line;
smooth = 0;
x = 200;
y = 560;
},
{
segmentType = line;
smooth = 0;
x = 200;
y = 240;
},
{
segmentType = line;
smooth = 0;
x = 280;
y = 120;
},
{
segmentType = line;
smooth = 0;
x = 400;
y = 40;
}
);
}
);
lib = {
};
name = Q;
unicodes = (
);
width = 920;
};
};
com.typemytype.robofont.mark = (
0.001,
0.822,
0.283,
1
);
};
width = 920;
},
{
anchors = (
{
name = bottom;
pos = (240,0);
},
{
name = top;
pos = (500,840);
}
);
layerId = "C256A14B-F4BB-4E0C-9412-298CC44D4DAA";
shapes = (
{
closed = 1;
nodes = (
(640,-200,l),
(800,-160,l),
(800,-120,l),
(680,-120,l),
(560,-80,l),
(440,0,l),
(600,80,l),
(720,200,l),
(800,320,l),
(840,520,l),
(760,720,l),
(560,800,l),
(440,800,l),
(280,720,l),
(160,600,l),
(80,480,l),
(40,280,l),
(120,80,l),
(320,0,l),
(360,-40,l),
(400,-80,l),
(480,-160,l)
);
},
{
closed = 1;
nodes = (
(240,80,l),
(200,240,l),
(200,360,l),
(280,600,l),
(480,760,l),
(560,760,l),
(640,720,l),
(680,560,l),
(680,440,l),
(600,200,l),
(480,80,l),
(400,40,l),
(320,40,l)
);
}
);
userData = {
com.typemytype.robofont.mark = (
0.001,
0.822,
0.283,
1
);
};
width = 840;
},
{
anchors = (
{
name = bottom;
pos = (400,0);
},
{
name = top;
pos = (440,840);
}
);
layerId = master01;
shapes = (
{
closed = 1;
nodes = (
(760,-200,l),
(920,-160,l),
(920,-120,l),
(800,-120,l),
(680,-80,l),
(560,0,l),
(720,80,l),
(800,200,l),
(840,400,l),
(800,600,l),
(720,720,l),
(560,800,l),
(320,800,l),
(160,720,l),
(80,600,l),
(40,400,l),
(80,200,l),
(160,80,l),
(320,0,l),
(480,0,l),
(489,-18,l),
(520,-80,l),
(600,-160,l)
);
},
{
closed = 1;
nodes = (
(280,120,l),
(200,240,l),
(200,560,l),
(280,680,l),
(400,760,l),
(480,760,l),
(600,680,l),
(680,560,l),
(680,240,l),
(600,120,l),
(480,40,l),
(400,40,l)
);
}
);
width = 880;
}
);
unicode = 81;
},
{
glyphname = R;
lastChange = "2021-04-23 20:18:34 +0000";
layers = (
{
anchors = (
{
name = bottom;
pos = (440,0);
},
{
name = top;
pos = (440,840);
}
);
layerId = "EBA0A543-5703-488C-9449-531557917997";
shapes = (
{
closed = 1;
nodes = (
(800,0,l),
(640,280,l),
(520,320,l),
(520,360,l),
(680,400,l),
(760,600,l),
(640,760,l),
(520,800,l),
(40,800,l),
(120,720,l),
(120,80,l),
(40,0,l),
(400,0,l),
(320,80,l),
(320,360,l),
(400,320,l),
(440,280,l),
(560,40,l),
(760,-40,l)
);
},
{
closed = 1;
nodes = (
(320,680,l),
(360,720,l),
(440,720,l),
(520,680,l),
(560,560,l),
(520,440,l),
(440,400,l),
(320,400,l)
);
}
);
userData = {
com.typemytype.robofont.layerData = {
background = {
anchors = (
);
components = (
);
contours = (
{
points = (
{
segmentType = line;
smooth = 1;
x = 320;
y = 360;
},
{
segmentType = line;
smooth = 0;
x = 320;
y = 80;
},
{
segmentType = line;
smooth = 0;
x = 400;
y = 0;
},
{
segmentType = line;
smooth = 0;
x = 40;
y = 0;
},
{
segmentType = line;
smooth = 0;
x = 120;
y = 80;
},
{
segmentType = line;
smooth = 0;
x = 120;
y = 720;
},
{
segmentType = line;
smooth = 0;
x = 40;
y = 800;
},
{
segmentType = line;
smooth = 0;
x = 520;
y = 800;
},
{
segmentType = line;
smooth = 0;
x = 640;
y = 760;
},
{
segmentType = line;
smooth = 0;
x = 760;
y = 600;
},
{
segmentType = line;
smooth = 0;
x = 680;
y = 400;
},
{
segmentType = line;
smooth = 0;
x = 480;
y = 320;
}
);
},
{
points = (
{
segmentType = line;
smooth = 0;
x = 360;
y = 720;
},
{
segmentType = line;
smooth = 0;
x = 320;
y = 680;
},
{
segmentType = line;
smooth = 0;
x = 320;
y = 400;
},
{
segmentType = line;
smooth = 0;
x = 440;
y = 400;
},
{
segmentType = line;
smooth = 0;
x = 520;
y = 440;
},
{
segmentType = line;
smooth = 0;
x = 560;
y = 560;
},
{
segmentType = line;
smooth = 0;
x = 520;
y = 680;
},
{
segmentType = line;
smooth = 0;
x = 440;
y = 720;
}
);
}
);
lib = {
};
name = R;
unicodes = (
);
width = 800;
};
regular = {
anchors = (
);
components = (
);
contours = (
{
points = (
{
segmentType = line;
smooth = 0;
x = 80;
y = 800;
},
{
segmentType = line;
smooth = 0;
x = 440;
y = 800;
},
{
segmentType = line;
smooth = 0;
x = 640;
y = 760;
},
{
segmentType = line;
smooth = 0;
x = 720;
y = 600;
},
{
segmentType = line;
smooth = 0;
x = 640;
y = 440;
},
{
segmentType = line;
smooth = 0;
x = 400;
y = 400;
},
{
segmentType = line;
smooth = 0;
x = 520;
y = 360;
},
{
segmentType = line;
smooth = 0;
x = 760;
y = 0;
},
{
segmentType = line;
smooth = 0;
x = 720;
y = -40;
},
{
segmentType = line;
smooth = 0;
x = 560;
y = 80;
},
{
segmentType = line;
smooth = 0;
x = 400;
y = 320;
},
{
segmentType = line;
smooth = 0;
x = 360;
y = 360;
},
{
segmentType = line;
smooth = 0;
x = 280;
y = 400;
},
{
segmentType = line;
smooth = 0;
x = 280;
y = 80;
},
{
segmentType = line;
smooth = 0;
x = 360;
y = 0;
},
{
segmentType = line;
smooth = 0;
x = 80;
y = 0;
},
{
segmentType = line;
smooth = 0;
x = 160;
y = 80;
},
{
segmentType = line;
smooth = 0;
x = 160;
y = 720;
}
);
},
{
points = (
{
segmentType = line;
smooth = 0;
x = 320;
y = 760;
},
{
segmentType = line;
smooth = 0;
x = 280;
y = 720;
},
{
segmentType = line;
smooth = 0;
x = 280;
y = 440;
},
{
segmentType = line;
smooth = 0;
x = 440;
y = 440;
},
{
segmentType = line;
smooth = 0;
x = 520;
y = 480;
},
{
segmentType = line;
smooth = 0;
x = 560;
y = 600;
},
{
segmentType = line;
smooth = 0;
x = 520;
y = 720;
},
{
segmentType = line;
smooth = 0;
x = 440;
y = 760;
}
);
}
);
lib = {
};
name = R;
unicodes = (
);
width = 800;
};
};
com.typemytype.robofont.mark = (
0.001,
0.822,
0.283,
1
);
};
width = 800;
},
{
anchors = (
{
name = bottom;
pos = (320,0);
},
{
name = top;
pos = (480,840);
}
);
layerId = "C256A14B-F4BB-4E0C-9412-298CC44D4DAA";
shapes = (
{
closed = 1;
nodes = (
(680,0,l),
(560,320,l),
(440,400,l),
(680,440,l),
(800,600,l),
(720,760,l),
(520,800,l),
(200,800,l),
(280,720,l),
(80,80,l),
(-40,0,l),
(280,0,l),
(200,80,l),
(400,720,l),
(440,760,l),
(520,760,l),
(600,720,l),
(640,600,l),
(560,480,l),
(480,440,l),
(320,440,l),
(320,400,l),
(400,360,l),
(440,280,l),
(520,80,l),
(640,-40,l)
);
}
);
userData = {
com.typemytype.robofont.layerData = {
backgroud = {
anchors = (
);
components = (
);
contours = (
{
points = (
{
segmentType = line;
smooth = 0;
x = 200;
y = 80;
},
{
segmentType = line;
smooth = 0;
x = 280;
y = 0;
},
{
segmentType = line;
smooth = 0;
x = 0;
y = 0;
},
{
segmentType = line;
smooth = 0;
x = 80;
y = 80;
},
{
segmentType = line;
smooth = 0;
x = 280;
y = 720;
},
{
segmentType = line;
smooth = 0;
x = 200;
y = 800;
},
{
segmentType = line;
smooth = 0;
x = 520;
y = 800;
},
{
segmentType = line;
smooth = 0;
x = 720;
y = 760;
},
{
segmentType = line;
smooth = 0;
x = 800;
y = 600;
},
{
segmentType = line;
smooth = 0;
x = 640;
y = 400;
},
{
segmentType = line;
smooth = 0;
x = 440;
y = 320;
},
{
segmentType = line;
smooth = 0;
x = 320;
y = 360;
},
{
segmentType = line;
smooth = 0;
x = 320;
y = 400;
},
{
segmentType = line;
smooth = 0;
x = 400;
y = 400;
},
{
segmentType = line;
smooth = 0;
x = 520;
y = 440;
},
{
segmentType = line;
smooth = 0;
x = 640;
y = 600;
},
{
segmentType = line;
smooth = 0;
x = 600;
y = 720;
},
{
segmentType = line;
smooth = 0;
x = 520;
y = 760;
},
{
segmentType = line;
smooth = 0;
x = 440;
y = 760;
},
{
segmentType = line;
smooth = 0;
x = 400;
y = 720;
}
);
}
);
lib = {
};
name = R;
unicodes = (
);
width = 760;
};
};
com.typemytype.robofont.mark = (
0.001,
0.822,
0.283,
1
);
};
width = 760;
},
{
anchors = (
{
name = bottom;
pos = (360,0);
},
{
name = top;
pos = (360,840);
}
);
layerId = master01;
shapes = (
{
closed = 1;
nodes = (
(720,0,l),
(480,360,l),
(360,400,l),
(373,402,l),
(600,440,l),
(680,600,l),
(600,760,l),
(400,800,l),
(40,800,l),
(120,720,l),
(120,80,l),
(40,0,l),
(320,0,l),
(240,80,l),
(240,400,l),
(320,360,l),
(360,320,l),
(520,80,l),
(680,-40,l)
);
},
{
closed = 1;
nodes = (
(240,720,l),
(280,760,l),
(400,760,l),
(480,720,l),
(520,600,l),
(480,480,l),
(400,440,l),
(240,440,l)
);
}
);
width = 730;
}
);
unicode = 82;
},
{
glyphname = S;
lastChange = "2021-04-23 20:26:07 +0000";
layers = (
{
anchors = (
{
name = bottom;
pos = (310,0);
},
{
name = top;
pos = (280,840);
}
);
layerId = "EBA0A543-5703-488C-9449-531557917997";
shapes = (
{
closed = 1;
nodes = (
(160,40,l),
(320,0,l),
(400,0,l),
(520,40,l),
(600,200,l),
(560,400,l),
(320,580,l),
(240,640,l),
(240,720,l),
(280,760,l),
(360,760,l),
(520,560,l),
(560,560,l),
(520,840,l),
(440,800,l),
(200,840,l),
(80,760,l),
(40,600,l),
(80,480,l),
(372,253,l),
(440,200,l),
(440,120,l),
(400,80,l),
(360,80,l),
(240,80,l),
(80,320,l),
(40,320,l),
(80,0,l)
);
}
);
userData = {
com.typemytype.robofont.layerData = {
regular = {
anchors = (
);
components = (
);
contours = (
{
points = (
{
segmentType = line;
smooth = 0;
x = 520;
y = 600;
},
{
segmentType = line;
smooth = 0;
x = 480;
y = 600;
},
{
segmentType = line;
smooth = 0;
x = 360;
y = 760;
},
{
segmentType = line;
smooth = 0;
x = 240;
y = 760;
},
{
segmentType = line;
smooth = 0;
x = 200;
y = 720;
},
{
segmentType = line;
smooth = 0;
x = 160;
y = 640;
},
{
segmentType = line;
smooth = 0;
x = 240;
y = 560;
},
{
segmentType = line;
smooth = 0;
x = 520;
y = 320;
},
{
segmentType = line;
smooth = 0;
x = 560;
y = 200;
},
{
segmentType = line;
smooth = 0;
x = 520;
y = 40;
},
{
segmentType = line;
smooth = 0;
x = 360;
y = -40;
},
{
segmentType = line;
smooth = 0;
x = 160;
y = 0;
},
{
segmentType = line;
smooth = 0;
x = 80;
y = -40;
},
{
segmentType = line;
smooth = 0;
x = 40;
y = 230;
},
{
segmentType = line;
smooth = 0;
x = 80;
y = 230;
},
{
segmentType = line;
smooth = 0;
x = 200;
y = 40;
},
{
segmentType = line;
smooth = 0;
x = 320;
y = 40;
},
{
segmentType = line;
smooth = 0;
x = 400;
y = 80;
},
{
segmentType = line;
smooth = 0;
x = 440;
y = 120;
},
{
segmentType = line;
smooth = 0;
x = 440;
y = 200;
},
{
segmentType = line;
smooth = 0;
x = 360;
y = 280;
},
{
segmentType = line;
smooth = 0;
x = 80;
y = 520;
},
{
segmentType = line;
smooth = 0;
x = 40;
y = 640;
},
{
segmentType = line;
smooth = 0;
x = 80;
y = 760;
},
{
segmentType = line;
smooth = 0;
x = 200;
y = 840;
},
{
segmentType = line;
smooth = 0;
x = 400;
y = 800;
},
{
segmentType = line;
smooth = 0;
x = 480;
y = 840;
}
);
}
);
lib = {
};
name = S;
unicodes = (
);
width = 640;
};
};
com.typemytype.robofont.mark = (
0.001,
0.822,
0.283,
1
);
};
width = 640;
},
{
anchors = (
{
name = bottom;
pos = (240,-40);
},
{
name = top;
pos = (440,840);
}
);
layerId = "C256A14B-F4BB-4E0C-9412-298CC44D4DAA";
shapes = (
{
closed = 1;
nodes = (
(120,0,l),
(240,-23,l),
(320,-40,l),
(480,40,l),
(520,200,l),
(480,360,l),
(400,520,l),
(320,640,l),
(360,720,l),
(400,760,l),
(520,760,l),
(640,600,l),
(680,600,l),
(640,840,l),
(560,800,l),
(360,840,l),
(240,760,l),
(200,640,l),
(240,480,l),
(320,320,l),
(400,200,l),
(400,120,l),
(360,80,l),
(280,40,l),
(160,40,l),
(40,240,l),
(0,240,l),
(40,-40,l)
);
}
);
userData = {
com.typemytype.robofont.mark = (
0.001,
0.822,
0.283,
1
);
};
width = 600;
},
{
anchors = (
{
name = bottom;
pos = (280,-40);
},
{
name = top;
pos = (280,840);
}
);
layerId = master01;
shapes = (
{
closed = 1;
nodes = (
(160,0,l),
(280,-24,l),
(360,-40,l),
(520,40,l),
(560,200,l),
(520,320,l),
(240,560,l),
(160,640,l),
(200,720,l),
(240,760,l),
(360,760,l),
(480,600,l),
(520,600,l),
(480,840,l),
(400,800,l),
(200,840,l),
(80,760,l),
(40,640,l),
(80,520,l),
(360,280,l),
(440,200,l),
(440,120,l),
(400,80,l),
(320,40,l),
(200,40,l),
(80,230,l),
(40,230,l),
(80,-40,l)
);
}
);
width = 600;
}
);
unicode = 83;
},
{
glyphname = T;
lastChange = "2021-04-23 20:28:03 +0000";
layers = (
{
anchors = (
{
name = bottom;
pos = (400,0);
},
{
name = top;
pos = (400,830);
}
);
layerId = "EBA0A543-5703-488C-9449-531557917997";
shapes = (
{
closed = 1;
nodes = (
(560,0,l),
(480,80,l),
(480,720,l),
(640,680,l),
(720,560,l),
(760,560,l),
(720,840,l),
(560,800,l),
(200,800,l),
(40,840,l),
(0,560,l),
(40,560,l),
(120,680,l),
(280,720,l),
(280,80,l),
(200,0,l)
);
}
);
userData = {
com.typemytype.robofont.layerData = {
regular = {
anchors = (
);
components = (
);
contours = (
{
points = (
{
segmentType = line;
smooth = 0;
x = 680;
y = 600;
},
{
segmentType = line;
smooth = 0;
x = 640;
y = 600;
},
{
segmentType = line;
smooth = 0;
x = 560;
y = 720;
},
{
segmentType = line;
smooth = 0;
x = 400;
y = 760;
},
{
segmentType = line;
smooth = 0;
x = 400;
y = 80;
},
{
segmentType = line;
smooth = 0;
x = 480;
y = 0;
},
{
segmentType = line;
smooth = 0;
x = 200;
y = 0;
},
{
segmentType = line;
smooth = 0;
x = 280;
y = 80;
},
{
segmentType = line;
smooth = 0;
x = 280;
y = 760;
},
{
segmentType = line;
smooth = 0;
x = 120;
y = 720;
},
{
segmentType = line;
smooth = 0;
x = 40;
y = 600;
},
{
segmentType = line;
smooth = 0;
x = 0;
y = 600;
},
{
segmentType = line;
smooth = 0;
x = 40;
y = 840;
},
{
segmentType = line;
smooth = 0;
x = 200;
y = 800;
},
{
segmentType = line;
smooth = 0;
x = 480;
y = 800;
},
{
segmentType = line;
smooth = 0;
x = 640;
y = 840;
}
);
}
);
lib = {
};
name = T;
unicodes = (
);
width = 760;
};
};
com.typemytype.robofont.mark = (
0.001,
0.822,
0.283,
1
);
};
width = 760;
},
{
anchors = (
{
name = bottom;
pos = (280,0);
},
{
name = top;
pos = (520,840);
}
);
layerId = "C256A14B-F4BB-4E0C-9412-298CC44D4DAA";
shapes = (
{
closed = 1;
nodes = (
(440,0,l),
(360,80,l),
(560,760,l),
(720,720,l),
(800,600,l),
(840,600,l),
(800,840,l),
(640,800,l),
(320,800,l),
(160,840,l),
(160,600,l),
(200,600,l),
(240,720,l),
(440,760,l),
(240,80,l),
(120,0,l)
);
}
);
userData = {
com.typemytype.robofont.mark = (
0.001,
0.822,
0.283,
1
);
};
width = 680;
},
{
anchors = (
{
name = bottom;
pos = (340,0);
},
{
name = top;
pos = (340,840);
}
);
layerId = master01;
shapes = (
{
closed = 1;
nodes = (
(480,0,l),
(400,80,l),
(400,760,l),
(560,720,l),
(640,600,l),
(680,600,l),
(640,840,l),
(480,800,l),
(200,800,l),
(40,840,l),
(0,600,l),
(40,600,l),
(120,720,l),
(280,760,l),
(280,80,l),
(200,0,l)
);
}
);
width = 680;
}
);
unicode = 84;
},
{
glyphname = U;
lastChange = "2021-04-23 20:29:36 +0000";
layers = (
{
anchors = (
{
name = bottom;
pos = (450,-30);
},
{
name = right;
pos = (450,0);
},
{
name = top;
pos = (480,840);
}
);
layerId = "EBA0A543-5703-488C-9449-531557917997";
shapes = (
{
closed = 1;
nodes = (
(560,0,l),
(680,40,l),
(760,120,l),
(800,240,l),
(800,720,l),
(880,800,l),
(600,800,l),
(680,720,l),
(680,200,l),
(640,120,l),
(560,80,l),
(480,80,l),
(400,120,l),
(360,160,l),
(320,280,l),
(320,720,l),
(400,800,l),
(40,800,l),
(120,720,l),
(120,240,l),
(160,120,l),
(240,40,l),
(400,0,l)
);
}
);
userData = {
com.typemytype.robofont.layerData = {
regular = {
anchors = (
);
components = (
);
contours = (
{
points = (
{
segmentType = line;
smooth = 0;
x = 720;
y = 240;
},
{
segmentType = line;
smooth = 0;
x = 680;
y = 120;
},
{
segmentType = line;
smooth = 0;
x = 600;
y = 40;
},
{
segmentType = line;
smooth = 0;
x = 520;
y = 0;
},
{
segmentType = line;
smooth = 0;
x = 360;
y = 0;
},
{
segmentType = line;
smooth = 0;
x = 240;
y = 40;
},
{
segmentType = line;
smooth = 0;
x = 160;
y = 120;
},
{
segmentType = line;
smooth = 0;
x = 120;
y = 240;
},
{
segmentType = line;
smooth = 0;
x = 120;
y = 720;
},
{
segmentType = line;
smooth = 0;
x = 40;
y = 800;
},
{
segmentType = line;
smooth = 0;
x = 320;
y = 800;
},
{
segmentType = line;
smooth = 0;
x = 240;
y = 720;
},
{
segmentType = line;
smooth = 0;
x = 240;
y = 280;
},
{
segmentType = line;
smooth = 0;
x = 280;
y = 120;
},
{
segmentType = line;
smooth = 0;
x = 400;
y = 40;
},
{
segmentType = line;
smooth = 0;
x = 480;
y = 40;
},
{
segmentType = line;
smooth = 0;
x = 560;
y = 80;
},
{
segmentType = line;
smooth = 0;
x = 600;
y = 120;
},
{
segmentType = line;
smooth = 0;
x = 640;
y = 240;
},
{
segmentType = line;
smooth = 0;
x = 640;
y = 720;
},
{
segmentType = line;
smooth = 0;
x = 560;
y = 800;
},
{
segmentType = line;
smooth = 0;
x = 800;
y = 800;
},
{
segmentType = line;
smooth = 0;
x = 720;
y = 720;
}
);
}
);
lib = {
};
name = U;
unicodes = (
);
width = 900;
};
};
com.typemytype.robofont.mark = (
0.001,
0.822,
0.283,
1
);
};
width = 900;
},
{
anchors = (
{
name = top;
pos = (600,800);
}
);
layerId = "C256A14B-F4BB-4E0C-9412-298CC44D4DAA";
shapes = (
{
closed = 1;
nodes = (
(400,0,l),
(520,40,l),
(600,120,l),
(680,240,l),
(840,720,l),
(960,800,l),
(640,800,l),
(720,720,l),
(600,240,l),
(520,120,l),
(480,80,l),
(360,40,l),
(320,40,l),
(240,80,l),
(200,160,l),
(200,240,l),
(360,720,l),
(480,800,l),
(160,800,l),
(240,720,l),
(80,240,l),
(80,120,l),
(160,40,l),
(320,0,l)
);
}
);
userData = {
com.typemytype.robofont.mark = (
0.001,
0.822,
0.283,
1
);
};
width = 840;
},
{
anchors = (
{
name = bottom;
pos = (400,-40);
},
{
name = right;
pos = (400,0);
},
{
name = top;
pos = (440,840);
}
);
layerId = master01;
shapes = (
{
closed = 1;
nodes = (
(520,0,l),
(600,40,l),
(680,120,l),
(720,240,l),
(720,720,l),
(800,800,l),
(560,800,l),
(640,720,l),
(640,240,l),
(600,120,l),
(560,80,l),
(480,40,l),
(400,40,l),
(280,120,l),
(240,280,l),
(240,720,l),
(320,800,l),
(40,800,l),
(120,720,l),
(120,240,l),
(160,120,l),
(240,40,l),
(360,0,l)
);
}
);
width = 840;
}
);
unicode = 85;
},
{
glyphname = V;
lastChange = "2021-04-23 20:30:52 +0000";
layers = (
{
layerId = "EBA0A543-5703-488C-9449-531557917997";
shapes = (
{
closed = 1;
nodes = (
(440,0,l),
(760,720,l),
(840,800,l),
(520,800,l),
(600,720,l),
(440,160,l),
(440,240,l),
(280,720,l),
(360,800,l),
(-40,800,l),
(40,720,l),
(320,-40,l)
);
}
);
userData = {
com.typemytype.robofont.layerData = {
regular = {
anchors = (
);
components = (
);
contours = (
{
points = (
{
segmentType = line;
smooth = 0;
x = 540;
y = 720;
},
{
segmentType = line;
smooth = 0;
x = 460;
y = 800;
},
{
segmentType = line;
smooth = 0;
x = 700;
y = 800;
},
{
segmentType = line;
smooth = 0;
x = 620;
y = 720;
},
{
segmentType = line;
smooth = 0;
x = 340;
y = 0;
},
{
segmentType = line;
smooth = 0;
x = 300;
y = -40;
},
{
segmentType = line;
smooth = 0;
x = 20;
y = 720;
},
{
segmentType = line;
smooth = 0;
x = -60;
y = 800;
},
{
segmentType = line;
smooth = 0;
x = 220;
y = 800;
},
{
segmentType = line;
smooth = 0;
x = 140;
y = 720;
},
{
segmentType = line;
smooth = 0;
x = 340;
y = 200;
}
);
}
);
lib = {
};
name = V;
unicodes = (
);
width = 760;
};
};
com.typemytype.robofont.mark = (
0.001,
0.822,
0.283,
1
);
};
width = 760;
},
{
layerId = "C256A14B-F4BB-4E0C-9412-298CC44D4DAA";
shapes = (
{
closed = 1;
nodes = (
(160,0,l),
(680,720,l),
(800,800,l),
(520,800,l),
(600,720,l),
(200,160,l),
(200,720,l),
(280,800,l),
(0,800,l),
(80,720,l),
(80,-40,l)
);
}
);
userData = {
com.typemytype.robofont.mark = (
0.001,
0.822,
0.283,
1
);
};
width = 680;
},
{
layerId = master01;
shapes = (
{
closed = 1;
nodes = (
(400,0,l),
(680,720,l),
(760,800,l),
(520,800,l),
(600,720,l),
(400,200,l),
(385,240,l),
(200,720,l),
(280,800,l),
(0,800,l),
(80,720,l),
(360,-40,l)
);
}
);
width = 760;
}
);
unicode = 86;
},
{
glyphname = W;
lastChange = "2021-04-23 20:34:34 +0000";
layers = (
{
anchors = (
{
name = top;
pos = (520,840);
}
);
layerId = "EBA0A543-5703-488C-9449-531557917997";
shapes = (
{
closed = 1;
nodes = (
(400,0,l),
(520,520,l),
(680,-40,l),
(800,0,l),
(1080,720,l),
(1160,800,l),
(840,800,l),
(920,720,l),
(800,200,l),
(800,280,l),
(680,760,l),
(480,720,l),
(400,200,l),
(400,280,l),
(280,720,ls),
(360,800,l),
(-40,800,l),
(40,720,l),
(280,-40,l)
);
}
);
userData = {
com.typemytype.robofont.layerData = {
regular = {
anchors = (
);
components = (
);
contours = (
{
points = (
{
segmentType = line;
smooth = 0;
x = 530;
y = 760;
},
{
segmentType = line;
smooth = 0;
x = 650;
y = 200;
},
{
segmentType = line;
smooth = 0;
x = 810;
y = 720;
},
{
segmentType = line;
smooth = 0;
x = 730;
y = 800;
},
{
segmentType = line;
smooth = 0;
x = 970;
y = 800;
},
{
segmentType = line;
smooth = 0;
x = 890;
y = 720;
},
{
segmentType = line;
smooth = 0;
x = 650;
y = 0;
},
{
segmentType = line;
smooth = 0;
x = 610;
y = -40;
},
{
segmentType = line;
smooth = 0;
x = 450;
y = 520;
},
{
segmentType = line;
smooth = 0;
x = 290;
y = 0;
},
{
segmentType = line;
smooth = 0;
x = 250;
y = -40;
},
{
segmentType = line;
smooth = 0;
x = 10;
y = 720;
},
{
segmentType = line;
smooth = 0;
x = -70;
y = 800;
},
{
segmentType = line;
smooth = 0;
x = 210;
y = 800;
},
{
segmentType = line;
smooth = 0;
x = 130;
y = 720;
},
{
segmentType = line;
smooth = 0;
x = 290;
y = 200;
},
{
segmentType = line;
smooth = 0;
x = 410;
y = 720;
}
);
}
);
lib = {
};
name = W;
unicodes = (
);
width = 1120;
};
};
com.typemytype.robofont.mark = (
0.001,
0.822,
0.283,
1
);
};
width = 1120;
},
{
anchors = (
{
name = top;
pos = (560,840);
}
);
layerId = "C256A14B-F4BB-4E0C-9412-298CC44D4DAA";
shapes = (
{
closed = 1;
nodes = (
(160,0,l),
(480,600,l),
(480,-40,l),
(520,0,l),
(960,720,l),
(1080,800,l),
(800,800,l),
(880,720,l),
(600,240,l),
(600,280,l),
(600,760,l),
(480,720,l),
(200,200,l),
(200,240,l),
(200,720,l),
(280,800,l),
(0,800,l),
(80,720,l),
(80,-40,l)
);
}
);
userData = {
com.typemytype.robofont.mark = (
0.001,
0.822,
0.283,
1
);
};
width = 960;
},
{
anchors = (
{
name = top;
pos = (520,840);
}
);
layerId = master01;
shapes = (
{
closed = 1;
nodes = (
(360,0,l),
(520,520,l),
(680,-40,l),
(720,0,l),
(960,720,l),
(1040,800,l),
(800,800,l),
(880,720,l),
(720,200,l),
(711,240,l),
(600,760,l),
(480,720,l),
(360,200,l),
(348,240,l),
(200,720,l),
(280,800,l),
(0,800,l),
(80,720,l),
(320,-40,l)
);
}
);
width = 1040;
}
);
unicode = 87;
},
{
glyphname = X;
lastChange = "2021-04-23 20:36:14 +0000";
layers = (
{
layerId = "EBA0A543-5703-488C-9449-531557917997";
shapes = (
{
closed = 1;
nodes = (
(320,0,l),
(240,80,l),
(320,280,l),
(360,280,l),
(480,80,l),
(400,0,l),
(800,0,l),
(742,80,l),
(480,440,l),
(720,720,l),
(800,800,l),
(480,800,l),
(560,720,l),
(480,520,l),
(440,520,l),
(320,720,l),
(400,800,l),
(0,800,l),
(58,720,l),
(320,360,l),
(80,80,l),
(0,0,l)
);
}
);
userData = {
com.typemytype.robofont.layerData = {
background = {
anchors = (
);
components = (
);
contours = (
{
points = (
{
segmentType = line;
smooth = 0;
x = 560;
y = 720;
},
{
segmentType = line;
smooth = 0;
x = 480;
y = 800;
},
{
segmentType = line;
smooth = 0;
x = 780;
y = 800;
},
{
segmentType = line;
smooth = 0;
x = 700;
y = 720;
},
{
segmentType = line;
smooth = 0;
x = 480;
y = 400;
},
{
segmentType = line;
smooth = 0;
x = 700;
y = 80;
},
{
segmentType = line;
smooth = 0;
x = 780;
y = 0;
},
{
segmentType = line;
smooth = 0;
x = 440;
y = 0;
},
{
segmentType = line;
smooth = 0;
x = 520;
y = 80;
},
{
segmentType = line;
smooth = 0;
x = 380;
y = 360;
},
{
segmentType = line;
smooth = 0;
x = 360;
y = 360;
},
{
segmentType = line;
smooth = 0;
x = 200;
y = 80;
},
{
segmentType = line;
smooth = 0;
x = 280;
y = 0;
},
{
segmentType = line;
smooth = 0;
x = -20;
y = 0;
},
{
segmentType = line;
smooth = 0;
x = 60;
y = 80;
},
{
segmentType = line;
smooth = 0;
x = 280;
y = 400;
},
{
segmentType = line;
smooth = 0;
x = 60;
y = 720;
},
{
segmentType = line;
smooth = 0;
x = -20;
y = 800;
},
{
segmentType = line;
smooth = 0;
x = 320;
y = 800;
},
{
segmentType = line;
smooth = 0;
x = 240;
y = 720;
},
{
segmentType = line;
smooth = 0;
x = 380;
y = 440;
},
{
segmentType = line;
smooth = 0;
x = 400;
y = 440;
}
);
}
);
lib = {
};
name = X;
unicodes = (
);
width = 800;
};
regular = {
anchors = (
);
components = (
);
contours = (
{
points = (
{
segmentType = line;
smooth = 0;
x = 540;
y = 720;
},
{
segmentType = line;
smooth = 0;
x = 460;
y = 800;
},
{
segmentType = line;
smooth = 0;
x = 740;
y = 800;
},
{
segmentType = line;
smooth = 0;
x = 660;
y = 720;
},
{
segmentType = line;
smooth = 0;
x = 420;
y = 400;
},
{
segmentType = line;
smooth = 0;
x = 660;
y = 80;
},
{
segmentType = line;
smooth = 0;
x = 740;
y = 0;
},
{
segmentType = line;
smooth = 0;
x = 420;
y = 0;
},
{
segmentType = line;
smooth = 0;
x = 500;
y = 80;
},
{
segmentType = line;
smooth = 0;
x = 380;
y = 360;
},
{
segmentType = line;
smooth = 0;
x = 340;
y = 360;
},
{
segmentType = line;
smooth = 0;
x = 180;
y = 80;
},
{
segmentType = line;
smooth = 0;
x = 260;
y = 0;
},
{
segmentType = line;
smooth = 0;
x = -20;
y = 0;
},
{
segmentType = line;
smooth = 0;
x = 60;
y = 80;
},
{
segmentType = line;
smooth = 0;
x = 300;
y = 400;
},
{
segmentType = line;
smooth = 0;
x = 60;
y = 720;
},
{
segmentType = line;
smooth = 0;
x = -20;
y = 800;
},
{
segmentType = line;
smooth = 0;
x = 300;
y = 800;
},
{
segmentType = line;
smooth = 0;
x = 220;
y = 720;
},
{
segmentType = line;
smooth = 0;
x = 340;
y = 440;
},
{
segmentType = line;
smooth = 0;
x = 380;
y = 440;
}
);
}
);
lib = {
};
name = X;
unicodes = (
);
width = 800;
};
};
com.typemytype.robofont.mark = (
0.001,
0.822,
0.283,
1
);
};
width = 800;
},
{
layerId = "C256A14B-F4BB-4E0C-9412-298CC44D4DAA";
shapes = (
{
closed = 1;
nodes = (
(240,0,l),
(160,80,l),
(400,360,l),
(440,360,l),
(480,80,l),
(400,0,l),
(720,0,l),
(640,80,l),
(480,400,l),
(832,720,l),
(920,800,l),
(640,800,l),
(720,720,l),
(440,440,l),
(400,440,l),
(400,720,l),
(480,800,l),
(160,800,l),
(240,720,l),
(360,400,l),
(40,80,l),
(-40,0,l)
);
}
);
userData = {
com.typemytype.robofont.mark = (
0.001,
0.822,
0.283,
1
);
};
width = 840;
},
{
layerId = master01;
shapes = (
{
closed = 1;
nodes = (
(320,0,l),
(240,80,l),
(400,360,l),
(440,360,l),
(560,80,l),
(480,0,l),
(800,0,l),
(720,80,l),
(480,400,l),
(720,720,l),
(800,800,l),
(520,800,l),
(600,720,l),
(440,440,l),
(400,440,l),
(280,720,l),
(360,800,l),
(40,800,l),
(120,720,l),
(360,400,l),
(120,80,l),
(40,0,l)
);
}
);
width = 840;
}
);
unicode = 88;
},
{
glyphname = Y;
lastChange = "2021-04-23 20:38:16 +0000";
layers = (
{
anchors = (
{
name = top;
pos = (400,840);
}
);
layerId = "EBA0A543-5703-488C-9449-531557917997";
shapes = (
{
closed = 1;
nodes = (
(560,0,l),
(480,80,l),
(480,360,l),
(720,720,l),
(800,800,l),
(520,800,l),
(600,720,l),
(441,402,l),
(440,400,l),
(440,440,l),
(280,720,l),
(360,800,l),
(-40,800,l),
(40,720,l),
(280,360,l),
(280,80,l),
(200,0,l)
);
}
);
userData = {
com.typemytype.robofont.layerData = {
regular = {
anchors = (
);
components = (
);
contours = (
{
points = (
{
segmentType = line;
smooth = 0;
x = 340;
y = 440;
},
{
segmentType = line;
smooth = 0;
x = 380;
y = 440;
},
{
segmentType = line;
smooth = 0;
x = 500;
y = 720;
},
{
segmentType = line;
smooth = 0;
x = 420;
y = 800;
},
{
segmentType = line;
smooth = 0;
x = 660;
y = 800;
},
{
segmentType = line;
smooth = 0;
x = 580;
y = 720;
},
{
segmentType = line;
smooth = 0;
x = 380;
y = 360;
},
{
segmentType = line;
smooth = 0;
x = 380;
y = 80;
},
{
segmentType = line;
smooth = 0;
x = 460;
y = 0;
},
{
segmentType = line;
smooth = 0;
x = 180;
y = 0;
},
{
segmentType = line;
smooth = 0;
x = 260;
y = 80;
},
{
segmentType = line;
smooth = 0;
x = 260;
y = 360;
},
{
segmentType = line;
smooth = 0;
x = 60;
y = 720;
},
{
segmentType = line;
smooth = 0;
x = -20;
y = 800;
},
{
segmentType = line;
smooth = 0;
x = 260;
y = 800;
},
{
segmentType = line;
smooth = 0;
x = 180;
y = 720;
}
);
}
);
lib = {
};
name = Y;
unicodes = (
);
width = 760;
};
};
com.typemytype.robofont.mark = (
0.001,
0.822,
0.283,
1
);
};
width = 760;
},
{
anchors = (
{
name = top;
pos = (560,800);
}
);
layerId = "C256A14B-F4BB-4E0C-9412-298CC44D4DAA";
shapes = (
{
closed = 1;
nodes = (
(440,0,l),
(360,80,l),
(440,360,l),
(760,720,l),
(880,800,l),
(600,800,l),
(680,720,l),
(440,440,l),
(400,440,l),
(400,520,l),
(360,720,l),
(440,800,l),
(160,800,l),
(240,720,l),
(320,360,l),
(240,80,l),
(120,0,l)
);
}
);
userData = {
com.typemytype.robofont.mark = (
0.001,
0.822,
0.283,
1
);
};
width = 760;
},
{
anchors = (
{
name = top;
pos = (360,840);
}
);
layerId = master01;
shapes = (
{
closed = 1;
nodes = (
(480,0,l),
(400,80,l),
(400,360,l),
(600,720,l),
(680,800,l),
(440,800,l),
(520,720,l),
(400,440,l),
(360,440,l),
(337,480,l),
(200,720,l),
(280,800,l),
(0,800,l),
(80,720,l),
(280,360,l),
(280,80,l),
(200,0,l)
);
}
);
width = 680;
}
);
unicode = 89;
},
{
glyphname = Z;
lastChange = "2021-04-23 20:42:25 +0000";
layers = (
{
anchors = (
{
name = top;
pos = (400,830);
}
);
layerId = "EBA0A543-5703-488C-9449-531557917997";
shapes = (
{
closed = 1;
nodes = (
(720,280,l),
(680,280,l),
(560,80,l),
(320,80,l),
(720,760,l),
(720,800,l),
(200,800,l),
(120,840,l),
(80,560,l),
(120,560,l),
(240,720,l),
(440,720,l),
(40,40,l),
(40,0,l),
(600,0,l),
(680,-40,l)
);
}
);
userData = {
com.typemytype.robofont.layerData = {
regular = {
anchors = (
);
components = (
);
contours = (
{
points = (
{
segmentType = line;
smooth = 0;
x = 160;
y = 80;
},
{
segmentType = line;
smooth = 0;
x = 520;
y = 40;
},
{
segmentType = line;
smooth = 0;
x = 640;
y = 240;
},
{
segmentType = line;
smooth = 0;
x = 680;
y = 240;
},
{
segmentType = line;
smooth = 0;
x = 640;
y = -40;
},
{
segmentType = line;
smooth = 0;
x = 560;
y = 0;
},
{
segmentType = line;
smooth = 0;
x = 40;
y = 0;
},
{
segmentType = line;
smooth = 0;
x = 40;
y = 40;
},
{
segmentType = line;
smooth = 0;
x = 520;
y = 760;
},
{
segmentType = line;
smooth = 0;
x = 240;
y = 760;
},
{
segmentType = line;
smooth = 0;
x = 120;
y = 600;
},
{
segmentType = line;
smooth = 0;
x = 80;
y = 600;
},
{
segmentType = line;
smooth = 0;
x = 120;
y = 840;
},
{
segmentType = line;
smooth = 0;
x = 280;
y = 800;
},
{
segmentType = line;
smooth = 0;
x = 720;
y = 800;
}
);
}
);
lib = {
};
name = Z;
unicodes = (
);
width = 760;
};
};
com.typemytype.robofont.mark = (
0.001,
0.822,
0.283,
1
);
};
width = 760;
},
{
anchors = (
{
name = top;
pos = (560,840);
}
);
layerId = "C256A14B-F4BB-4E0C-9412-298CC44D4DAA";
shapes = (
{
closed = 1;
nodes = (
(600,240,l),
(560,240,l),
(440,40,l),
(120,80,l),
(762,760,l),
(800,800,l),
(400,800,l),
(240,840,l),
(200,600,l),
(240,600,l),
(360,760,l),
(600,760,l),
(-40,40,l),
(-40,0,l),
(480,0,l),
(560,-40,l)
);
}
);
userData = {
com.typemytype.robofont.mark = (
0.001,
0.822,
0.283,
1
);
};
width = 720;
},
{
anchors = (
{
name = top;
pos = (440,840);
}
);
layerId = master01;
shapes = (
{
closed = 1;
nodes = (
(680,240,l),
(640,240,l),
(520,40,l),
(160,80,l),
(689,760,l),
(720,800,l),
(280,800,l),
(120,840,l),
(80,600,l),
(120,600,l),
(240,760,l),
(520,760,l),
(40,40,l),
(40,0,l),
(560,0,l),
(640,-40,l)
);
}
);
width = 760;
}
);
unicode = 90;
},
{
glyphname = a;
lastChange = "2021-04-23 20:47:41 +0000";
layers = (
{
anchors = (
{
name = bottom;
pos = (320,0);
},
{
name = right;
pos = (600,0);
},
{
name = top;
pos = (320,600);
}
);
layerId = "EBA0A543-5703-488C-9449-531557917997";
shapes = (
{
closed = 1;
nodes = (
(320,0,l),
(440,80,l),
(480,0,l),
(520,0,l),
(680,120,l),
(680,200,l),
(600,160,l),
(560,160,l),
(560,480,l),
(480,560,l),
(280,600,l),
(80,520,l),
(120,400,l),
(200,480,l),
(280,480,l),
(360,440,l),
(360,360,l),
(120,320,l),
(40,280,l),
(0,160,l),
(80,40,l),
(200,0,l)
);
},
{
closed = 1;
nodes = (
(200,160,l),
(240,240,l),
(360,320,l),
(360,160,l),
(320,80,l),
(240,80,l)
);
}
);
userData = {
com.typemytype.robofont.layerData = {
background = {
anchors = (
);
components = (
);
contours = (
{
points = (
{
segmentType = line;
smooth = 0;
x = 320;
y = 560;
},
{
segmentType = line;
smooth = 0;
x = 480;
y = 520;
},
{
segmentType = line;
smooth = 0;
x = 540;
y = 440;
},
{
segmentType = line;
smooth = 0;
x = 540;
y = 120;
},
{
segmentType = line;
smooth = 0;
x = 600;
y = 160;
},
{
segmentType = line;
smooth = 0;
x = 600;
y = 80;
},
{
segmentType = line;
smooth = 0;
x = 520;
y = 0;
},
{
segmentType = line;
smooth = 0;
x = 480;
y = 0;
},
{
segmentType = line;
smooth = 0;
x = 440;
y = 80;
},
{
segmentType = line;
smooth = 0;
x = 320;
y = 0;
},
{
segmentType = line;
smooth = 0;
x = 240;
y = 0;
},
{
segmentType = line;
smooth = 0;
x = 140;
y = 40;
},
{
segmentType = line;
smooth = 0;
x = 60;
y = 160;
},
{
segmentType = line;
smooth = 0;
x = 100;
y = 280;
},
{
segmentType = line;
smooth = 0;
x = 160;
y = 320;
},
{
segmentType = line;
smooth = 0;
x = 380;
y = 360;
},
{
segmentType = line;
smooth = 0;
x = 380;
y = 440;
},
{
segmentType = line;
smooth = 0;
x = 360;
y = 480;
},
{
segmentType = line;
smooth = 0;
x = 260;
y = 480;
},
{
segmentType = line;
smooth = 0;
x = 200;
y = 380;
},
{
segmentType = line;
smooth = 0;
x = 120;
y = 480;
}
);
},
{
points = (
{
segmentType = line;
smooth = 0;
x = 380;
y = 300;
},
{
segmentType = line;
smooth = 0;
x = 240;
y = 220;
},
{
segmentType = line;
smooth = 0;
x = 220;
y = 160;
},
{
segmentType = line;
smooth = 0;
x = 280;
y = 60;
},
{
segmentType = line;
smooth = 0;
x = 360;
y = 100;
},
{
segmentType = line;
smooth = 0;
x = 380;
y = 160;
}
);
}
);
lib = {
};
name = a;
unicodes = (
);
width = 680;
};
regular = {
anchors = (
);
components = (
);
contours = (
{
points = (
{
segmentType = line;
smooth = 0;
x = 280;
y = 560;
},
{
segmentType = line;
smooth = 0;
x = 440;
y = 520;
},
{
segmentType = line;
smooth = 0;
x = 480;
y = 440;
},
{
segmentType = line;
smooth = 0;
x = 480;
y = 80;
},
{
segmentType = line;
smooth = 0;
x = 560;
y = 120;
},
{
segmentType = line;
smooth = 0;
x = 560;
y = 80;
},
{
segmentType = line;
smooth = 0;
x = 480;
y = 0;
},
{
segmentType = line;
smooth = 0;
x = 440;
y = 0;
},
{
segmentType = line;
smooth = 0;
x = 400;
y = 80;
},
{
segmentType = line;
smooth = 0;
x = 280;
y = 0;
},
{
segmentType = line;
smooth = 0;
x = 200;
y = 0;
},
{
segmentType = line;
smooth = 0;
x = 120;
y = 40;
},
{
segmentType = line;
smooth = 0;
x = 40;
y = 160;
},
{
segmentType = line;
smooth = 0;
x = 80;
y = 280;
},
{
segmentType = line;
smooth = 0;
x = 160;
y = 320;
},
{
segmentType = line;
smooth = 0;
x = 360;
y = 360;
},
{
segmentType = line;
smooth = 0;
x = 360;
y = 440;
},
{
segmentType = line;
smooth = 0;
x = 320;
y = 480;
},
{
segmentType = line;
smooth = 0;
x = 240;
y = 480;
},
{
segmentType = line;
smooth = 0;
x = 200;
y = 400;
},
{
segmentType = line;
smooth = 0;
x = 120;
y = 480;
}
);
},
{
points = (
{
segmentType = line;
smooth = 0;
x = 360;
y = 320;
},
{
segmentType = line;
smooth = 0;
x = 200;
y = 240;
},
{
segmentType = line;
smooth = 0;
x = 160;
y = 160;
},
{
segmentType = line;
smooth = 0;
x = 240;
y = 40;
},
{
segmentType = line;
smooth = 0;
x = 320;
y = 80;
},
{
segmentType = line;
smooth = 0;
x = 360;
y = 160;
}
);
}
);
lib = {
};
name = a;
unicodes = (
);
width = 680;
};
};
com.typemytype.robofont.mark = (
0.001,
0.822,
0.283,
1
);
};
width = 680;
},
{
anchors = (
{
name = bottom;
pos = (80,0);
},
{
name = right;
pos = (520,0);
},
{
name = top;
pos = (480,560);
}
);
layerId = "C256A14B-F4BB-4E0C-9412-298CC44D4DAA";
shapes = (
{
closed = 1;
nodes = (
(240,0,l),
(360,120,l),
(360,40,l),
(400,0,l),
(520,40,l),
(720,240,l),
(680,280,l),
(480,80,l),
(440,80,l),
(640,520,l),
(600,560,l),
(520,440,l),
(480,520,l),
(320,560,l),
(120,400,l),
(40,200,l),
(80,40,l),
(160,0,l)
);
},
{
closed = 1;
nodes = (
(160,200,l),
(240,360,l),
(360,480,l),
(440,480,l),
(480,400,l),
(480,360,l),
(360,200,l),
(240,80,l),
(200,80,l)
);
}
);
userData = {
com.typemytype.robofont.mark = (
0.001,
0.822,
0.283,
1
);
};
width = 720;
},
{
anchors = (
{
name = bottom;
pos = (260,0);
},
{
name = right;
pos = (480,0);
},
{
name = top;
pos = (280,560);
}
);
layerId = master01;
shapes = (
{
closed = 1;
nodes = (
(260,0,l),
(380,80,l),
(420,0,l),
(460,0,l),
(540,80,l),
(540,120,l),
(480,90,l),
(460,80,l),
(460,440,l),
(420,520,l),
(260,560,l),
(100,480,l),
(180,400,l),
(220,480,l),
(300,480,l),
(340,440,l),
(340,360,l),
(140,320,l),
(60,280,l),
(20,160,l),
(100,40,l),
(180,0,l)
);
},
{
closed = 1;
nodes = (
(140,160,l),
(180,240,l),
(340,320,l),
(340,160,l),
(300,80,l),
(220,40,l)
);
}
);
width = 540;
}
);
unicode = 97;
},
{
glyphname = aacute;
lastChange = "2021-04-23 17:31:27 +0000";
layers = (
{
layerId = "EBA0A543-5703-488C-9449-531557917997";
shapes = (
{
alignment = -1;
ref = a;
},
{
alignment = -1;
ref = acute;
}
);
userData = {
com.schriftgestaltung.Glyphs.lastChange = "2020-08-21 16:34:47 +0000";
com.typemytype.robofont.mark = (
0.374,
0.974,
0.983,
1
);
};
width = 680;
},
{
layerId = "C256A14B-F4BB-4E0C-9412-298CC44D4DAA";
shapes = (
{
ref = a;
},
{
pos = (160,0);
ref = acute;
}
);
userData = {
com.typemytype.robofont.mark = (
0.374,
0.974,
0.983,
1
);
};
width = 720;
},
{
layerId = master01;
shapes = (
{
closed = 1;
nodes = (
(240,640,l),
(440,720,l),
(440,760,l),
(400,800,l),
(360,800,l),
(200,640,l)
);
},
{
pos = (20,0);
ref = a;
}
);
width = 600;
}
);
unicode = 225;
},
{
glyphname = agrave;
lastChange = "2021-04-23 17:31:27 +0000";
layers = (
{
layerId = "EBA0A543-5703-488C-9449-531557917997";
shapes = (
{
ref = a;
},
{
pos = (40,0);
ref = grave;
}
);
userData = {
com.typemytype.robofont.mark = (
0.374,
0.974,
0.983,
1
);
};
width = 680;
},
{
layerId = "C256A14B-F4BB-4E0C-9412-298CC44D4DAA";
shapes = (
{
alignment = -1;
ref = a;
},
{
alignment = -1;
pos = (160,0);
ref = grave;
}
);
userData = {
com.schriftgestaltung.Glyphs.lastChange = "2020-08-21 12:25:57 +0000";
com.typemytype.robofont.mark = (
0.374,
0.974,
0.983,
1
);
};
width = 720;
},
{
layerId = master01;
shapes = (
{
closed = 1;
nodes = (
(400,640,l),
(240,800,l),
(200,800,l),
(160,760,l),
(160,720,l),
(360,640,l)
);
},
{
pos = (20,0);
ref = a;
}
);
width = 600;
}
);
unicode = 224;
},
{
glyphname = ae;
lastChange = "2021-04-23 17:31:27 +0000";
layers = (
{
layerId = "EBA0A543-5703-488C-9449-531557917997";
shapes = (
{
closed = 1;
nodes = (
(240,0,l),
(200,0,l),
(80,40,l),
(0,160,l),
(40,280,l),
(120,320,l),
(320,360,l),
(320,440,l),
(240,480,l),
(160,480,l),
(80,400,l),
(40,520,l),
(240,600,l),
(440,560,l),
(480,480,l),
(520,560,l),
(600,600,l),
(720,600,l),
(840,560,l),
(880,440,l),
(800,320,l),
(520,280,l),
(520,240,l),
(600,120,l),
(680,80,l),
(760,120,l),
(840,200,l),
(880,160,l),
(760,40,l),
(680,0,l),
(600,0,l),
(480,40,l),
(400,120,l),
(320,40,l)
);
},
{
closed = 1;
nodes = (
(240,240,l),
(200,160,l),
(240,80,l),
(280,80,l),
(320,160,l),
(320,320,l)
);
},
{
closed = 1;
nodes = (
(560,480,l),
(520,320,l),
(720,400,l),
(720,480,l),
(640,520,l)
);
}
);
userData = {
com.typemytype.robofont.layerData = {
background = {
anchors = (
{
name = top;
x = 280;
y = 600;
},
{
name = bottom;
x = 280;
y = 0;
},
{
name = right;
x = 560;
y = 0;
},
{
name = top;
x = 600;
y = 600;
},
{
name = bottom;
x = 600;
y = 0;
},
{
name = right;
x = 840;
y = 0;
}
);
components = (
);
contours = (
{
points = (
{
segmentType = line;
smooth = 0;
x = 240;
y = 600;
},
{
segmentType = line;
smooth = 0;
x = 440;
y = 560;
},
{
segmentType = line;
smooth = 0;
x = 520;
y = 480;
},
{
segmentType = line;
smooth = 0;
x = 520;
y = 160;
},
{
segmentType = line;
smooth = 0;
x = 560;
y = 160;
},
{
segmentType = line;
smooth = 0;
x = 640;
y = 200;
},
{
segmentType = line;
smooth = 0;
x = 640;
y = 120;
},
{
segmentType = line;
smooth = 0;
x = 480;
y = 0;
},
{
segmentType = line;
smooth = 0;
x = 440;
y = 0;
},
{
segmentType = line;
smooth = 0;
x = 400;
y = 80;
},
{
segmentType = line;
smooth = 0;
x = 280;
y = 0;
},
{
segmentType = line;
smooth = 0;
x = 160;
y = 0;
},
{
segmentType = line;
smooth = 0;
x = 40;
y = 40;
},
{
segmentType = line;
smooth = 0;
x = -40;
y = 160;
},
{
segmentType = line;
smooth = 0;
x = 0;
y = 280;
},
{
segmentType = line;
smooth = 0;
x = 80;
y = 320;
},
{
segmentType = line;
smooth = 0;
x = 320;
y = 360;
},
{
segmentType = line;
smooth = 0;
x = 320;
y = 440;
},
{
segmentType = line;
smooth = 0;
x = 240;
y = 480;
},
{
segmentType = line;
smooth = 0;
x = 160;
y = 480;
},
{
segmentType = line;
smooth = 0;
x = 80;
y = 400;
},
{
segmentType = line;
smooth = 0;
x = 40;
y = 520;
}
);
},
{
points = (
{
segmentType = line;
smooth = 0;
x = 320;
y = 320;
},
{
segmentType = line;
smooth = 0;
x = 200;
y = 240;
},
{
segmentType = line;
smooth = 0;
x = 160;
y = 160;
},
{
segmentType = line;
smooth = 0;
x = 200;
y = 80;
},
{
segmentType = line;
smooth = 0;
x = 280;
y = 80;
},
{
segmentType = line;
smooth = 0;
x = 320;
y = 160;
}
);
},
{
points = (
{
segmentType = line;
smooth = 0;
x = 560;
y = 600;
},
{
segmentType = line;
smooth = 0;
x = 720;
y = 600;
},
{
segmentType = line;
smooth = 0;
x = 840;
y = 560;
},
{
segmentType = line;
smooth = 0;
x = 880;
y = 440;
},
{
segmentType = line;
smooth = 0;
x = 800;
y = 320;
},
{
segmentType = line;
smooth = 0;
x = 520;
y = 280;
},
{
segmentType = line;
smooth = 0;
x = 520;
y = 240;
},
{
segmentType = line;
smooth = 0;
x = 600;
y = 120;
},
{
segmentType = line;
smooth = 0;
x = 680;
y = 80;
},
{
segmentType = line;
smooth = 0;
x = 760;
y = 120;
},
{
segmentType = line;
smooth = 0;
x = 880;
y = 240;
},
{
segmentType = line;
smooth = 0;
x = 920;
y = 200;
},
{
segmentType = line;
smooth = 0;
x = 800;
y = 40;
},
{
segmentType = line;
smooth = 0;
x = 720;
y = 0;
},
{
segmentType = line;
smooth = 0;
x = 600;
y = 0;
},
{
segmentType = line;
smooth = 0;
x = 440;
y = 40;
},
{
segmentType = line;
smooth = 0;
x = 320;
y = 200;
},
{
segmentType = line;
smooth = 0;
x = 320;
y = 400;
},
{
segmentType = line;
smooth = 0;
x = 440;
y = 560;
}
);
},
{
points = (
{
segmentType = line;
smooth = 0;
x = 640;
y = 520;
},
{
segmentType = line;
smooth = 0;
x = 560;
y = 480;
},
{
segmentType = line;
smooth = 0;
x = 520;
y = 320;
},
{
segmentType = line;
smooth = 0;
x = 720;
y = 400;
},
{
segmentType = line;
smooth = 0;
x = 720;
y = 480;
}
);
}
);
lib = {
com.typemytype.robofont.layerData = {
background = {
anchors = (
);
components = (
);
contours = (
{
points = (
{
segmentType = line;
smooth = 0;
x = 440;
y = 480;
},
{
segmentType = line;
smooth = 0;
x = 360;
y = 520;
},
{
segmentType = line;
smooth = 0;
x = 280;
y = 480;
},
{
segmentType = line;
smooth = 0;
x = 240;
y = 360;
},
{
segmentType = line;
smooth = 0;
x = 240;
y = 240;
},
{
segmentType = line;
smooth = 0;
x = 320;
y = 120;
},
{
segmentType = line;
smooth = 0;
x = 400;
y = 80;
},
{
segmentType = line;
smooth = 0;
x = 480;
y = 120;
},
{
segmentType = line;
smooth = 0;
x = 560;
y = 240;
},
{
segmentType = line;
smooth = 0;
x = 640;
y = 200;
},
{
segmentType = line;
smooth = 0;
x = 520;
y = 40;
},
{
segmentType = line;
smooth = 0;
x = 440;
y = 0;
},
{
segmentType = line;
smooth = 0;
x = 320;
y = 0;
},
{
segmentType = line;
smooth = 0;
x = 160;
y = 40;
},
{
segmentType = line;
smooth = 0;
x = 40;
y = 200;
},
{
segmentType = line;
smooth = 0;
x = 40;
y = 400;
},
{
segmentType = line;
smooth = 0;
x = 160;
y = 560;
},
{
segmentType = line;
smooth = 0;
x = 320;
y = 600;
},
{
segmentType = line;
smooth = 0;
x = 440;
y = 600;
},
{
segmentType = line;
smooth = 0;
x = 560;
y = 560;
},
{
segmentType = line;
smooth = 0;
x = 600;
y = 440;
},
{
segmentType = line;
smooth = 0;
x = 520;
y = 360;
},
{
segmentType = line;
smooth = 0;
x = 440;
y = 360;
}
);
}
);
lib = {
};
name = e;
unicodes = (
);
width = 640;
};
regular = {
anchors = (
);
components = (
);
contours = (
{
points = (
{
segmentType = line;
smooth = 0;
x = 240;
y = 560;
},
{
segmentType = line;
smooth = 0;
x = 320;
y = 560;
},
{
segmentType = line;
smooth = 0;
x = 440;
y = 520;
},
{
segmentType = line;
smooth = 0;
x = 520;
y = 400;
},
{
segmentType = line;
smooth = 0;
x = 480;
y = 320;
},
{
segmentType = line;
smooth = 0;
x = 160;
y = 240;
},
{
segmentType = line;
smooth = 0;
x = 200;
y = 80;
},
{
segmentType = line;
smooth = 0;
x = 320;
y = 40;
},
{
segmentType = line;
smooth = 0;
x = 400;
y = 80;
},
{
segmentType = line;
smooth = 0;
x = 480;
y = 160;
},
{
segmentType = line;
smooth = 0;
x = 520;
y = 120;
},
{
segmentType = line;
smooth = 0;
x = 440;
y = 40;
},
{
segmentType = line;
smooth = 0;
x = 360;
y = 0;
},
{
segmentType = line;
smooth = 0;
x = 240;
y = 0;
},
{
segmentType = line;
smooth = 0;
x = 120;
y = 40;
},
{
segmentType = line;
smooth = 0;
x = 40;
y = 200;
},
{
segmentType = line;
smooth = 0;
x = 40;
y = 360;
},
{
segmentType = line;
smooth = 0;
x = 120;
y = 520;
}
);
},
{
points = (
{
segmentType = line;
smooth = 0;
x = 280;
y = 520;
},
{
segmentType = line;
smooth = 0;
x = 200;
y = 480;
},
{
segmentType = line;
smooth = 0;
x = 160;
y = 280;
},
{
segmentType = line;
smooth = 0;
x = 360;
y = 360;
},
{
segmentType = line;
smooth = 0;
x = 360;
y = 480;
}
);
}
);
lib = {
};
name = e;
unicodes = (
);
width = 640;
};
};
};
name = ae;
unicodes = (
);
width = 880;
};
regular = {
anchors = (
);
components = (
);
contours = (
{
points = (
{
segmentType = line;
smooth = 0;
x = 440;
y = 520;
},
{
segmentType = line;
smooth = 0;
x = 520;
y = 560;
},
{
segmentType = line;
smooth = 0;
x = 600;
y = 560;
},
{
segmentType = line;
smooth = 0;
x = 720;
y = 520;
},
{
segmentType = line;
smooth = 0;
x = 800;
y = 400;
},
{
segmentType = line;
smooth = 0;
x = 760;
y = 320;
},
{
segmentType = line;
smooth = 0;
x = 440;
y = 280;
},
{
segmentType = line;
smooth = 0;
x = 480;
y = 120;
},
{
segmentType = line;
smooth = 0;
x = 560;
y = 40;
},
{
segmentType = line;
smooth = 0;
x = 640;
y = 80;
},
{
segmentType = line;
smooth = 0;
x = 680;
y = 160;
},
{
segmentType = line;
smooth = 0;
x = 760;
y = 80;
},
{
segmentType = line;
smooth = 0;
x = 720;
y = 40;
},
{
segmentType = line;
smooth = 0;
x = 600;
y = 0;
},
{
segmentType = line;
smooth = 0;
x = 520;
y = 0;
},
{
segmentType = line;
smooth = 0;
x = 440;
y = 40;
},
{
segmentType = line;
smooth = 0;
x = 400;
y = 120;
},
{
segmentType = line;
smooth = 0;
x = 360;
y = 40;
},
{
segmentType = line;
smooth = 0;
x = 280;
y = 0;
},
{
segmentType = line;
smooth = 0;
x = 160;
y = 0;
},
{
segmentType = line;
smooth = 0;
x = 80;
y = 40;
},
{
segmentType = line;
smooth = 0;
x = 0;
y = 160;
},
{
segmentType = line;
smooth = 0;
x = 40;
y = 280;
},
{
segmentType = line;
smooth = 0;
x = 120;
y = 320;
},
{
segmentType = line;
smooth = 0;
x = 360;
y = 320;
},
{
segmentType = line;
smooth = 0;
x = 320;
y = 440;
},
{
segmentType = line;
smooth = 0;
x = 240;
y = 520;
},
{
segmentType = line;
smooth = 0;
x = 160;
y = 480;
},
{
segmentType = line;
smooth = 0;
x = 120;
y = 400;
},
{
segmentType = line;
smooth = 0;
x = 40;
y = 480;
},
{
segmentType = line;
smooth = 0;
x = 80;
y = 520;
},
{
segmentType = line;
smooth = 0;
x = 200;
y = 560;
},
{
segmentType = line;
smooth = 0;
x = 280;
y = 560;
},
{
segmentType = line;
smooth = 0;
x = 360;
y = 520;
},
{
segmentType = line;
smooth = 0;
x = 400;
y = 440;
}
);
},
{
points = (
{
segmentType = line;
smooth = 0;
x = 360;
y = 280;
},
{
segmentType = line;
smooth = 0;
x = 160;
y = 240;
},
{
segmentType = line;
smooth = 0;
x = 120;
y = 160;
},
{
segmentType = line;
smooth = 0;
x = 160;
y = 80;
},
{
segmentType = line;
smooth = 0;
x = 240;
y = 80;
},
{
segmentType = line;
smooth = 0;
x = 320;
y = 120;
}
);
},
{
points = (
{
segmentType = line;
smooth = 0;
x = 560;
y = 520;
},
{
segmentType = line;
smooth = 0;
x = 480;
y = 440;
},
{
segmentType = line;
smooth = 0;
x = 440;
y = 320;
},
{
segmentType = line;
smooth = 0;
x = 640;
y = 360;
},
{
segmentType = line;
smooth = 0;
x = 640;
y = 480;
}
);
}
);
lib = {
};
name = ae;
unicodes = (
);
width = 880;
};
};
com.typemytype.robofont.mark = (
0.001,
0.822,
0.283,
1
);
};
width = 880;
},
{
anchors = (
{
name = top;
pos = (760,560);
}
);
layerId = "C256A14B-F4BB-4E0C-9412-298CC44D4DAA";
shapes = (
{
closed = 1;
nodes = (
(920,440,l),
(880,520,l),
(720,560,l),
(560,440,l),
(520,440,l),
(480,520,l),
(320,560,l),
(120,400,l),
(40,200,l),
(80,40,l),
(160,0,l),
(240,0,l),
(400,160,l),
(360,0,l),
(400,0,l),
(440,120,l),
(520,0,l),
(600,0,l),
(680,40,l),
(840,200,l),
(800,240,l),
(640,80,l),
(560,80,l),
(520,200,l),
(600,360,l),
(720,480,l),
(800,480,l),
(800,360,l),
(720,320,l),
(600,320,l),
(600,280,l),
(800,280,l),
(920,360,l)
);
},
{
closed = 1;
nodes = (
(200,80,l),
(160,200,l),
(240,360,l),
(360,480,l),
(440,480,l),
(480,400,l),
(480,360,l),
(360,200,l),
(240,80,l)
);
}
);
userData = {
com.typemytype.robofont.mark = (
0.374,
0.974,
0.983,
1
);
};
width = 920;
},
{
layerId = master01;
shapes = (
{
closed = 1;
nodes = (
(320,0,l),
(400,40,l),
(440,120,l),
(480,40,l),
(560,0,l),
(640,0,l),
(760,40,l),
(800,80,l),
(720,160,l),
(680,80,l),
(600,40,l),
(520,120,l),
(480,280,l),
(800,320,l),
(840,400,l),
(760,520,l),
(640,560,l),
(560,560,l),
(480,520,l),
(440,440,l),
(400,520,l),
(320,560,l),
(240,560,l),
(120,520,l),
(80,480,l),
(160,400,l),
(200,480,l),
(280,520,l),
(360,440,l),
(400,320,l),
(160,320,l),
(80,280,l),
(40,160,l),
(120,40,l),
(200,0,l)
);
},
{
closed = 1;
nodes = (
(160,160,l),
(200,240,l),
(400,280,l),
(360,120,l),
(280,80,l),
(200,80,l)
);
},
{
closed = 1;
nodes = (
(520,440,l),
(600,520,l),
(680,480,l),
(680,360,l),
(480,320,l)
);
}
);
width = 840;
}
);
unicode = 230;
},
{
glyphname = b;
lastChange = "2021-04-23 22:20:22 +0000";
layers = (
{
layerId = "EBA0A543-5703-488C-9449-531557917997";
shapes = (
{
closed = 1;
nodes = (
(240,80,l),
(280,80,l),
(288,72,l),
(360,0,l),
(440,0,l),
(560,40,l),
(680,200,l),
(680,400,l),
(560,560,l),
(440,600,l),
(360,560,l),
(280,480,l),
(280,840,l),
(0,760,l),
(40,720,l),
(80,680,l),
(80,400,l),
(80,160,l),
(0,80,l),
(120,-40,l)
);
},
{
closed = 1;
nodes = (
(280,200,l),
(280,400,l),
(360,440,l),
(400,440,l),
(480,360,l),
(480,280,l),
(480,200,l),
(400,120,l),
(320,120,l)
);
}
);
userData = {
com.typemytype.robofont.layerData = {
background = {
anchors = (
);
components = (
);
contours = (
{
points = (
{
segmentType = line;
smooth = 0;
x = 400;
y = 600;
},
{
segmentType = line;
smooth = 0;
x = 560;
y = 560;
},
{
segmentType = line;
smooth = 0;
x = 680;
y = 400;
},
{
segmentType = line;
smooth = 0;
x = 680;
y = 200;
},
{
segmentType = line;
smooth = 0;
x = 560;
y = 40;
},
{
segmentType = line;
smooth = 0;
x = 440;
y = 0;
},
{
segmentType = line;
smooth = 0;
x = 360;
y = 0;
},
{
segmentType = line;
smooth = 0;
x = 280;
y = 80;
},
{
segmentType = line;
smooth = 0;
x = 280;
y = -240;
},
{
segmentType = line;
smooth = 0;
x = 360;
y = -320;
},
{
segmentType = line;
smooth = 0;
x = 0;
y = -320;
},
{
segmentType = line;
smooth = 0;
x = 80;
y = -240;
},
{
segmentType = line;
smooth = 0;
x = 80;
y = 440;
},
{
segmentType = line;
smooth = 0;
x = 0;
y = 520;
},
{
segmentType = line;
smooth = 0;
x = 280;
y = 600;
},
{
segmentType = line;
smooth = 0;
x = 200;
y = 440;
},
{
segmentType = line;
smooth = 0;
x = 240;
y = 440;
},
{
segmentType = line;
smooth = 0;
x = 320;
y = 560;
}
);
},
{
points = (
{
segmentType = line;
smooth = 0;
x = 360;
y = 440;
},
{
segmentType = line;
smooth = 0;
x = 280;
y = 400;
},
{
segmentType = line;
smooth = 0;
x = 280;
y = 200;
},
{
segmentType = line;
smooth = 0;
x = 320;
y = 120;
},
{
segmentType = line;
smooth = 0;
x = 400;
y = 120;
},
{
segmentType = line;
smooth = 0;
x = 480;
y = 200;
},
{
segmentType = line;
smooth = 0;
x = 480;
y = 360;
},
{
segmentType = line;
smooth = 0;
x = 400;
y = 440;
}
);
}
);
lib = {
com.typemytype.robofont.layerData = {
background = {
anchors = (
{
name = top;
x = 400;
y = 600;
},
{
name = bottom;
x = 400;
y = 0;
}
);
components = (
);
contours = (
{
points = (
{
segmentType = line;
smooth = 0;
x = 0;
y = 0;
},
{
segmentType = line;
smooth = 0;
x = 80;
y = 80;
},
{
segmentType = line;
smooth = 0;
x = 80;
y = 440;
},
{
segmentType = line;
smooth = 0;
x = 0;
y = 520;
},
{
segmentType = line;
smooth = 0;
x = 280;
y = 600;
},
{
segmentType = line;
smooth = 0;
x = 200;
y = 440;
},
{
segmentType = line;
smooth = 0;
x = 240;
y = 440;
},
{
segmentType = line;
smooth = 0;
x = 320;
y = 560;
},
{
segmentType = line;
smooth = 0;
x = 400;
y = 600;
},
{
segmentType = line;
smooth = 0;
x = 560;
y = 560;
},
{
segmentType = line;
smooth = 0;
x = 640;
y = 480;
},
{
segmentType = line;
smooth = 0;
x = 640;
y = 80;
},
{
segmentType = line;
smooth = 0;
x = 720;
y = 0;
},
{
segmentType = line;
smooth = 0;
x = 400;
y = 0;
},
{
segmentType = line;
smooth = 0;
x = 440;
y = 80;
},
{
segmentType = line;
smooth = 0;
x = 440;
y = 400;
},
{
segmentType = line;
smooth = 0;
x = 400;
y = 440;
},
{
segmentType = line;
smooth = 0;
x = 360;
y = 440;
},
{
segmentType = line;
smooth = 0;
x = 280;
y = 400;
},
{
segmentType = line;
smooth = 0;
x = 280;
y = 80;
},
{
segmentType = line;
smooth = 0;
x = 320;
y = 0;
}
);
}
);
lib = {
com.typemytype.robofont.layerData = {
background = {
anchors = (
);
components = (
);
contours = (
);
lib = {
};
name = n;
unicodes = (
);
width = 800;
};
regular = {
anchors = (
);
components = (
);
contours = (
{
points = (
{
segmentType = line;
smooth = 0;
x = 100;
y = 0;
},
{
segmentType = line;
smooth = 0;
x = 180;
y = 80;
},
{
segmentType = line;
smooth = 0;
x = 180;
y = 440;
},
{
segmentType = line;
smooth = 0;
x = 100;
y = 480;
},
{
segmentType = line;
smooth = 0;
x = 300;
y = 560;
},
{
segmentType = line;
smooth = 0;
x = 260;
y = 400;
},
{
segmentType = line;
smooth = 0;
x = 380;
y = 520;
},
{
segmentType = line;
smooth = 0;
x = 460;
y = 560;
},
{
segmentType = line;
smooth = 0;
x = 620;
y = 520;
},
{
segmentType = line;
smooth = 0;
x = 660;
y = 440;
},
{
segmentType = line;
smooth = 0;
x = 660;
y = 80;
},
{
segmentType = line;
smooth = 0;
x = 740;
y = 0;
},
{
segmentType = line;
smooth = 0;
x = 460;
y = 0;
},
{
segmentType = line;
smooth = 0;
x = 540;
y = 80;
},
{
segmentType = line;
smooth = 0;
x = 540;
y = 440;
},
{
segmentType = line;
smooth = 0;
x = 500;
y = 480;
},
{
segmentType = line;
smooth = 0;
x = 420;
y = 480;
},
{
segmentType = line;
smooth = 0;
x = 300;
y = 360;
},
{
segmentType = line;
smooth = 0;
x = 300;
y = 80;
},
{
segmentType = line;
smooth = 0;
x = 380;
y = 0;
}
);
}
);
lib = {
};
name = n;
unicodes = (
);
width = 800;
};
};
};
name = p;
unicodes = (
);
width = 720;
};
regular = {
anchors = (
);
components = (
);
contours = (
{
points = (
{
segmentType = line;
smooth = 0;
x = 380;
y = 560;
},
{
segmentType = line;
smooth = 0;
x = 500;
y = 520;
},
{
segmentType = line;
smooth = 0;
x = 580;
y = 360;
},
{
segmentType = line;
smooth = 0;
x = 580;
y = 200;
},
{
segmentType = line;
smooth = 0;
x = 500;
y = 40;
},
{
segmentType = line;
smooth = 0;
x = 380;
y = 0;
},
{
segmentType = line;
smooth = 0;
x = 300;
y = 0;
},
{
segmentType = line;
smooth = 0;
x = 220;
y = 40;
},
{
segmentType = line;
smooth = 0;
x = 220;
y = -240;
},
{
segmentType = line;
smooth = 0;
x = 300;
y = -320;
},
{
segmentType = line;
smooth = 0;
x = 20;
y = -320;
},
{
segmentType = line;
smooth = 0;
x = 100;
y = -240;
},
{
segmentType = line;
smooth = 0;
x = 100;
y = 440;
},
{
segmentType = line;
smooth = 0;
x = 20;
y = 480;
},
{
segmentType = line;
smooth = 0;
x = 220;
y = 560;
},
{
segmentType = line;
smooth = 0;
x = 180;
y = 400;
},
{
segmentType = line;
smooth = 0;
x = 300;
y = 520;
}
);
},
{
points = (
{
segmentType = line;
smooth = 0;
x = 340;
y = 480;
},
{
segmentType = line;
smooth = 0;
x = 220;
y = 360;
},
{
segmentType = line;
smooth = 0;
x = 220;
y = 160;
},
{
segmentType = line;
smooth = 0;
x = 260;
y = 80;
},
{
segmentType = line;
smooth = 0;
x = 340;
y = 40;
},
{
segmentType = line;
smooth = 0;
x = 420;
y = 80;
},
{
segmentType = line;
smooth = 0;
x = 460;
y = 280;
},
{
segmentType = line;
smooth = 0;
x = 420;
y = 480;
}
);
}
);
lib = {
};
name = p;
unicodes = (
);
width = 720;
};
};
};
name = b;
unicodes = (
);
width = 720;
};
regular = {
anchors = (
);
components = (
);
contours = (
{
points = (
{
segmentType = line;
smooth = 0;
x = 160;
y = 720;
},
{
segmentType = line;
smooth = 0;
x = 80;
y = 760;
},
{
segmentType = line;
smooth = 0;
x = 280;
y = 840;
},
{
segmentType = line;
smooth = 0;
x = 280;
y = 520;
},
{
segmentType = line;
smooth = 0;
x = 360;
y = 560;
},
{
segmentType = line;
smooth = 0;
x = 440;
y = 560;
},
{
segmentType = line;
smooth = 0;
x = 560;
y = 520;
},
{
segmentType = line;
smooth = 0;
x = 640;
y = 360;
},
{
segmentType = line;
smooth = 0;
x = 640;
y = 200;
},
{
segmentType = line;
smooth = 0;
x = 560;
y = 40;
},
{
segmentType = line;
smooth = 0;
x = 440;
y = 0;
},
{
segmentType = line;
smooth = 0;
x = 360;
y = 0;
},
{
segmentType = line;
smooth = 0;
x = 280;
y = 40;
},
{
segmentType = line;
smooth = 0;
x = 240;
y = 80;
},
{
segmentType = line;
smooth = 0;
x = 200;
y = 0;
},
{
segmentType = line;
smooth = 0;
x = 80;
y = 80;
},
{
segmentType = line;
smooth = 0;
x = 160;
y = 120;
}
);
},
{
points = (
{
segmentType = line;
smooth = 0;
x = 400;
y = 520;
},
{
segmentType = line;
smooth = 0;
x = 320;
y = 480;
},
{
segmentType = line;
smooth = 0;
x = 280;
y = 400;
},
{
segmentType = line;
smooth = 0;
x = 280;
y = 160;
},
{
segmentType = line;
smooth = 0;
x = 320;
y = 80;
},
{
segmentType = line;
smooth = 0;
x = 400;
y = 40;
},
{
segmentType = line;
smooth = 0;
x = 480;
y = 80;
},
{
segmentType = line;
smooth = 0;
x = 520;
y = 280;
},
{
segmentType = line;
smooth = 0;
x = 480;
y = 480;
}
);
}
);
lib = {
};
name = b;
unicodes = (
);
width = 720;
};
};
com.typemytype.robofont.mark = (
0.001,
0.822,
0.283,
1
);
};
width = 720;
},
{
layerId = "C256A14B-F4BB-4E0C-9412-298CC44D4DAA";
shapes = (
{
closed = 1;
nodes = (
(78,77,l),
(80,80,l),
(120,40,l),
(160,0,l),
(240,0,l),
(320,0,l),
(520,160,l),
(600,360,l),
(560,520,l),
(480,560,l),
(360,520,l),
(280,440,l),
(480,840,l),
(200,840,l),
(200,800,l),
(320,800,l),
(160,400,l),
(40,160,l),
(-40,0,l),
(0,-40,l)
);
},
{
closed = 1;
nodes = (
(120,160,l),
(240,320,l),
(360,440,l),
(440,480,l),
(480,360,l),
(400,200,l),
(240,80,l),
(160,80,l),
(120,120,l)
);
}
);
userData = {
com.typemytype.robofont.mark = (
0.001,
0.822,
0.283,
1
);
};
width = 640;
},
{
layerId = master01;
shapes = (
{
closed = 1;
nodes = (
(199,78,l),
(200,80,l),
(240,40,l),
(320,0,l),
(400,0,l),
(520,40,l),
(600,200,l),
(600,360,l),
(520,520,l),
(400,560,l),
(320,560,l),
(240,520,l),
(240,840,l),
(40,760,l),
(80,740,l),
(120,720,l),
(120,400,l),
(120,120,l),
(40,80,l),
(160,0,l)
);
},
{
closed = 1;
nodes = (
(240,160,l),
(240,400,l),
(280,480,l),
(360,520,l),
(440,480,l),
(480,280,l),
(440,80,l),
(360,40,l),
(280,80,l)
);
}
);
width = 640;
}
);
unicode = 98;
},
{
glyphname = c;
lastChange = "2021-04-23 21:01:59 +0000";
layers = (
{
anchors = (
{
name = bottom;
pos = (360,0);
},
{
name = top;
pos = (320,600);
}
);
layerId = "EBA0A543-5703-488C-9449-531557917997";
shapes = (
{
closed = 1;
nodes = (
(440,0,l),
(520,40,l),
(640,200,l),
(560,240,l),
(480,120,l),
(400,80,l),
(320,120,l),
(240,240,l),
(240,360,l),
(280,480,l),
(360,520,l),
(440,480,l),
(440,360,l),
(520,360,l),
(600,440,l),
(560,560,l),
(440,600,l),
(320,600,l),
(160,560,l),
(40,400,l),
(40,200,l),
(160,40,l),
(320,0,l)
);
}
);
userData = {
com.typemytype.robofont.layerData = {
background = {
anchors = (
);
components = (
);
contours = (
{
points = (
{
segmentType = line;
smooth = 0;
x = 420;
y = 480;
},
{
segmentType = line;
smooth = 0;
x = 340;
y = 500;
},
{
segmentType = line;
smooth = 0;
x = 280;
y = 460;
},
{
segmentType = line;
smooth = 0;
x = 240;
y = 320;
},
{
segmentType = line;
smooth = 0;
x = 240;
y = 240;
},
{
segmentType = line;
smooth = 0;
x = 280;
y = 100;
},
{
segmentType = line;
smooth = 0;
x = 380;
y = 60;
},
{
segmentType = line;
smooth = 0;
x = 460;
y = 100;
},
{
segmentType = line;
smooth = 0;
x = 500;
y = 180;
},
{
segmentType = line;
smooth = 0;
x = 580;
y = 120;
},
{
segmentType = line;
smooth = 0;
x = 500;
y = 40;
},
{
segmentType = line;
smooth = 0;
x = 420;
y = 0;
},
{
segmentType = line;
smooth = 0;
x = 300;
y = 0;
},
{
segmentType = line;
smooth = 0;
x = 180;
y = 40;
},
{
segmentType = line;
smooth = 0;
x = 80;
y = 200;
},
{
segmentType = line;
smooth = 0;
x = 80;
y = 360;
},
{
segmentType = line;
smooth = 0;
x = 160;
y = 520;
},
{
segmentType = line;
smooth = 0;
x = 300;
y = 560;
},
{
segmentType = line;
smooth = 0;
x = 380;
y = 560;
},
{
segmentType = line;
smooth = 0;
x = 520;
y = 520;
},
{
segmentType = line;
smooth = 0;
x = 560;
y = 440;
},
{
segmentType = line;
smooth = 0;
x = 480;
y = 360;
},
{
segmentType = line;
smooth = 0;
x = 420;
y = 360;
}
);
}
);
lib = {
};
name = c;
unicodes = (
);
width = 640;
};
regular = {
anchors = (
);
components = (
);
contours = (
{
points = (
{
segmentType = line;
smooth = 0;
x = 420;
y = 480;
},
{
segmentType = line;
smooth = 0;
x = 340;
y = 520;
},
{
segmentType = line;
smooth = 0;
x = 260;
y = 480;
},
{
segmentType = line;
smooth = 0;
x = 220;
y = 320;
},
{
segmentType = line;
smooth = 0;
x = 220;
y = 240;
},
{
segmentType = line;
smooth = 0;
x = 260;
y = 80;
},
{
segmentType = line;
smooth = 0;
x = 380;
y = 40;
},
{
segmentType = line;
smooth = 0;
x = 460;
y = 80;
},
{
segmentType = line;
smooth = 0;
x = 500;
y = 160;
},
{
segmentType = line;
smooth = 0;
x = 580;
y = 120;
},
{
segmentType = line;
smooth = 0;
x = 500;
y = 40;
},
{
segmentType = line;
smooth = 0;
x = 420;
y = 0;
},
{
segmentType = line;
smooth = 0;
x = 300;
y = 0;
},
{
segmentType = line;
smooth = 0;
x = 180;
y = 40;
},
{
segmentType = line;
smooth = 0;
x = 100;
y = 200;
},
{
segmentType = line;
smooth = 0;
x = 100;
y = 360;
},
{
segmentType = line;
smooth = 0;
x = 180;
y = 520;
},
{
segmentType = line;
smooth = 0;
x = 300;
y = 560;
},
{
segmentType = line;
smooth = 0;
x = 380;
y = 560;
},
{
segmentType = line;
smooth = 0;
x = 500;
y = 520;
},
{
segmentType = line;
smooth = 0;
x = 540;
y = 440;
},
{
segmentType = line;
smooth = 0;
x = 460;
y = 360;
},
{
segmentType = line;
smooth = 0;
x = 420;
y = 360;
}
);
}
);
lib = {
};
name = c;
unicodes = (
);
width = 640;
};
};
com.typemytype.robofont.mark = (
0.001,
0.822,
0.283,
1
);
};
width = 640;
},
{
anchors = (
{
name = bottom;
pos = (210,0);
},
{
name = top;
pos = (359,557);
}
);
layerId = "C256A14B-F4BB-4E0C-9412-298CC44D4DAA";
shapes = (
{
closed = 1;
nodes = (
(240,0,l),
(320,40,l),
(480,200,l),
(440,240,l),
(320,120,l),
(280,80,l),
(200,80,l),
(160,200,l),
(240,360,l),
(360,480,l),
(400,480,l),
(440,480,l),
(440,360,l),
(560,360,l),
(560,400,l),
(560,440,l),
(520,520,l),
(360,560,l),
(260,500,l),
(160,440,l),
(40,200,l),
(80,40,l),
(160,0,l)
);
}
);
userData = {
com.typemytype.robofont.layerData = {
backgroud = {
anchors = (
);
components = (
);
contours = (
{
points = (
{
segmentType = line;
smooth = 0;
x = 560;
y = 360;
},
{
segmentType = line;
smooth = 0;
x = 560;
y = 440;
},
{
segmentType = line;
smooth = 0;
x = 520;
y = 520;
},
{
segmentType = line;
smooth = 0;
x = 360;
y = 560;
},
{
segmentType = line;
smooth = 0;
x = 160;
y = 440;
},
{
segmentType = line;
smooth = 0;
x = 40;
y = 200;
},
{
segmentType = line;
smooth = 0;
x = 80;
y = 40;
},
{
segmentType = line;
smooth = 0;
x = 160;
y = 0;
},
{
segmentType = line;
smooth = 0;
x = 240;
y = 0;
},
{
segmentType = line;
smooth = 0;
x = 320;
y = 40;
},
{
segmentType = line;
smooth = 0;
x = 480;
y = 200;
},
{
segmentType = line;
smooth = 0;
x = 440;
y = 240;
},
{
segmentType = line;
smooth = 0;
x = 280;
y = 80;
},
{
segmentType = line;
smooth = 0;
x = 200;
y = 80;
},
{
segmentType = line;
smooth = 0;
x = 160;
y = 200;
},
{
segmentType = line;
smooth = 0;
x = 240;
y = 360;
},
{
segmentType = line;
smooth = 0;
x = 360;
y = 480;
},
{
segmentType = line;
smooth = 0;
x = 440;
y = 480;
},
{
segmentType = line;
smooth = 0;
x = 440;
y = 360;
},
{
segmentType = line;
smooth = 0;
x = 360;
y = 320;
},
{
segmentType = line;
smooth = 0;
x = 240;
y = 320;
},
{
segmentType = line;
smooth = 0;
x = 240;
y = 280;
},
{
segmentType = line;
smooth = 0;
x = 440;
y = 280;
}
);
}
);
lib = {
com.typemytype.robofont.layerData = {
backgroud = {
anchors = (
);
components = (
);
contours = (
{
points = (
{
segmentType = line;
smooth = 0;
x = -240;
y = 320;
},
{
segmentType = line;
smooth = 0;
x = -200;
y = 280;
},
{
segmentType = line;
smooth = 0;
x = 0;
y = 480;
},
{
segmentType = line;
smooth = 0;
x = 40;
y = 480;
},
{
segmentType = line;
smooth = 0;
x = -200;
y = 40;
},
{
segmentType = line;
smooth = 0;
x = -160;
y = 0;
},
{
segmentType = line;
smooth = 0;
x = -80;
y = 0;
},
{
segmentType = line;
smooth = 0;
x = 80;
y = 320;
},
{
segmentType = line;
smooth = 0;
x = 200;
y = 440;
},
{
segmentType = line;
smooth = 0;
x = 280;
y = 480;
},
{
segmentType = line;
smooth = 0;
x = 320;
y = 440;
},
{
segmentType = line;
smooth = 0;
x = 120;
y = 80;
},
{
segmentType = line;
smooth = 0;
x = 120;
y = 40;
},
{
segmentType = line;
smooth = 0;
x = 160;
y = 0;
},
{
segmentType = line;
smooth = 0;
x = 240;
y = 0;
},
{
segmentType = line;
smooth = 0;
x = 320;
y = 40;
},
{
segmentType = line;
smooth = 0;
x = 520;
y = 240;
},
{
segmentType = line;
smooth = 0;
x = 480;
y = 280;
},
{
segmentType = line;
smooth = 0;
x = 280;
y = 80;
},
{
segmentType = line;
smooth = 0;
x = 240;
y = 80;
},
{
segmentType = line;
smooth = 0;
x = 440;
y = 400;
},
{
segmentType = line;
smooth = 0;
x = 440;
y = 520;
},
{
segmentType = line;
smooth = 0;
x = 320;
y = 560;
},
{
segmentType = line;
smooth = 0;
x = 200;
y = 520;
},
{
segmentType = line;
smooth = 0;
x = 80;
y = 400;
},
{
segmentType = line;
smooth = 0;
x = 120;
y = 480;
},
{
segmentType = line;
smooth = 0;
x = 120;
y = 520;
},
{
segmentType = line;
smooth = 0;
x = 80;
y = 560;
},
{
segmentType = line;
smooth = 0;
x = -40;
y = 520;
}
);
}
);
lib = {
};
name = e;
unicodes = (
);
width = 560;
};
};
};
name = c;
unicodes = (
);
width = 560;
};
};
com.typemytype.robofont.mark = (
0.001,
0.822,
0.283,
1
);
};
width = 560;
},
{
anchors = (
{
name = bottom;
pos = (280,0);
},
{
name = top;
pos = (240,560);
}
);
layerId = master01;
shapes = (
{
closed = 1;
nodes = (
(360,0,l),
(440,40,l),
(520,120,l),
(440,160,l),
(400,80,l),
(320,40,l),
(200,80,l),
(160,240,l),
(160,320,l),
(200,480,l),
(280,520,l),
(360,480,l),
(360,360,l),
(400,360,l),
(480,440,l),
(440,520,l),
(320,560,l),
(240,560,l),
(120,520,l),
(40,360,l),
(40,200,l),
(120,40,l),
(240,0,l)
);
}
);
width = 520;
}
);
unicode = 99;
},
{
glyphname = ccedilla;
lastChange = "2021-04-23 17:31:27 +0000";
layers = (
{
layerId = "EBA0A543-5703-488C-9449-531557917997";
shapes = (
{
ref = c;
},
{
pos = (240,0);
ref = cedilla;
}
);
userData = {
com.typemytype.robofont.mark = (
0.374,
0.974,
0.983,
1
);
};
width = 640;
},
{
layerId = "C256A14B-F4BB-4E0C-9412-298CC44D4DAA";
shapes = (
{
ref = c;
},
{
pos = (-110,-40);
ref = cedilla;
}
);
userData = {
com.schriftgestaltung.Glyphs.lastChange = "2020-08-21 12:34:08 +0000";
com.typemytype.robofont.mark = (
0.374,
0.974,
0.983,
1
);
};
width = 560;
},
{
layerId = master01;
shapes = (
{
closed = 1;
nodes = (
(321,-240,l),
(360,-160,l),
(360,-80,l),
(257,-45,l),
(280,0,l),
(360,0,l),
(440,40,l),
(520,120,l),
(440,160,l),
(400,80,l),
(320,40,l),
(200,80,l),
(160,240,l),
(160,320,l),
(200,480,l),
(280,520,l),
(360,480,l),
(360,360,l),
(400,360,l),
(480,440,l),
(440,520,l),
(320,560,l),
(240,560,l),
(120,520,l),
(40,360,l),
(40,200,l),
(120,40,l),
(223,5,l),
(200,-40,l),
(200,-80,l),
(320,-119,l),
(280,-200,l),
(240,-200,l),
(200,-120,l),
(160,-160,l),
(200,-240,l)
);
}
);
width = 520;
}
);
unicode = 231;
},
{
glyphname = d;
lastChange = "2021-04-23 21:08:17 +0000";
layers = (
{
anchors = (
{
name = right;
pos = (720,880);
}
);
layerId = "EBA0A543-5703-488C-9449-531557917997";
shapes = (
{
closed = 1;
nodes = (
(400,0,l),
(480,80,l),
(520,120,l),
(560,0,l),
(600,0,l),
(760,120,l),
(760,200,l),
(680,160,l),
(640,160,l),
(640,840,l),
(360,760,l),
(400,720,l),
(440,680,l),
(440,520,l),
(360,600,l),
(280,600,l),
(160,560,l),
(40,400,l),
(40,200,l),
(160,40,l),
(320,0,l)
);
},
{
closed = 1;
nodes = (
(240,240,l),
(240,320,l),
(240,400,l),
(320,480,l),
(400,480,l),
(440,400,l),
(440,200,l),
(400,120,l),
(320,120,l)
);
}
);
userData = {
com.typemytype.robofont.layerData = {
background = {
anchors = (
);
components = (
);
contours = (
{
points = (
{
segmentType = move;
x = 600;
y = 160;
},
{
segmentType = line;
smooth = 0;
x = 640;
y = 160;
},
{
segmentType = line;
smooth = 0;
x = 720;
y = 200;
},
{
segmentType = line;
smooth = 0;
x = 720;
y = 120;
},
{
segmentType = line;
smooth = 0;
x = 560;
y = 0;
},
{
segmentType = line;
smooth = 0;
x = 520;
y = 0;
},
{
segmentType = line;
smooth = 0;
x = 480;
y = 80;
}
);
}
);
lib = {
com.typemytype.robofont.layerData = {
background = {
anchors = (
);
components = (
);
contours = (
{
points = (
{
segmentType = line;
smooth = 0;
x = 280;
y = 560;
},
{
segmentType = line;
smooth = 0;
x = 440;
y = 520;
},
{
segmentType = line;
smooth = 0;
x = 500;
y = 440;
},
{
segmentType = line;
smooth = 0;
x = 500;
y = 140;
},
{
segmentType = line;
smooth = 0;
x = 560;
y = 160;
},
{
segmentType = line;
smooth = 0;
x = 560;
y = 80;
},
{
segmentType = line;
smooth = 0;
x = 480;
y = 0;
},
{
segmentType = line;
smooth = 0;
x = 440;
y = 0;
},
{
segmentType = line;
smooth = 0;
x = 380;
y = 60;
},
{
segmentType = line;
smooth = 0;
x = 280;
y = 0;
},
{
segmentType = line;
smooth = 0;
x = 200;
y = 0;
},
{
segmentType = line;
smooth = 0;
x = 100;
y = 40;
},
{
segmentType = line;
smooth = 0;
x = 20;
y = 160;
},
{
segmentType = line;
smooth = 0;
x = 60;
y = 280;
},
{
segmentType = line;
smooth = 0;
x = 120;
y = 320;
},
{
segmentType = line;
smooth = 0;
x = 340;
y = 360;
},
{
segmentType = line;
smooth = 0;
x = 340;
y = 440;
},
{
segmentType = line;
smooth = 0;
x = 320;
y = 480;
},
{
segmentType = line;
smooth = 0;
x = 260;
y = 480;
},
{
segmentType = line;
smooth = 0;
x = 200;
y = 380;
},
{
segmentType = line;
smooth = 0;
x = 120;
y = 480;
}
);
},
{
points = (
{
segmentType = line;
smooth = 0;
x = 340;
y = 300;
},
{
segmentType = line;
smooth = 0;
x = 200;
y = 220;
},
{
segmentType = line;
smooth = 0;
x = 180;
y = 160;
},
{
segmentType = line;
smooth = 0;
x = 240;
y = 60;
},
{
segmentType = line;
smooth = 0;
x = 320;
y = 100;
},
{
segmentType = line;
smooth = 0;
x = 340;
y = 160;
}
);
}
);
lib = {
};
name = a;
unicodes = (
);
width = 580;
};
regular = {
anchors = (
);
components = (
);
contours = (
{
points = (
{
segmentType = line;
smooth = 0;
x = 240;
y = 560;
},
{
segmentType = line;
smooth = 0;
x = 400;
y = 520;
},
{
segmentType = line;
smooth = 0;
x = 440;
y = 440;
},
{
segmentType = line;
smooth = 0;
x = 440;
y = 80;
},
{
segmentType = line;
smooth = 0;
x = 520;
y = 120;
},
{
segmentType = line;
smooth = 0;
x = 520;
y = 80;
},
{
segmentType = line;
smooth = 0;
x = 440;
y = 0;
},
{
segmentType = line;
smooth = 0;
x = 400;
y = 0;
},
{
segmentType = line;
smooth = 0;
x = 360;
y = 80;
},
{
segmentType = line;
smooth = 0;
x = 240;
y = 0;
},
{
segmentType = line;
smooth = 0;
x = 160;
y = 0;
},
{
segmentType = line;
smooth = 0;
x = 80;
y = 40;
},
{
segmentType = line;
smooth = 0;
x = 0;
y = 160;
},
{
segmentType = line;
smooth = 0;
x = 40;
y = 280;
},
{
segmentType = line;
smooth = 0;
x = 120;
y = 320;
},
{
segmentType = line;
smooth = 0;
x = 320;
y = 360;
},
{
segmentType = line;
smooth = 0;
x = 320;
y = 440;
},
{
segmentType = line;
smooth = 0;
x = 280;
y = 480;
},
{
segmentType = line;
smooth = 0;
x = 200;
y = 480;
},
{
segmentType = line;
smooth = 0;
x = 160;
y = 400;
},
{
segmentType = line;
smooth = 0;
x = 80;
y = 480;
}
);
},
{
points = (
{
segmentType = line;
smooth = 0;
x = 320;
y = 320;
},
{
segmentType = line;
smooth = 0;
x = 160;
y = 240;
},
{
segmentType = line;
smooth = 0;
x = 120;
y = 160;
},
{
segmentType = line;
smooth = 0;
x = 200;
y = 40;
},
{
segmentType = line;
smooth = 0;
x = 280;
y = 80;
},
{
segmentType = line;
smooth = 0;
x = 320;
y = 160;
}
);
}
);
lib = {
};
name = a;
unicodes = (
);
width = 580;
};
};
};
name = d;
unicodes = (
);
width = 760;
};
regular = {
anchors = (
);
components = (
);
contours = (
{
points = (
{
segmentType = line;
smooth = 0;
x = 580;
y = 840;
},
{
segmentType = line;
smooth = 0;
x = 580;
y = 80;
},
{
segmentType = line;
smooth = 0;
x = 620;
y = 80;
},
{
segmentType = line;
smooth = 0;
x = 700;
y = 120;
},
{
segmentType = line;
smooth = 0;
x = 700;
y = 80;
},
{
segmentType = line;
smooth = 0;
x = 620;
y = 0;
},
{
segmentType = line;
smooth = 0;
x = 540;
y = 0;
},
{
segmentType = line;
smooth = 0;
x = 500;
y = 80;
},
{
segmentType = line;
smooth = 0;
x = 460;
y = 40;
},
{
segmentType = line;
smooth = 0;
x = 380;
y = 0;
},
{
segmentType = line;
smooth = 0;
x = 300;
y = 0;
},
{
segmentType = line;
smooth = 0;
x = 180;
y = 40;
},
{
segmentType = line;
smooth = 0;
x = 100;
y = 200;
},
{
segmentType = line;
smooth = 0;
x = 100;
y = 360;
},
{
segmentType = line;
smooth = 0;
x = 180;
y = 520;
},
{
segmentType = line;
smooth = 0;
x = 300;
y = 560;
},
{
segmentType = line;
smooth = 0;
x = 380;
y = 560;
},
{
segmentType = line;
smooth = 0;
x = 460;
y = 520;
},
{
segmentType = line;
smooth = 0;
x = 460;
y = 720;
},
{
segmentType = line;
smooth = 0;
x = 380;
y = 760;
}
);
},
{
points = (
{
segmentType = line;
smooth = 0;
x = 340;
y = 520;
},
{
segmentType = line;
smooth = 0;
x = 260;
y = 480;
},
{
segmentType = line;
smooth = 0;
x = 220;
y = 280;
},
{
segmentType = line;
smooth = 0;
x = 260;
y = 80;
},
{
segmentType = line;
smooth = 0;
x = 340;
y = 40;
},
{
segmentType = line;
smooth = 0;
x = 420;
y = 80;
},
{
segmentType = line;
smooth = 0;
x = 460;
y = 160;
},
{
segmentType = line;
smooth = 0;
x = 460;
y = 400;
},
{
segmentType = line;
smooth = 0;
x = 420;
y = 480;
}
);
}
);
lib = {
};
name = d;
unicodes = (
);
width = 760;
};
};
com.typemytype.robofont.mark = (
0.001,
0.822,
0.283,
1
);
};
width = 760;
},
{
anchors = (
{
name = right;
pos = (880,880);
}
);
layerId = "C256A14B-F4BB-4E0C-9412-298CC44D4DAA";
shapes = (
{
closed = 1;
nodes = (
(240,0,l),
(360,120,l),
(360,40,l),
(400,0,l),
(440,0,l),
(520,40,l),
(720,240,l),
(680,280,l),
(480,80,l),
(440,80,l),
(800,840,l),
(520,840,l),
(520,800,l),
(640,800,l),
(520,440,l),
(480,520,l),
(320,560,l),
(120,400,l),
(40,200,l),
(80,40,l),
(160,0,l)
);
},
{
closed = 1;
nodes = (
(160,200,l),
(240,360,l),
(360,480,l),
(440,480,l),
(480,400,l),
(480,360,l),
(360,200,l),
(240,80,l),
(200,80,l)
);
}
);
userData = {
com.typemytype.robofont.layerData = {
backgroud = {
anchors = (
);
components = (
);
contours = (
{
points = (
{
segmentType = line;
smooth = 0;
x = 240;
y = 80;
},
{
segmentType = line;
smooth = 0;
x = 200;
y = 80;
},
{
segmentType = line;
smooth = 0;
x = 160;
y = 200;
},
{
segmentType = line;
smooth = 0;
x = 240;
y = 360;
},
{
segmentType = line;
smooth = 0;
x = 360;
y = 480;
},
{
segmentType = line;
smooth = 0;
x = 440;
y = 480;
},
{
segmentType = line;
smooth = 0;
x = 480;
y = 400;
},
{
segmentType = line;
smooth = 0;
x = 480;
y = 360;
},
{
segmentType = line;
smooth = 0;
x = 360;
y = 200;
}
);
},
{
points = (
{
segmentType = line;
smooth = 0;
x = 640;
y = 520;
},
{
segmentType = line;
smooth = 0;
x = 600;
y = 560;
},
{
segmentType = line;
smooth = 0;
x = 520;
y = 440;
},
{
segmentType = line;
smooth = 0;
x = 480;
y = 520;
},
{
segmentType = line;
smooth = 0;
x = 320;
y = 560;
},
{
segmentType = line;
smooth = 0;
x = 120;
y = 400;
},
{
segmentType = line;
smooth = 0;
x = 40;
y = 200;
},
{
segmentType = line;
smooth = 0;
x = 80;
y = 40;
},
{
segmentType = line;
smooth = 0;
x = 160;
y = 0;
},
{
segmentType = line;
smooth = 0;
x = 240;
y = 0;
},
{
segmentType = line;
smooth = 0;
x = 360;
y = 120;
},
{
segmentType = line;
smooth = 0;
x = 360;
y = 40;
},
{
segmentType = line;
smooth = 0;
x = 400;
y = 0;
},
{
segmentType = line;
smooth = 0;
x = 520;
y = 40;
},
{
segmentType = line;
smooth = 0;
x = 680;
y = 240;
},
{
segmentType = line;
smooth = 0;
x = 640;
y = 280;
},
{
segmentType = line;
smooth = 0;
x = 480;
y = 80;
},
{
segmentType = line;
smooth = 0;
x = 440;
y = 80;
}
);
}
);
lib = {
com.typemytype.robofont.layerData = {
backgroud = {
anchors = (
);
components = (
);
contours = (
);
lib = {
};
name = l;
unicodes = (
);
width = 360;
};
};
};
name = d;
unicodes = (
);
width = 720;
};
};
com.typemytype.robofont.mark = (
0.001,
0.822,
0.283,
1
);
};
width = 720;
},
{
anchors = (
{
name = right;
pos = (600,880);
}
);
layerId = master01;
shapes = (
{
closed = 1;
nodes = (
(320,0,l),
(400,40,l),
(440,80,l),
(480,0,l),
(560,0,l),
(640,80,l),
(640,120,l),
(560,80,l),
(520,80,l),
(520,840,l),
(320,760,l),
(360,740,l),
(400,720,l),
(400,520,l),
(320,560,l),
(240,560,l),
(120,520,l),
(40,360,l),
(40,200,l),
(120,40,l),
(240,0,l)
);
},
{
closed = 1;
nodes = (
(200,80,l),
(160,280,l),
(200,480,l),
(280,520,l),
(360,480,l),
(400,400,l),
(400,160,l),
(360,80,l),
(280,40,l)
);
}
);
width = 640;
}
);
unicode = 100;
},
{
glyphname = e;
lastChange = "2021-04-23 21:23:46 +0000";
layers = (
{
anchors = (
{
name = bottom;
pos = (300,0);
},
{
name = right;
pos = (560,0);
},
{
name = top;
pos = (320,600);
}
);
layerId = "EBA0A543-5703-488C-9449-531557917997";
shapes = (
{
closed = 1;
nodes = (
(440,0,l),
(520,40,l),
(640,200,l),
(600,240,l),
(480,120,l),
(400,80,l),
(320,120,l),
(240,240,l),
(240,320,l),
(280,480,l),
(360,520,l),
(440,480,l),
(440,400,l),
(190,300,l),
(187,272,l),
(520,320,l),
(600,440,l),
(560,560,l),
(440,600,l),
(280,600,l),
(160,560,l),
(40,400,l),
(40,200,l),
(160,40,l),
(320,0,l)
);
}
);
userData = {
com.typemytype.robofont.layerData = {
background = {
anchors = (
);
components = (
);
contours = (
{
points = (
{
segmentType = line;
smooth = 0;
x = 440;
y = 480;
},
{
segmentType = line;
smooth = 0;
x = 360;
y = 520;
},
{
segmentType = line;
smooth = 0;
x = 280;
y = 480;
},
{
segmentType = line;
smooth = 0;
x = 240;
y = 360;
},
{
segmentType = line;
smooth = 0;
x = 240;
y = 240;
},
{
segmentType = line;
smooth = 0;
x = 320;
y = 120;
},
{
segmentType = line;
smooth = 0;
x = 400;
y = 80;
},
{
segmentType = line;
smooth = 0;
x = 480;
y = 120;
},
{
segmentType = line;
smooth = 0;
x = 560;
y = 240;
},
{
segmentType = line;
smooth = 0;
x = 640;
y = 200;
},
{
segmentType = line;
smooth = 0;
x = 520;
y = 40;
},
{
segmentType = line;
smooth = 0;
x = 440;
y = 0;
},
{
segmentType = line;
smooth = 0;
x = 320;
y = 0;
},
{
segmentType = line;
smooth = 0;
x = 160;
y = 40;
},
{
segmentType = line;
smooth = 0;
x = 40;
y = 200;
},
{
segmentType = line;
smooth = 0;
x = 40;
y = 400;
},
{
segmentType = line;
smooth = 0;
x = 160;
y = 560;
},
{
segmentType = line;
smooth = 0;
x = 320;
y = 600;
},
{
segmentType = line;
smooth = 0;
x = 440;
y = 600;
},
{
segmentType = line;
smooth = 0;
x = 560;
y = 560;
},
{
segmentType = line;
smooth = 0;
x = 600;
y = 440;
},
{
segmentType = line;
smooth = 0;
x = 520;
y = 360;
},
{
segmentType = line;
smooth = 0;
x = 440;
y = 360;
}
);
}
);
lib = {
};
name = e;
unicodes = (
);
width = 640;
};
regular = {
anchors = (
);
components = (
);
contours = (
{
points = (
{
segmentType = line;
smooth = 0;
x = 240;
y = 560;
},
{
segmentType = line;
smooth = 0;
x = 320;
y = 560;
},
{
segmentType = line;
smooth = 0;
x = 440;
y = 520;
},
{
segmentType = line;
smooth = 0;
x = 520;
y = 400;
},
{
segmentType = line;
smooth = 0;
x = 480;
y = 320;
},
{
segmentType = line;
smooth = 0;
x = 160;
y = 240;
},
{
segmentType = line;
smooth = 0;
x = 200;
y = 80;
},
{
segmentType = line;
smooth = 0;
x = 320;
y = 40;
},
{
segmentType = line;
smooth = 0;
x = 400;
y = 80;
},
{
segmentType = line;
smooth = 0;
x = 480;
y = 160;
},
{
segmentType = line;
smooth = 0;
x = 520;
y = 120;
},
{
segmentType = line;
smooth = 0;
x = 440;
y = 40;
},
{
segmentType = line;
smooth = 0;
x = 360;
y = 0;
},
{
segmentType = line;
smooth = 0;
x = 240;
y = 0;
},
{
segmentType = line;
smooth = 0;
x = 120;
y = 40;
},
{
segmentType = line;
smooth = 0;
x = 40;
y = 200;
},
{
segmentType = line;
smooth = 0;
x = 40;
y = 360;
},
{
segmentType = line;
smooth = 0;
x = 120;
y = 520;
}
);
},
{
points = (
{
segmentType = line;
smooth = 0;
x = 280;
y = 520;
},
{
segmentType = line;
smooth = 0;
x = 200;
y = 480;
},
{
segmentType = line;
smooth = 0;
x = 160;
y = 280;
},
{
segmentType = line;
smooth = 0;
x = 360;
y = 360;
},
{
segmentType = line;
smooth = 0;
x = 360;
y = 480;
}
);
}
);
lib = {
};
name = e;
unicodes = (
);
width = 640;
};
};
com.typemytype.robofont.mark = (
0.001,
0.822,
0.283,
1
);
};
width = 640;
},
{
anchors = (
{
name = bottom;
pos = (140,0);
},
{
name = right;
pos = (360,0);
},
{
name = top;
pos = (400,560);
}
);
layerId = "C256A14B-F4BB-4E0C-9412-298CC44D4DAA";
shapes = (
{
closed = 1;
nodes = (
(240,0,l),
(320,40,l),
(480,200,l),
(440,240,l),
(280,80,l),
(200,80,l),
(160,200,l),
(200,280,l),
(240,360,l),
(360,480,l),
(440,480,l),
(440,360,l),
(360,320,l),
(240,320,l),
(240,280,l),
(440,280,l),
(560,360,l),
(560,440,l),
(520,520,l),
(360,560,l),
(320,536,l),
(160,440,l),
(40,200,l),
(80,40,l),
(160,0,l)
);
}
);
userData = {
com.schriftgestaltung.Glyphs.lastChange = "2020-08-21 16:28:20 +0000";
com.typemytype.robofont.layerData = {
backgroud = {
anchors = (
);
components = (
);
contours = (
{
points = (
{
segmentType = line;
smooth = 0;
x = -240;
y = 320;
},
{
segmentType = line;
smooth = 0;
x = -200;
y = 280;
},
{
segmentType = line;
smooth = 0;
x = 0;
y = 480;
},
{
segmentType = line;
smooth = 0;
x = 40;
y = 480;
},
{
segmentType = line;
smooth = 0;
x = -200;
y = 40;
},
{
segmentType = line;
smooth = 0;
x = -160;
y = 0;
},
{
segmentType = line;
smooth = 0;
x = -80;
y = 0;
},
{
segmentType = line;
smooth = 0;
x = 80;
y = 320;
},
{
segmentType = line;
smooth = 0;
x = 200;
y = 440;
},
{
segmentType = line;
smooth = 0;
x = 280;
y = 480;
},
{
segmentType = line;
smooth = 0;
x = 320;
y = 440;
},
{
segmentType = line;
smooth = 0;
x = 120;
y = 80;
},
{
segmentType = line;
smooth = 0;
x = 120;
y = 40;
},
{
segmentType = line;
smooth = 0;
x = 160;
y = 0;
},
{
segmentType = line;
smooth = 0;
x = 240;
y = 0;
},
{
segmentType = line;
smooth = 0;
x = 320;
y = 40;
},
{
segmentType = line;
smooth = 0;
x = 520;
y = 240;
},
{
segmentType = line;
smooth = 0;
x = 480;
y = 280;
},
{
segmentType = line;
smooth = 0;
x = 280;
y = 80;
},
{
segmentType = line;
smooth = 0;
x = 240;
y = 80;
},
{
segmentType = line;
smooth = 0;
x = 440;
y = 400;
},
{
segmentType = line;
smooth = 0;
x = 440;
y = 520;
},
{
segmentType = line;
smooth = 0;
x = 320;
y = 560;
},
{
segmentType = line;
smooth = 0;
x = 200;
y = 520;
},
{
segmentType = line;
smooth = 0;
x = 80;
y = 400;
},
{
segmentType = line;
smooth = 0;
x = 120;
y = 480;
},
{
segmentType = line;
smooth = 0;
x = 120;
y = 520;
},
{
segmentType = line;
smooth = 0;
x = 80;
y = 560;
},
{
segmentType = line;
smooth = 0;
x = -40;
y = 520;
}
);
}
);
lib = {
};
name = e;
unicodes = (
);
width = 560;
};
};
com.typemytype.robofont.mark = (
0.001,
0.822,
0.283,
1
);
};
width = 560;
},
{
anchors = (
{
name = bottom;
pos = (220,0);
},
{
name = right;
pos = (480,0);
},
{
name = top;
pos = (280,560);
}
);
layerId = master01;
shapes = (
{
closed = 1;
nodes = (
(360,0,l),
(440,40,l),
(520,120,l),
(480,160,l),
(400,80,l),
(320,40,l),
(200,80,l),
(162,232,l),
(155,257,l),
(200,480,l),
(280,520,l),
(360,480,l),
(360,360,l),
(110,260,l),
(108,227,l),
(480,320,l),
(520,400,l),
(440,520,l),
(320,560,l),
(240,560,l),
(120,520,l),
(40,360,l),
(40,200,l),
(120,40,l),
(240,0,l)
);
}
);
width = 540;
}
);
unicode = 101;
},
{
glyphname = eacute;
lastChange = "2021-04-23 17:31:27 +0000";
layers = (
{
layerId = "EBA0A543-5703-488C-9449-531557917997";
shapes = (
{
alignment = -1;
ref = e;
},
{
alignment = -1;
ref = acute;
}
);
userData = {
com.schriftgestaltung.Glyphs.lastChange = "2020-08-21 16:34:47 +0000";
com.typemytype.robofont.mark = (
0.374,
0.974,
0.983,
1
);
};
width = 640;
},
{
layerId = "C256A14B-F4BB-4E0C-9412-298CC44D4DAA";
shapes = (
{
ref = e;
},
{
pos = (80,0);
ref = acute;
}
);
userData = {
com.typemytype.robofont.mark = (
0.374,
0.974,
0.983,
1
);
};
width = 560;
},
{
layerId = master01;
shapes = (
{
closed = 1;
nodes = (
(280,640,l),
(480,720,l),
(480,760,l),
(440,800,l),
(400,800,l),
(240,640,l)
);
},
{
ref = e;
}
);
width = 520;
}
);
unicode = 233;
},
{
glyphname = egrave;
lastChange = "2021-04-23 17:31:27 +0000";
layers = (
{
layerId = "EBA0A543-5703-488C-9449-531557917997";
shapes = (
{
ref = e;
},
{
pos = (40,0);
ref = grave;
}
);
userData = {
com.typemytype.robofont.mark = (
0.374,
0.974,
0.983,
1
);
};
width = 640;
},
{
layerId = "C256A14B-F4BB-4E0C-9412-298CC44D4DAA";
shapes = (
{
ref = e;
},
{
pos = (160,0);
ref = grave;
}
);
userData = {
com.typemytype.robofont.mark = (
0.374,
0.974,
0.983,
1
);
};
width = 560;
},
{
layerId = master01;
shapes = (
{
closed = 1;
nodes = (
(400,640,l),
(240,800,l),
(200,800,l),
(160,760,l),
(160,720,l),
(360,640,l)
);
},
{
ref = e;
}
);
width = 560;
}
);
unicode = 232;
},
{
glyphname = f;
lastChange = "2021-04-23 21:32:46 +0000";
layers = (
{
layerId = "EBA0A543-5703-488C-9449-531557917997";
shapes = (
{
closed = 1;
nodes = (
(320,440,l),
(360,480,l),
(440,480,l),
(440,560,l),
(320,560,l),
(280,640,l),
(280,720,l),
(320,760,l),
(360,760,l),
(320,680,l),
(440,600,l),
(520,680,l),
(480,800,l),
(360,840,l),
(200,800,l),
(160,760,l),
(120,680,l),
(120,560,l),
(80,560,l),
(40,560,l),
(40,480,l),
(120,440,l),
(120,80,l),
(40,0,l),
(120,0,l),
(180,0,l),
(220,0,l),
(260,0,l),
(320,0,l),
(400,0,l),
(320,80,l)
);
}
);
userData = {
com.typemytype.robofont.layerData = {
background = {
anchors = (
);
components = (
);
contours = (
{
points = (
{
segmentType = line;
smooth = 0;
x = 300;
y = 560;
},
{
segmentType = line;
smooth = 0;
x = 420;
y = 560;
},
{
segmentType = line;
smooth = 0;
x = 420;
y = 500;
},
{
segmentType = line;
smooth = 0;
x = 360;
y = 500;
},
{
segmentType = line;
smooth = 0;
x = 300;
y = 460;
},
{
segmentType = line;
smooth = 0;
x = 300;
y = 80;
},
{
segmentType = line;
smooth = 0;
x = 400;
y = 0;
},
{
segmentType = line;
smooth = 0;
x = 60;
y = 0;
},
{
segmentType = line;
smooth = 0;
x = 140;
y = 80;
},
{
segmentType = line;
smooth = 0;
x = 140;
y = 460;
},
{
segmentType = line;
smooth = 0;
x = 80;
y = 500;
},
{
segmentType = line;
smooth = 0;
x = 80;
y = 560;
},
{
segmentType = line;
smooth = 0;
x = 140;
y = 560;
},
{
segmentType = line;
smooth = 0;
x = 140;
y = 680;
},
{
segmentType = line;
smooth = 0;
x = 180;
y = 760;
},
{
segmentType = line;
smooth = 0;
x = 220;
y = 800;
},
{
segmentType = line;
smooth = 0;
x = 320;
y = 840;
},
{
segmentType = line;
smooth = 0;
x = 500;
y = 800;
},
{
segmentType = line;
smooth = 0;
x = 500;
y = 680;
},
{
segmentType = line;
smooth = 0;
x = 440;
y = 620;
},
{
segmentType = line;
smooth = 0;
x = 360;
y = 660;
},
{
segmentType = line;
smooth = 0;
x = 400;
y = 740;
},
{
segmentType = line;
smooth = 0;
x = 340;
y = 780;
},
{
segmentType = line;
smooth = 0;
x = 300;
y = 720;
}
);
}
);
lib = {
};
name = f;
unicodes = (
);
width = 480;
};
regular = {
anchors = (
);
components = (
);
contours = (
{
points = (
{
segmentType = line;
smooth = 0;
x = 260;
y = 520;
},
{
segmentType = line;
smooth = 0;
x = 380;
y = 520;
},
{
segmentType = line;
smooth = 0;
x = 380;
y = 480;
},
{
segmentType = line;
smooth = 0;
x = 340;
y = 480;
},
{
segmentType = line;
smooth = 0;
x = 260;
y = 440;
},
{
segmentType = line;
smooth = 0;
x = 260;
y = 80;
},
{
segmentType = line;
smooth = 0;
x = 340;
y = 0;
},
{
segmentType = line;
smooth = 0;
x = 60;
y = 0;
},
{
segmentType = line;
smooth = 0;
x = 140;
y = 80;
},
{
segmentType = line;
smooth = 0;
x = 140;
y = 440;
},
{
segmentType = line;
smooth = 0;
x = 100;
y = 480;
},
{
segmentType = line;
smooth = 0;
x = 100;
y = 520;
},
{
segmentType = line;
smooth = 0;
x = 140;
y = 520;
},
{
segmentType = line;
smooth = 0;
x = 140;
y = 680;
},
{
segmentType = line;
smooth = 0;
x = 180;
y = 760;
},
{
segmentType = line;
smooth = 0;
x = 220;
y = 800;
},
{
segmentType = line;
smooth = 0;
x = 300;
y = 840;
},
{
segmentType = line;
smooth = 0;
x = 460;
y = 800;
},
{
segmentType = line;
smooth = 0;
x = 460;
y = 680;
},
{
segmentType = line;
smooth = 0;
x = 420;
y = 640;
},
{
segmentType = line;
smooth = 0;
x = 340;
y = 680;
},
{
segmentType = line;
smooth = 0;
x = 380;
y = 760;
},
{
segmentType = line;
smooth = 0;
x = 300;
y = 800;
},
{
segmentType = line;
smooth = 0;
x = 260;
y = 720;
}
);
}
);
lib = {
};
name = f;
unicodes = (
);
width = 480;
};
};
com.typemytype.robofont.mark = (
0.001,
0.822,
0.283,
1
);
};
width = 480;
},
{
layerId = "C256A14B-F4BB-4E0C-9412-298CC44D4DAA";
shapes = (
{
closed = 1;
nodes = (
(360,480,l),
(400,480,l),
(520,480,l),
(520,520,l),
(360,520,l),
(440,640,l),
(493,720,l),
(520,760,l),
(560,760,l),
(560,680,l),
(600,640,l),
(680,680,l),
(680,800,l),
(560,840,l),
(440,800,l),
(360,720,l),
(320,639,l),
(280,560,l),
(200,520,l),
(120,520,l),
(120,480,l),
(240,480,l),
(-80,-240,l),
(-120,-240,l),
(-120,-160,l),
(-160,-120,l),
(-240,-160,l),
(-240,-280,l),
(-120,-320,l),
(-40,-280,l),
(80,-160,l)
);
}
);
userData = {
com.typemytype.robofont.mark = (
0.001,
0.822,
0.283,
1
);
};
width = 440;
},
{
layerId = master01;
shapes = (
{
closed = 1;
nodes = (
(220,440,l),
(300,480,l),
(340,480,l),
(340,520,l),
(220,520,l),
(220,640,l),
(220,720,l),
(260,800,l),
(340,760,l),
(300,680,l),
(380,640,l),
(420,680,l),
(420,800,l),
(260,840,l),
(180,800,l),
(140,760,l),
(100,680,l),
(100,520,l),
(80,520,l),
(60,520,l),
(60,480,l),
(100,440,l),
(100,80,l),
(20,0,l),
(100,0,l),
(140,0,l),
(160,0,l),
(180,0,l),
(220,0,l),
(300,0,l),
(220,80,l)
);
}
);
width = 380;
}
);
unicode = 102;
},
{
glyphname = g;
lastChange = "2021-04-23 21:35:28 +0000";
layers = (
{
anchors = (
{
name = bottom;
pos = (360,-360);
},
{
name = top;
pos = (360,600);
}
);
layerId = "EBA0A543-5703-488C-9449-531557917997";
shapes = (
{
closed = 1;
nodes = (
(400,-320,l),
(560,-280,l),
(680,-160,l),
(680,-40,l),
(600,80,l),
(360,120,l),
(360,160,l),
(480,200,l),
(600,320,l),
(600,380,l),
(600,440,l),
(520,480,l),
(520,520,l),
(680,480,l),
(720,480,l),
(680,640,l),
(480,560,l),
(360,600,l),
(240,600,l),
(160,560,l),
(40,440,l),
(40,320,l),
(160,200,l),
(240,160,l),
(120,120,l),
(120,80,l),
(240,40,l),
(40,-40,l),
(0,-160,l),
(80,-280,l),
(240,-320,l)
);
},
{
closed = 1;
nodes = (
(200,-160,l),
(200,-80,l),
(280,0,l),
(440,-40,l),
(480,-120,l),
(480,-200,l),
(400,-240,l),
(280,-240,l)
);
},
{
closed = 1;
nodes = (
(280,240,l),
(240,360,l),
(280,480,l),
(320,520,l),
(360,480,l),
(400,360,l),
(360,240,l),
(320,200,l)
);
}
);
userData = {
com.typemytype.robofont.layerData = {
background = {
anchors = (
);
components = (
);
contours = (
{
points = (
{
segmentType = line;
smooth = 0;
x = 620;
y = 580;
},
{
segmentType = line;
smooth = 0;
x = 660;
y = 440;
},
{
segmentType = line;
smooth = 0;
x = 600;
y = 440;
},
{
segmentType = line;
smooth = 0;
x = 520;
y = 480;
},
{
segmentType = line;
smooth = 0;
x = 580;
y = 400;
},
{
segmentType = line;
smooth = 0;
x = 580;
y = 320;
},
{
segmentType = line;
smooth = 0;
x = 520;
y = 220;
},
{
segmentType = line;
smooth = 0;
x = 400;
y = 160;
},
{
segmentType = line;
smooth = 0;
x = 300;
y = 120;
},
{
segmentType = line;
smooth = 0;
x = 500;
y = 40;
},
{
segmentType = line;
smooth = 0;
x = 620;
y = -80;
},
{
segmentType = line;
smooth = 0;
x = 620;
y = -160;
},
{
segmentType = line;
smooth = 0;
x = 540;
y = -280;
},
{
segmentType = line;
smooth = 0;
x = 400;
y = -320;
},
{
segmentType = line;
smooth = 0;
x = 320;
y = -320;
},
{
segmentType = line;
smooth = 0;
x = 140;
y = -280;
},
{
segmentType = line;
smooth = 0;
x = 60;
y = -160;
},
{
segmentType = line;
smooth = 0;
x = 60;
y = -60;
},
{
segmentType = line;
smooth = 0;
x = 240;
y = 40;
},
{
segmentType = line;
smooth = 0;
x = 140;
y = 80;
},
{
segmentType = line;
smooth = 0;
x = 180;
y = 120;
},
{
segmentType = line;
smooth = 0;
x = 260;
y = 160;
},
{
segmentType = line;
smooth = 0;
x = 140;
y = 200;
},
{
segmentType = line;
smooth = 0;
x = 60;
y = 320;
},
{
segmentType = line;
smooth = 0;
x = 60;
y = 400;
},
{
segmentType = line;
smooth = 0;
x = 160;
y = 520;
},
{
segmentType = line;
smooth = 0;
x = 280;
y = 560;
},
{
segmentType = line;
smooth = 0;
x = 360;
y = 560;
},
{
segmentType = line;
smooth = 0;
x = 480;
y = 520;
}
);
},
{
points = (
{
segmentType = line;
smooth = 0;
x = 320;
y = 500;
},
{
segmentType = line;
smooth = 0;
x = 260;
y = 480;
},
{
segmentType = line;
smooth = 0;
x = 220;
y = 360;
},
{
segmentType = line;
smooth = 0;
x = 260;
y = 240;
},
{
segmentType = line;
smooth = 0;
x = 320;
y = 220;
},
{
segmentType = line;
smooth = 0;
x = 380;
y = 240;
},
{
segmentType = line;
smooth = 0;
x = 420;
y = 360;
},
{
segmentType = line;
smooth = 0;
x = 380;
y = 480;
}
);
},
{
points = (
{
segmentType = line;
smooth = 0;
x = 280;
y = -20;
},
{
segmentType = line;
smooth = 0;
x = 220;
y = -80;
},
{
segmentType = line;
smooth = 0;
x = 220;
y = -160;
},
{
segmentType = line;
smooth = 0;
x = 280;
y = -220;
},
{
segmentType = line;
smooth = 0;
x = 400;
y = -260;
},
{
segmentType = line;
smooth = 0;
x = 460;
y = -200;
},
{
segmentType = line;
smooth = 0;
x = 460;
y = -120;
},
{
segmentType = line;
smooth = 0;
x = 400;
y = -60;
}
);
}
);
lib = {
};
name = g;
unicodes = (
);
width = 680;
};
regular = {
anchors = (
);
components = (
);
contours = (
{
points = (
{
segmentType = line;
smooth = 0;
x = 580;
y = 560;
},
{
segmentType = line;
smooth = 0;
x = 620;
y = 440;
},
{
segmentType = line;
smooth = 0;
x = 580;
y = 440;
},
{
segmentType = line;
smooth = 0;
x = 500;
y = 480;
},
{
segmentType = line;
smooth = 0;
x = 540;
y = 400;
},
{
segmentType = line;
smooth = 0;
x = 540;
y = 320;
},
{
segmentType = line;
smooth = 0;
x = 500;
y = 240;
},
{
segmentType = line;
smooth = 0;
x = 380;
y = 160;
},
{
segmentType = line;
smooth = 0;
x = 260;
y = 120;
},
{
segmentType = line;
smooth = 0;
x = 460;
y = 40;
},
{
segmentType = line;
smooth = 0;
x = 580;
y = -80;
},
{
segmentType = line;
smooth = 0;
x = 580;
y = -160;
},
{
segmentType = line;
smooth = 0;
x = 500;
y = -280;
},
{
segmentType = line;
smooth = 0;
x = 380;
y = -320;
},
{
segmentType = line;
smooth = 0;
x = 300;
y = -320;
},
{
segmentType = line;
smooth = 0;
x = 140;
y = -280;
},
{
segmentType = line;
smooth = 0;
x = 60;
y = -160;
},
{
segmentType = line;
smooth = 0;
x = 60;
y = -80;
},
{
segmentType = line;
smooth = 0;
x = 220;
y = 40;
},
{
segmentType = line;
smooth = 0;
x = 140;
y = 80;
},
{
segmentType = line;
smooth = 0;
x = 180;
y = 120;
},
{
segmentType = line;
smooth = 0;
x = 260;
y = 160;
},
{
segmentType = line;
smooth = 0;
x = 140;
y = 200;
},
{
segmentType = line;
smooth = 0;
x = 60;
y = 320;
},
{
segmentType = line;
smooth = 0;
x = 60;
y = 400;
},
{
segmentType = line;
smooth = 0;
x = 140;
y = 520;
},
{
segmentType = line;
smooth = 0;
x = 260;
y = 560;
},
{
segmentType = line;
smooth = 0;
x = 340;
y = 560;
},
{
segmentType = line;
smooth = 0;
x = 460;
y = 520;
}
);
},
{
points = (
{
segmentType = line;
smooth = 0;
x = 300;
y = 520;
},
{
segmentType = line;
smooth = 0;
x = 220;
y = 480;
},
{
segmentType = line;
smooth = 0;
x = 180;
y = 360;
},
{
segmentType = line;
smooth = 0;
x = 220;
y = 240;
},
{
segmentType = line;
smooth = 0;
x = 300;
y = 200;
},
{
segmentType = line;
smooth = 0;
x = 380;
y = 240;
},
{
segmentType = line;
smooth = 0;
x = 420;
y = 360;
},
{
segmentType = line;
smooth = 0;
x = 380;
y = 480;
}
);
},
{
points = (
{
segmentType = line;
smooth = 0;
x = 260;
y = 0;
},
{
segmentType = line;
smooth = 0;
x = 180;
y = -80;
},
{
segmentType = line;
smooth = 0;
x = 180;
y = -160;
},
{
segmentType = line;
smooth = 0;
x = 260;
y = -240;
},
{
segmentType = line;
smooth = 0;
x = 380;
y = -280;
},
{
segmentType = line;
smooth = 0;
x = 460;
y = -200;
},
{
segmentType = line;
smooth = 0;
x = 460;
y = -120;
},
{
segmentType = line;
smooth = 0;
x = 380;
y = -40;
}
);
}
);
lib = {
};
name = g;
unicodes = (
);
width = 680;
};
};
com.typemytype.robofont.mark = (
0.001,
0.822,
0.283,
1
);
};
width = 680;
},
{
layerId = "C256A14B-F4BB-4E0C-9412-298CC44D4DAA";
shapes = (
{
closed = 1;
nodes = (
(160,-320,l),
(320,-280,l),
(400,-160,l),
(400,-80,l),
(200,80,l),
(200,120,l),
(320,120,l),
(520,240,l),
(560,360,l),
(520,480,l),
(640,480,l),
(640,520,l),
(480,520,l),
(320,560,l),
(120,440,l),
(80,320,l),
(160,160,l),
(80,120,l),
(80,80,l),
(120,40,l),
(-80,-40,l),
(-120,-120,l),
(-80,-240,l),
(80,-320,l)
);
},
{
closed = 1;
nodes = (
(40,-200,l),
(0,-120,l),
(40,-40,l),
(160,0,l),
(280,-120,l),
(280,-200,l),
(160,-280,l)
);
},
{
closed = 1;
nodes = (
(200,320,l),
(200,360,l),
(320,480,l),
(400,480,l),
(440,360,l),
(440,320,l),
(320,200,l),
(240,200,l)
);
}
);
userData = {
com.typemytype.robofont.mark = (
0.001,
0.822,
0.283,
1
);
};
width = 600;
},
{
anchors = (
{
name = bottom;
pos = (320,-360);
},
{
name = top;
pos = (322,557);
}
);
layerId = master01;
shapes = (
{
closed = 1;
nodes = (
(360,-320,l),
(480,-280,l),
(560,-160,l),
(560,-80,l),
(440,40,l),
(245,118,l),
(240,120,l),
(360,160,l),
(480,240,l),
(520,320,l),
(520,400,l),
(481,478,l),
(480,480,l),
(560,440,l),
(600,440,l),
(560,560,l),
(440,520,l),
(320,560,l),
(240,560,l),
(120,520,l),
(40,400,l),
(40,320,l),
(120,200,l),
(240,160,l),
(160,120,l),
(120,80,l),
(200,40,l),
(40,-80,l),
(40,-160,l),
(120,-280,l),
(280,-320,l)
);
},
{
closed = 1;
nodes = (
(240,-240,l),
(160,-160,l),
(160,-80,l),
(240,0,l),
(360,-40,l),
(440,-120,l),
(440,-200,l),
(360,-280,l)
);
},
{
closed = 1;
nodes = (
(200,240,l),
(160,360,l),
(200,480,l),
(280,520,l),
(360,480,l),
(400,360,l),
(360,240,l),
(280,200,l)
);
}
);
width = 600;
}
);
unicode = 103;
},
{
glyphname = h;
lastChange = "2021-04-23 22:12:06 +0000";
layers = (
{
anchors = (
{
name = bottom;
pos = (400,0);
},
{
name = top;
pos = (80,880);
}
);
layerId = "EBA0A543-5703-488C-9449-531557917997";
shapes = (
{
closed = 1;
nodes = (
(360,0,l),
(320,80,l),
(320,400,l),
(400,440,l),
(440,440,l),
(480,400,l),
(480,80,l),
(440,0,l),
(760,0,l),
(680,80,l),
(680,480,l),
(600,560,l),
(480,600,l),
(400,560,l),
(320,480,l),
(320,840,l),
(40,760,l),
(120,680,l),
(120,80,l),
(40,0,l)
);
}
);
userData = {
com.typemytype.robofont.layerData = {
background = {
anchors = (
{
name = top;
x = 440;
y = 600;
},
{
name = bottom;
x = 440;
y = 0;
}
);
components = (
);
contours = (
);
lib = {
com.typemytype.robofont.layerData = {
background = {
anchors = (
);
components = (
);
contours = (
);
lib = {
};
name = n;
unicodes = (
);
width = 800;
};
regular = {
anchors = (
);
components = (
);
contours = (
{
points = (
{
segmentType = line;
smooth = 0;
x = 100;
y = 0;
},
{
segmentType = line;
smooth = 0;
x = 180;
y = 80;
},
{
segmentType = line;
smooth = 0;
x = 180;
y = 440;
},
{
segmentType = line;
smooth = 0;
x = 100;
y = 480;
},
{
segmentType = line;
smooth = 0;
x = 300;
y = 560;
},
{
segmentType = line;
smooth = 0;
x = 260;
y = 400;
},
{
segmentType = line;
smooth = 0;
x = 380;
y = 520;
},
{
segmentType = line;
smooth = 0;
x = 460;
y = 560;
},
{
segmentType = line;
smooth = 0;
x = 620;
y = 520;
},
{
segmentType = line;
smooth = 0;
x = 660;
y = 440;
},
{
segmentType = line;
smooth = 0;
x = 660;
y = 80;
},
{
segmentType = line;
smooth = 0;
x = 740;
y = 0;
},
{
segmentType = line;
smooth = 0;
x = 460;
y = 0;
},
{
segmentType = line;
smooth = 0;
x = 540;
y = 80;
},
{
segmentType = line;
smooth = 0;
x = 540;
y = 440;
},
{
segmentType = line;
smooth = 0;
x = 500;
y = 480;
},
{
segmentType = line;
smooth = 0;
x = 420;
y = 480;
},
{
segmentType = line;
smooth = 0;
x = 300;
y = 360;
},
{
segmentType = line;
smooth = 0;
x = 300;
y = 80;
},
{
segmentType = line;
smooth = 0;
x = 380;
y = 0;
}
);
}
);
lib = {
};
name = n;
unicodes = (
);
width = 800;
};
};
};
name = h;
unicodes = (
);
width = 800;
};
regular = {
anchors = (
);
components = (
);
contours = (
{
points = (
{
segmentType = line;
smooth = 0;
x = 60;
y = 760;
},
{
segmentType = line;
smooth = 0;
x = 260;
y = 840;
},
{
segmentType = line;
smooth = 0;
x = 260;
y = 440;
},
{
segmentType = line;
smooth = 0;
x = 300;
y = 520;
},
{
segmentType = line;
smooth = 0;
x = 380;
y = 560;
},
{
segmentType = line;
smooth = 0;
x = 540;
y = 520;
},
{
segmentType = line;
smooth = 0;
x = 580;
y = 440;
},
{
segmentType = line;
smooth = 0;
x = 580;
y = 80;
},
{
segmentType = line;
smooth = 0;
x = 660;
y = 0;
},
{
segmentType = line;
smooth = 0;
x = 380;
y = 0;
},
{
segmentType = line;
smooth = 0;
x = 460;
y = 80;
},
{
segmentType = line;
smooth = 0;
x = 460;
y = 440;
},
{
segmentType = line;
smooth = 0;
x = 420;
y = 480;
},
{
segmentType = line;
smooth = 0;
x = 340;
y = 480;
},
{
segmentType = line;
smooth = 0;
x = 260;
y = 360;
},
{
segmentType = line;
smooth = 0;
x = 260;
y = 80;
},
{
segmentType = line;
smooth = 0;
x = 340;
y = 0;
},
{
segmentType = line;
smooth = 0;
x = 60;
y = 0;
},
{
segmentType = line;
smooth = 0;
x = 140;
y = 80;
},
{
segmentType = line;
smooth = 0;
x = 140;
y = 720;
}
);
}
);
lib = {
};
name = h;
unicodes = (
);
width = 800;
};
};
com.typemytype.robofont.mark = (
0.001,
0.822,
0.283,
1
);
};
width = 800;
},
{
anchors = (
{
name = bottom;
pos = (80,0);
},
{
name = top;
pos = (360,880);
}
);
layerId = "C256A14B-F4BB-4E0C-9412-298CC44D4DAA";
shapes = (
{
closed = 1;
nodes = (
(40,0,l),
(200,320,l),
(320,440,l),
(400,480,l),
(440,440,l),
(240,80,l),
(240,40,l),
(280,0,l),
(360,0,l),
(440,40,l),
(640,240,l),
(600,280,l),
(400,80,l),
(360,80,l),
(560,400,l),
(560,520,l),
(440,560,l),
(320,520,l),
(240,440,l),
(440,840,l),
(160,840,l),
(160,800,l),
(280,800,l),
(120,400,l),
(-80,40,l),
(-40,0,l)
);
}
);
userData = {
com.typemytype.robofont.layerData = {
backgroud = {
anchors = (
);
components = (
);
contours = (
{
points = (
{
segmentType = line;
smooth = 0;
x = 80;
y = 80;
},
{
segmentType = line;
smooth = 0;
x = 120;
y = 80;
},
{
segmentType = line;
smooth = 0;
x = 280;
y = 280;
},
{
segmentType = line;
smooth = 0;
x = 320;
y = 240;
},
{
segmentType = line;
smooth = 0;
x = 160;
y = 40;
},
{
segmentType = line;
smooth = 0;
x = 40;
y = 0;
},
{
segmentType = line;
smooth = 0;
x = -40;
y = 40;
},
{
segmentType = line;
smooth = 0;
x = -40;
y = 80;
},
{
segmentType = line;
smooth = 0;
x = 280;
y = 800;
},
{
segmentType = line;
smooth = 0;
x = 160;
y = 800;
},
{
segmentType = line;
smooth = 0;
x = 160;
y = 840;
},
{
segmentType = line;
smooth = 0;
x = 440;
y = 840;
}
);
}
);
lib = {
};
name = h;
unicodes = (
);
width = 640;
};
};
com.typemytype.robofont.mark = (
0.001,
0.822,
0.283,
1
);
};
width = 640;
},
{
anchors = (
{
name = bottom;
pos = (320,0);
},
{
name = top;
pos = (40,840);
}
);
layerId = master01;
shapes = (
{
closed = 1;
nodes = (
(300,0,l),
(220,80,l),
(220,360,l),
(300,480,l),
(380,480,l),
(420,440,l),
(420,80,l),
(340,0,l),
(620,0,l),
(540,80,l),
(540,440,l),
(500,520,l),
(340,560,l),
(260,520,l),
(220,440,l),
(220,840,l),
(20,760,l),
(100,720,l),
(100,80,l),
(20,0,l)
);
}
);
width = 640;
}
);
unicode = 104;
},
{
glyphname = i;
lastChange = "2021-04-23 21:37:36 +0000";
layers = (
{
anchors = (
{
name = right;
pos = (360,0);
}
);
layerId = "EBA0A543-5703-488C-9449-531557917997";
shapes = (
{
closed = 1;
nodes = (
(400,0,l),
(320,80,l),
(320,600,l),
(40,520,l),
(120,440,l),
(120,80,l),
(40,0,l)
);
},
{
closed = 1;
nodes = (
(240,600,l),
(320,720,l),
(320,760,l),
(200,840,l),
(160,840,l),
(80,720,l),
(80,680,l),
(200,600,l)
);
}
);
userData = {
com.typemytype.robofont.layerData = {
regular = {
anchors = (
);
components = (
);
contours = (
{
points = (
{
segmentType = line;
smooth = 0;
x = 60;
y = 480;
},
{
segmentType = line;
smooth = 0;
x = 260;
y = 560;
},
{
segmentType = line;
smooth = 0;
x = 260;
y = 80;
},
{
segmentType = line;
smooth = 0;
x = 340;
y = 0;
},
{
segmentType = line;
smooth = 0;
x = 60;
y = 0;
},
{
segmentType = line;
smooth = 0;
x = 140;
y = 80;
},
{
segmentType = line;
smooth = 0;
x = 140;
y = 440;
}
);
},
{
points = (
{
segmentType = line;
smooth = 0;
x = 180;
y = 640;
},
{
segmentType = line;
smooth = 0;
x = 100;
y = 680;
},
{
segmentType = line;
smooth = 0;
x = 100;
y = 720;
},
{
segmentType = line;
smooth = 0;
x = 140;
y = 800;
},
{
segmentType = line;
smooth = 0;
x = 180;
y = 800;
},
{
segmentType = line;
smooth = 0;
x = 260;
y = 760;
},
{
segmentType = line;
smooth = 0;
x = 260;
y = 720;
},
{
segmentType = line;
smooth = 0;
x = 220;
y = 640;
}
);
}
);
lib = {
};
name = i;
unicodes = (
);
width = 440;
};
};
com.typemytype.robofont.mark = (
0.001,
0.822,
0.283,
1
);
};
width = 440;
},
{
anchors = (
{
name = right;
pos = (359,1);
}
);
layerId = "C256A14B-F4BB-4E0C-9412-298CC44D4DAA";
shapes = (
{
closed = 1;
nodes = (
(160,0,l),
(240,40,l),
(440,240,l),
(400,280,l),
(200,80,l),
(160,80,l),
(400,480,l),
(400,520,l),
(320,560,l),
(200,520,l),
(0,320,l),
(40,280,l),
(240,480,l),
(280,480,l),
(40,80,l),
(40,40,l),
(80,0,l)
);
},
{
closed = 1;
nodes = (
(480,640,l),
(520,720,l),
(520,760,l),
(440,800,l),
(400,800,l),
(360,720,l),
(360,680,l),
(440,640,l)
);
}
);
userData = {
com.typemytype.robofont.layerData = {
backgroud = {
anchors = (
);
components = (
);
contours = (
{
points = (
{
segmentType = line;
smooth = 0;
x = 160;
y = 80;
},
{
segmentType = line;
smooth = 0;
x = 360;
y = 480;
},
{
segmentType = line;
smooth = 0;
x = 480;
y = 480;
},
{
segmentType = line;
smooth = 0;
x = 480;
y = 520;
},
{
segmentType = line;
smooth = 0;
x = 360;
y = 520;
},
{
segmentType = line;
smooth = 0;
x = 440;
y = 680;
},
{
segmentType = line;
smooth = 0;
x = 360;
y = 680;
},
{
segmentType = line;
smooth = 0;
x = 320;
y = 560;
},
{
segmentType = line;
smooth = 0;
x = 240;
y = 520;
},
{
segmentType = line;
smooth = 0;
x = 160;
y = 520;
},
{
segmentType = line;
smooth = 0;
x = 160;
y = 480;
},
{
segmentType = line;
smooth = 0;
x = 240;
y = 480;
},
{
segmentType = line;
smooth = 0;
x = 40;
y = 80;
},
{
segmentType = line;
smooth = 0;
x = 40;
y = 40;
},
{
segmentType = line;
smooth = 0;
x = 80;
y = 0;
},
{
segmentType = line;
smooth = 0;
x = 160;
y = 0;
},
{
segmentType = line;
smooth = 0;
x = 240;
y = 40;
},
{
segmentType = line;
smooth = 0;
x = 400;
y = 240;
},
{
segmentType = line;
smooth = 0;
x = 360;
y = 280;
},
{
segmentType = line;
smooth = 0;
x = 200;
y = 80;
}
);
}
);
lib = {
};
name = i;
unicodes = (
);
width = 440;
};
};
com.typemytype.robofont.mark = (
0.001,
0.822,
0.283,
1
);
};
width = 440;
},
{
anchors = (
{
name = right;
pos = (280,0);
}
);
layerId = master01;
shapes = (
{
closed = 1;
nodes = (
(320,0,l),
(240,80,l),
(240,560,l),
(40,480,l),
(120,440,l),
(120,80,l),
(40,0,l)
);
},
{
closed = 1;
nodes = (
(200,640,l),
(240,720,l),
(240,760,l),
(160,800,l),
(120,800,l),
(80,720,l),
(80,680,l),
(160,640,l)
);
}
);
width = 360;
}
);
unicode = 105;
},
